<mxfile host="app.diagrams.net" agent="Mozilla/5.0 (Windows NT 10.0; Win64; x64) AppleWebKit/537.36 (KHTML, like Gecko) Chrome/137.0.0.0 Safari/537.36" version="27.2.0">
  <diagram id="C5RBs43oDa-KdzZeNtuy" name="Page-1">
    <mxGraphModel dx="1000" dy="631" grid="1" gridSize="10" guides="1" tooltips="1" connect="1" arrows="1" fold="1" page="1" pageScale="1" pageWidth="827" pageHeight="1169" math="0" shadow="0">
      <root>
        <mxCell id="WIyWlLk6GJQsqaUBKTNV-0" />
        <mxCell id="WIyWlLk6GJQsqaUBKTNV-1" parent="WIyWlLk6GJQsqaUBKTNV-0" />
        <mxCell id="-COdb05E4avoqhz34k6Q-72" value="" style="endArrow=open;endFill=1;endSize=12;html=1;rounded=0;" edge="1" parent="WIyWlLk6GJQsqaUBKTNV-1">
          <mxGeometry width="160" relative="1" as="geometry">
            <mxPoint x="317" y="711" as="sourcePoint" />
            <mxPoint x="340" y="740" as="targetPoint" />
          </mxGeometry>
        </mxCell>
        <mxCell id="-COdb05E4avoqhz34k6Q-0" value="" style="shape=image;verticalLabelPosition=bottom;labelBackgroundColor=default;verticalAlign=top;aspect=fixed;imageAspect=0;image=data:image/png,iVBORw0KGgoAAAANSUhEUgAABsoAAAKvCAYAAADDdporAAAAAXNSR0IArs4c6QAAAARnQU1BAACxjwv8YQUAAAAJcEhZcwAADsMAAA7DAcdvqGQAAP+lSURBVHhe7N3viyPXnS/+T+9zO66WH2X9NaGrDdc4Sw+O2rN4uwNjsCWPTXCIY6mdZRmw2RlpgyG/pj2SzSV4ZhJ1NhsIm261ScCYvZE6trnmYnW6bfCApQTb0zYSa5ML0yXM4J1H0sjO/AH1fbBduud86lTVKalKrR/vFxToVJVKp06dX1WnqjRn27ZNAAAAAAAAAAAAAAAAADPmb/gMAAAAAAAAAAAAAAAAgFmAgTIAAAAAAAAAAAAAAACYSRgoAwAAAAAAAAAAAAAAgJmEgTIAAAAAAAAAAAAAAACYSRgoAwAAAAAAAAAAAAAAgJmEgTIAAAAAAAAAAAAAAACYSRgoAwAAAAAAAAAAAAAAgJmEgTIAAAAAAAAAAAAAAACYSRgoAwAAAAAAAAAAAAAAgJmEgTIAAAAAAAAAAAAAAACYSRgoAwAAAAAAAAAAAAAAgJmEgTIAAAAAAAAAAAAAAACYSRgoAwAAAAAAAAAAAAAAgJmEgTIAAAAAAAAAAAAAAACYSRgoAwAAAAAAAAAAAAAAgJmEgTIAAAAAAAAAAAAAAACYSRgoAwAAAAAAAAAAAAAAgJmEgTIAAAAAAAAAAAAAAACYSRgoAwAAAAAAAAAAAAAAgJmEgTIAAAAAAAAAAAAAAACYSRgoAwAAAAAAAAAAAAAAgJmEgTIAAAAAAAAAAAAAAACYSRgoAwAAAAAAAAAAAAAAgJmEgTIAAAAAAAAAAAAAAACYSRgoAwAAAAAAAAAAAAAAgJmEgTIAAAAAAAAAAAAAAACYSXO2bdt8JsDu7i796U9/oo8++og+/PBD6vV6/WXJZJJM06RTp07Rww8/TAsLC9J3IRq7u7v01ltvUbvdpv39fWmZcwyeeOIJevjhhymRSEjLAQAAAAAAAAAAAAAgGAbKQLK9vU2/+MUvyLIsvshTLpejl156CYM1EalWq/TCCy9oH4NcLkebm5t8NgAAAAAAAAAAAAAABMBAGRARUavVomeffZYODg74Ii2ZTIaq1SqfDSF0u1363ve+53p6LEgqlaK9vT0+GwAAAAAAAAAAAAAAAuA/yoBarRadOnVq4EEyIqKdnR0+C0LodruUTqdDD5IBAAAAAAAAAAAAAMDgMFA247rdLp06dUr6DzJRLpejer1Otm33p2azSeVymZLJJF8dBvRv//ZvyoFK0zSpUqmQZVn99O90OlSv16lUKlEymaSHHnqIfw0AAAAAAAAAAAAAADTg1YszzuspJsMw6P/8n/9DKysrfJGk0WjQD37wAzJNE69eHFC73SbTNPls/PcbAAAAAAAAAAAAAEDMMFA2wxqNBq2urvLZRETUbDZpaWmJz4YY5PN52trakuaZpkkffPABBskAAAAAAAAAAAAAAGKEVy/OsIsXL/JZRERUKpUiHyTb3d2lYrFI6XSa5ufnaW5urj8tLy9TNpul7e1t6na7/Ku+qtUq5fN5Wl5elra5uLhI6XSaisUiNRoN/jVPu7u7ntsbNI5+ut2ua5CMjo5NVINkGxsb/TSfn5+nYrHIVwEAAAAAAAAAAAAAmEl4omxGeb3uj4io0+lENkhTrVbphRdeIMuy+CIlwzBoc3OTstksXyRptVr0ne98R3u7QU/INRoNOnPmjNb2DMOgn/3sZ3T27Fm+KLRqtUpra2t8NkVVLFutFp04cYLPpkqlEpjGAAAAAAAAAAAAAADTDk+Uzah33nmHzyIiokwmE9kgWTqdprW1Na3BJ0ev16O1tTXf/ztzBn/CbPfWrVt8Vl+1WqXV1VXt7fV6PTp37hzl83m+KLT33nuPz6JUKsVnDUz1/3NERNevX+ezAAAAAAAAAAAAAABmDgbKZtSVK1f4LCIiuv/++/msgXkN0ujI5/Oerzj8zne+w2cNrNFoKJ/o0rG1tUW7u7t8dijtdpvPooWFBSKf10AuLy9TPp8P9UpJAAAAAAAAAAAAAABww0DZjPriiy/4LCIievDBB/msSJimSeVymer1Otm23Z9qtRolk0m+OvV6PeVTb7u7u8onv8rlMnU6nf52m80mVSoVymQyRER022238a9Qt9ulM2fO8NlkGAZVKpX+9jqdDlUqFeWrKp977jk+KxTVYGK73abFxUV67LHHaGtriw4ODqTlBwcHtLW1Raurq5ROpz0HFAEAAAAAAAAAAAAAwB/+o2xGzc3N8VlERFSv12llZYXPHsjy8jL1ej369a9/TadPn+aL+7rdLt155518NuVyOdrc3JTmbWxs0Pr6ujQvlUrR3t6eNE+H6v/BDMOgK1euKP/PrNvt0j333EO9Xk+aX6vVfPfPj9dxCCOZTNLVq1f5bKKjJ+ZWV1f5bPxHGQAAAAAAAAAAAAAAniiDOF29epUODw8DB5ESiYTyf7lUryVUOTw8HOipql/+8pd8FuVyOeUgGR3FUzW49Kc//YnPGqmDgwPa2Njgs4mIaGVlhQqFAhmGQXQ0EFgoFJT7AQAAAAAAAAAAAAAwazBQBhPl61//Op9FlmVROp0O9X9h3W7X9UpDIqJHH32Uz5J87Wtf47Poo48+4rOG5gxoia+qbDab/VdJcj//+c/5rL5Lly7RzZs3ybZtunnzJl26dImvAgAAAAAAAAAAAAAwk/DqxRnl9cq/KF+9KNrd3aU//elP9NFHH9Hh4aHyf8Y41SsVvV5/6DBNkzKZDD3zzDO0sLDAF/d5vZJwEKp46lIdB9M06YMPPqBEIsEXERFROp1W/rdZs9n0fBoOAAAAAAAAAAAAAADc8ETZjHJexRe37e1tmp+fp8cee4wuX75M+/v7WoNkXhKJhOt/y0SWZdHly5fJNE1Kp9PUaDT4KpH78MMP+ayhLC4ueg6SERGdOXOGzyIior/85S98FgAAAAAAAAAAAAAA+MBA2Yx64IEH+CwiIvr000/5rIHl83k6d+6c59Nfg8pms1SpVAIH+/b392l1dZWKxSJfFCmvtIzLXXfdxWcREdH169f5LAAAAAAAAAAAAAAA8IGBshnl9VrCVqvFZw2kWq3S1tYWnx2ZbDZL165do1KpRKZp8sWSy5cv08bGBp8dGa8nvAAAAAAAAAAAAAAAYLxhoGxGffOb3+SziI4GuKLwwgsv8FlERJTL5aher5Nt29KUSqX4qoESiQSdP3+eDg8PqVarUS6X46v0/fznP6dut8tnu6jiFjRls1m+GW2qQT7V/48BAAAAAAAAAAAAAED0MFA2ox5++GE+i4iIer0ebW9v89mhdLtd5f+Qlctl2tzcpJWVFb5oaKdPn6bNzU2yLEs56Nbr9aT/8Lrtttuk5Y7PP/+cz4rV4uIin0VERO12m8/q++tf/8pnERHRgw8+yGcBAAAAAAAAAAAAAIAPDJTNqEQi4fkE1oULF3wHaoKIA1Ki++67j8+K3MLCAv2v//W/+GyXpaUl5X+cvfLKK3xWrB566CE+i4iIPvzwQz6r76233uKziIjo3nvv5bOIiKhYLNL8/DzNzc3R/Px87P/ZBgAAAAAAAAAAAAAwKTBQNsN+/OMf81lER09fZTIZrf8ra7fblE6naX5+vj/P62ktryehqtWq9usGt7e3aXFxkRqNBl8UmuqVifv7+5G9flKH6uk3Onp1pepVka1WS/nfb5lMhhKJBJ9NrVaLLl++TL1ej+jo2F6+fHmk+wgAAAAAAAAAAAAAMK4wUDbDFhYWqFQq8dlERHRwcEAnTpygfD7vGpRqtVpUrVYpnU6TaZq0v7/fH4ghn6e1/vEf/5F2d3f74VarRdlsltbW1qT1/Hz55ZdkWRatrq5SOp2marUqPf3WarXoe9/7nvQdx1e/+lUp/PTTT0thx9ramnK/iYgajQZVq1XK5/O0uLhIy8vLfJVQlpaWlINllmXR9773PWmwslqt0qlTp6T1HN///vf5LCKf/zu7fv06nwUAAAAAAAAAAAAAMHPmbNu2+UyYLfl8XvmUUlhiVopim6lUivb29qR5GxsbtL6+Ls3TkcvlaHNzk8+mYrFIly9f5rNDGbYINRoNWl1d5bO1FQoFunTpEp9N5JNepVKJzp8/z2cDAAAAAAAAAAAAAMwUPFEGtLm5SYVCgc8OxTRNKfzSSy8pnyob1le+8hU+K1AymaSXXnqJzyYiokuXLnn+V9uorKysUKVS4bO15HI5z0EyAAAAAAAAAAAAAADwh4EyIDoaMKrX68rXAAbJZDL0xhtvSPMSiQRduXLFNYCmYhgG1et1PlvpySefDBXHTCZDe3t7yv/vcmxublK5XB5oYC+TyfBZA8lms1SpVLTjYJom1Wo15VNyIq+0uvvuu/ksAAAAAAAAAAAAAICZg1cvgkur1aL9/X1699136fDwkCzLkpanUilaWFigb37zm/TAAw/QwsKCtJyrVqv05ptv0ttvv93/LzPDMOiRRx6hU6dO0ZNPPkmJRIKy2Szt7Oz0v+f3esBWq0V/+MMf6KOPPpL+h8swDHrggQfoG9/4Bj311FO0tLQkfc9Pt9uld955h9577z1qt9uu//dytn3HHXfQ/fffTw8++CCtrKxI6wzLicObb75JBwcHUtonk0kyTZOeeOIJymaz0vf8FItF2traol6vR4Zh4Ck0AAAAAAAAAAAAAIAjGCgDAAAAAAAAAAAAAACAmYRXLwIAAAAAAAAAAAAAAMBMwkAZAAAAAAAAAAAAAAAAzCQMlAEAAAAAAAAAAAAAAMBMwkAZAAAAAAAAAAAAAAAAzCQMlAEAAAAAAAAAAAAAAMBMwkAZAAAAAAAAAAAAAAAAzCQMlAEAAAAAAAAAAAAAAMBMwkAZAAAAAAAAAAAAAAAAzCQMlAEAAAAAAAAAAAAAAMBMwkAZAAAAAAAAAAAAAAAAzCQMlAEAAAAAAAAAAAAAAMBMwkAZAAAAAAAAAAAAAAAAzCQMlAEAAAAAAAAAAAAAAMBMwkAZAAAAAAAAAAAAAAAAzCQMlAEAAAAAAAAAAAAAAMBMwkAZAAAAAAAAAAAAAAAAzCQMlAEAAAAAAAAAAAAAAMBMwkAZAAAAAAAAAAAAAAAAzCQMlAEAAAAAAAAAAAAAAMBMwkAZAAAAAAAAAAAAAAAAzCQMlAEAAAAAAAAAAAAAAMBMwkAZAAAAAAAAAAAAAAAAzCQMlAEAAAAAAAAAAAAAAMBMwkAZAAAAAAAAAAAAAAAAzCQMlAEAAAAAAAAAAAAAAMBMwkAZAAAAAAAAAAAAAAAAzCQMlAEAAAAAAAAAAAAAAMBMwkAZAAAAAAAAAAAAAAAAzCQMlAEAAAAAAAAAAAAAAMBMwkAZAAAAAAAAAAAAAAAAzCQMlAEAAAAAAAAAAAAAAMBMwkAZAAAAAAAAAAAAAAAAzCQMlAEAAAAAAAAAAAAAAMBMwkAZAAAAAAAAAAAAAAAAzCQMlAHAVGm327S4uEhzc3M0NzdHu7u7fBUALchL0atWq5ROp/tpOjc3R+l0mra3t/mqsdvd3aX5+Xmam5uj+fl5arfbfBUAAJggvF5vtVp8FZggYn+hWCzyxQAwo1A3gKNarfbzwuLiIl987MS8ms/n+eKR2djY6MdjeXmZLwYAAQbKAGCq3LhxgyzL6oc/+eQTaTmALuSl6HS7XUqn07S2tkb7+/vSsv39fTp37tzIB6o++eQT6vV6RETU6/Xoxo0bfBUAAAip1WpRo9EYeZ1Oinr91q1bfBWYIGJ/4aOPPpKWAcDsQt0AjuvXr/c/i+ft40LMq8fRL3K8++67/c8HBwfSMgCQYaAMAAAAYvVv//ZvrgEyDgNVAACTrVgs0okTJ2h1dZVM08ST2AAAAAAAMDEwUAZTj78+bW5ujjY2NvhqAAAQg263S5cvX+6HDcOgWq1Gtm2TbdtUr9epUCjQysqK9D0AAJgs/M7+V199VQoDAAAAAACMKwyUwdR7/fXXXY9hr6+vU7fbleYBAED03nnnHSm8ublJp0+f7odXVlbo0qVL0joAADD55ufn+SwAAAAAAICxhIEymHovv/wyn0WkuHgLAADRE98dT0T0wAMPSOFh5fP5sfiTZAhHfNK7Wq3yxQBjo9Vq0fz8PM3NzdH8/Dy1Wi2+ytSpVqv98rm4uMgXezpz5gwZhkFERKZp0tmzZ/kqAACxm8V6GwAAAIaHgTKYao1Gw/U0meOXv/wlnwUAABH7+OOPpfDCwoIUHpb4x8jH+SfJEI7YNvPBVIBxcuvWLer1ekRE1Ov16NatW3yVqSOWSa9+tEo2m6WbN2+Sbdt0eHhIS0tLfBUAgNjNYr0NAAAAw8NAGUy13//+9/3PpmlSKpXqhw8ODnBRFQAgZl988QWfBQAAAAAAAAAAMDYwUAZTTXydUyaToTNnzkjLX3/9dSkMAAAAAAAAAAAAAACzAwNlMLWq1Wr/lQtERE899RQ9/PDD0jpe/18GAAAAAAAAAAAAAADTDwNlQLu7u5TNZqU/7d7Y2KBut8tXnShvvvlm/7NpmrS0tESJRIIymUx/vmVZ1Gg0+uEoLS8v99N0d3e3P7/dblM+n6fFxUUpzfP5vOerIBuNBuXz+f6fEs/NzdHy8vJQx2l3d9cVj7m5OUqn01QsFj3jwrXbbenPksXvNRoNymazoeJdrVal/OjESXw6cFDtdpuKxaK0z/Pz85TNZgfOB91utx9ncT/n5+cpnU7T9va2575yxWKx//1isdifv7u7S+l0WkrD7e1t6bvDcOLvlRd0/gC73W7T9vY2pdNp13aWl5cpn89rp3FQnuL5Nqj8xCGOvCSmoZh+i4uLlM1mIykDQbrdLm1vbyvzg3McxfpMpdvtSmVhf39fWi5u00m3MNrttvR9cfv7+/uu7c/NzYUuL4PUXVyU5TnOvNFqtahYLEptlhOvMOU2SLValbYvWl9fl5Y5k1P3tFot6VgEpZeo2+1KeZl/V6xvFhcXXct42jjlfNA0j+NYtlotyufzsR/DQTnxmp+fl9oTp77haRG27eSq1aoyPcQ0Dtp2Pp/vf291dVVatrq6Km3X2bcgUZY1cRu8j8l/Q7dtEsvJ+vq6tIzv79zcHGWzWWkdOqrfxPZ71P2HOHjV5d1ulzY2NkKltarvMGwfZlT5KmzfK45zF4dTd/B9HvZ8Iapzo93dXWmfHa1WS+pbOGkYl1HVvU4eTKfT0vEeJO0c7XabNjY2XHH0ayvjqLf9jHt5iapuEPtJ84rzsrD95TjP9eOoG7oRnusfR93g1Gu8LA0Sf7/20KtOGTTdh+nPREncN6/j71WuwxDPk3g58yPWM4OmtapMBpVjgKlmw0zL5XI2ESkn0zTtZrPJvzIRLMuS9qVcLveX1Wo1aVkul5O+GxXxN0qlkm3btl0qlVzpzKdKpdLfRqfTsQuFgmsdcTIMI9Rxajabtmmaru2opkKhYHc6Hb4JSb1el75Tr9ftTqdjZzIZ1/bEicfbsiw7lUq51hOnZDIZOj5O2gelIxHZmUwmcPuiSqViG4bh2g6fDMOQ8qAXcf9TqZRtB8R7WGHyglfaNJvNwOMmTqlUSrkdET+GunmKWPkZFo9HnHlJZ5t0VC/X63X+9UiUSiWt/BwUD55uOlMYg2zfKU8iXh87+SwoP/O6y0tU5dnvO+Lkd0xUdPbVmVKplG1ZFt9EKDy9dSanzHU6HWm+YRh8854qlYr0XV5H8Pzk0El3nfpMpLNNCnksdbdZKBT4V0dGjIezXzrtZ9h+aK1W027Tgtpl3bIhTl7HLI6yJn4nTB/Tr8/L19WZOB4HrzSxY+o/hPl9Xaq6vFarBeZfntblcjnwO7x+8jNO+SqucxfxO07a69QdyWRSa/uOMP1hnXMjnmZ2QLyjyKcqqt/wi4cz6da9YepcCtEO6cSRjo6zSLc8iNMwaS9uZxzKiyPquoH3k5z+ctB5GY93VOf69gjrBp1tkkafwsHzhx3wG8PkzzDndYZhaLU/g7aHusfVEVQmnN/vdDrKNI2K37Hhk1MHcDzOXvh+6B57nTjYivrR1mz7DMOwa7Ua3xzAVIu2JoGJwitj1cQ7oJOiXC5L+8E7gGKDZxhGqIZbl/j7hULB1Tj5TfV63bYsy04mk65lqkl3H/gFQ+e7qVTKTqVSyoYyqGPDO8/lclm5HdXkxLter2t3Qvw6GLYiPoVCQTsdKUSeVw0ym6bZT0vV/vCLJhzvfAZ1EoehygtBEz8B4APSulNQGvNjGCZPUcgLTX54POLIS51OR7nNZDLZz0t8GUW4j3bIE2o+qeLR6XSU+d9rMkIMetgD5jued21FG6hzEdOZDI2LFsOW5zjzRrPZVO6rs13V7+rss59B6hzx93idq3vSxi/k8PaMl3OvdPeajrOc8zQh4RjybaYC2s44ifGo1+vKeHtNhmG4+nAqQeXLa/Jql8PEkXzqsbjKmrh+2D6m1z6HaWfp6IYQjterXhd6BqnHSaO86f5+GGHrcnEqlUp2p9MJlZ904jyO+SqOcxdx/VQqFSoddesOVdtkDHluxPMhv0mTTzrHfBD8N6JMP1W66UxBg2Wq7YptJc/3ojD7Rz71ti5xW+NQXuyY6gbeTwpzXubEux7hub49orpBtc1hz/VHVTeo4q4zBfWtxTyeCtkeBtWbjjBxTyaTrn5+VMLEw5lU5Uhc7pe3ed7QPfbid8IMlKnqWr8pKG8ATJPoahKYKGEuZAZdqBlHYudNdVLNG7449pGnozOZpin9Xq1Wc3VaTdOUjk8ymZQaJ9XdLUEds2azKa1veNw5ZFmWq8Phd1LDO8/ilEql+o18p9NRxpvveyaT6XcyOoq7hCjgePnFx0l7p5NmWZZy+36dDFsxEJtMJpWdmXq97to/v06G2IHh6ZTL5ex6vW7XajW7UCgEHm8/lmW5tp/JZKR9cI6XGCeeLjytc7mcXavVpE5ws9lUpvGgx5CXhabijnTdk8kgfvGIKi/xspbJZJQnb7zs6J7k6eD1oWEYdqlUkjr7lmXZlUpFeWKsOikQ8eMTNX7Spkt1vJxJrIdsj7umg35r2PIcV97odDqufXEu5vL1eBqp2tNB8d8Pwi8mqNKM67An0VQX9nk5F+vscS7nPN65XM51DO2jdEulUsp9HxUxnmL6OnWNs49e/YSgslZRnOw7ZczR6XT6acHXVQ2ki3haq9p7lTjLGt8HZ3L6dmKeVV3ICtoHHh9d/Htev8PTNKr+A1/f6/fDUOUZEvKvE+dms+kq66TI8+LxqSv6iaZpshjIjiNfHde5C4+HM0VVd8R1bsTTXYxXKpWya7WaXa/X7VKpZKc0npQclBgHng+HTT9xHw3DsAuFgqu81et1V7qR4gZWR4ddn0gmk8p1m82mncvlbMNnoIvXMTxuUeD75UzHVV7iqht4WopT6hjO9W2ftI8ib9sxnuvzfY2rbhDbLdM07XK5LJ3XdI76RDzuQe2PV3tIR3lNTHfVDYilgP6yqj/Ht1vxOB91pijwcw4nHvzcmA8aq/KIuA2/fMfzhmpbKjyOXvyOXS6Xc5338rxhRHR9BWASRFOTwMTx6/Dw6TgvrgyCn/SoLoDwxi+OfeTpSEedLFUDw08MxMnr4hffT7+TBdu2XSdIqm2K+ImN6kTF9slLXp15r/XJ41jZis6q3/Hy2r5XOtqKTplf+lhskMmvw2MrTlr8OqCqDoxhGNodJV38d/xO9m3hlQq8428d3RGuOgnjojqGXvg+BZ1g6fCLh9f+hslLvB7y69zaijLvlx66eByMgLtKbcXAWlAZ4McmauL2g+Ii4ickzuSVd1T1tFe9aCv2m0KUZ35coswb/KJ5UHx42fVKn7DC7J9DTH+/suXg5ZHXYfYEl3OxHPq1K+OApy35XAC1Pe6I98qnvE0mjTwa5vjZijziFRcuzrImrudMXn1MW1HfeeUrB19fF/+e1z7H1X/Q/f0wvOpyr7ZStT755HneT6SAG1DGJV+p2kRn8qo/ef1mBJy78O068VGlox2y7rBjPDfi+dCZvM5z4sJ/nyJMP2fwwS8/OXi6eaUDr5u94qlj0Ho7DJ62dMzlJa66gaelGG8Vr/XJ59jzuPjV87ZP2nvlmTB5m/crgs4teB3u1ycbVd2Qy+U8B/dEPO4U0P6o2je/9pDnBb+0sRVPtnvlyY7Pk9rDUpVV1fmDqHT0mktV/hO345eXeN4IOnYO8Tt+5xhex87rdzqKt2H4bR9gmgxfk8BE4o2W3+RXoY8j3klUNVi2oiH2Wm9QPB29Os4OHm/y6YA6eAfBq6HjF+q8Oh0i5yKGM3k1jKq8FBRv3ujqxIkfLy+DxMdWdB684sOPk06+4Sd+XseJx8EvHoPix3WU5Vs8hn4ne4McQ/6doPV18G3qbpcfR69jKJaDoBMHBy/zw+Jl0StvioY9qYpalANlXsfKwb/jtz7f76D1RXHljQ57wkonP9us7IZJYz9iPLzaF47Xv0HpyS+CqkxqOR803x8Hnr5B/SFbUda8jgnPE7p5SffCra3II7r1pE78Od2yJm6bNNKUX/gJyos8/XXx7+mklQ7d/kMcv8/Lut9FQVvR5yaN48P7iV75eNzyFS9/OnHi9ZvfMeLbDoqPrcgDXvHhx8mrDhfxPrTXceJx8ItHnHgcoky/MHi6eQ2C8N8exiD1dlhh0zfO8hJn3cDTUmf7/PyCNMoYP7fww7cdlPa2In957QM/TlGe6/M4+MVjVHjc/fpDYdtDW/Edr/Tk8fCqJ0S8fFBAvtHB4+FVz+sSt+VVxmxF3vDKQ5xuXPlx0Dl2vOwH9R0BpsXfEECAO+64g88aa1tbW/3PmUyGFhYWpOWOTCYjhd955x0pHCXTNGlvb48SiQRf1Pfoo49K4WQySZubm9I87pvf/KYU/vzzz6Ww46233up/Nk2TstmstFxlYWGBkslkP/zuu+9Ky71kMpnAeH/3u9+VwoVCITBOjzzyiBRut9tS2ItOfIiInnvuOSn85ptvSmHHzs5O/3Mul/PMX6KHH35YCv/5z3+Wwl500iWs119/XQqfOXNGCsdpcXGx/7nX60nL/Ogcw5WVFTIMox/WzR9h6MSDNPNSu92mg4ODfvjixYvSci+PP/64FG40GlI4jFarJcUhlUrRysqKtI5KIpGgn/zkJ9K8P/zhD1J4EpXL5cDylkqlpPD169elsB/d8hxn3uDt3I9//GMp7EVsL/f396Vlo/TUU09JYVXZcvB01El7mqByLvbNPvzwQ+p2u9LycaXTHyIieuaZZ6RwtVqVwg6xz2cYhut7Xi5cuCCFf/vb30rhYY2yrOmkaSKRkPpRlmVJy8fdoP2HOFy5coWWlpb47L7Tp09LYcMwaGdnx/f4PPDAA1L4s88+k8KOcctXcZ67cDrxoRB1xyjPjXTSJW5Rp18Y/Fzpiy++kMKOr3zlK1JY1faNK530jbO8jLJu0OknjfJcXyftKUTeHuW5vk4eiNtdd90lhb/88ksp7CeoPSQi+va3vy2Fb9y4IYUd7733nhTm/TSVzc1N1zW9Yb3yyitS+Mknn5TC00Ln2K2srEhtnmVZ1Gq1pHUAphEGymYUv6js54knnuCzxtbu7q50Au0Xd37B7Re/+IUUjtLi4mJg541foOYdTBXesfG6aCt2BMWLDUHEOH/44YfSMi/3338/n+Xy4IMPSmF+4qDyta99TQp7dbI4nfgQEZ08eVIKqy4itVotaT6Pkxd+7D/++GMp7OWHP/whnzU0flLPO/Zxeuihh/gsLbrHULzQFMdFY9146OQlfkLLy7KX22+/XQp/+umnUjiM999/XwqHGTTl+eajjz6SwpPovvvu47Nc+AlFmJNJ3fIcZ97ggzk6J/+kuHh1XCdJS0tL0gnbzs6OZ1nn6fj0009LYS+DlnNxQMzB4xDlsTx16lT/c6/Xo3Q67ZkW40SnP0RH7aZ4rHu9nuuiWavVkvp82WxWa9t0lJdM0+yHVcdvGKMsa7ppyvP2JOQXx6D9hzjwdkBFvKnigQceCDz+fDnP645xy1dxnrtwOvEhj7pDlddHeW7005/+lM8auWHSzys/hsFvNFL5+7//eyn8rW99SyuvjgOd9I2zvIyybuBticooz/V10p488javG0Z9rj8OdQPPl2HotIf8/Oqvf/2rFHa8/fbb/c+GYWhtmzTzYxjigHEymdQuS5NGN335APZ//dd/SWGAaYSBshn2s5/9jM9ySSaTgXf/jJNXX31VCvOLuSJ+kWSa75AQLyQdHh5SOp3WmsQTwOO+gzduiURCGjxWXTS7deuWFH7ttddcaeY1ibzupOR4pzsKh4eH/c+macbyG+NAdfxGRScv8QGWixcvuvKMavrBD34gfY9vJwxe3917771S2A8/adC9WDRtwgwQ6pY1fkyjzBti3WMYhmsbXtPLL78sbYfXhaP07LPPSmH+lKxDfELINM2hLgSo8HKuGhDnxyDKY/nkk0+6BnruueceKhaL2hc1i8Uizc3NBU5hLiJHSdw/Ulw0+8tf/iKFdU/6HXy/eJ04jEkoazz9YPxNQr4aB7zuUOX1UZ4b8Zsfxh1PP173xmVpaUl6OqTX69GJEycon89P1NNlxwF1gx6et3ndwPc/7nP9SasbovDJJ5/wWUSsH82fsh4V3n9eXl6WwrPo7rvvlsJexw9gmmCgbIadPXuWcrkcn91nmmbkr6KJU7fblR6Vz2QygRcm+evDtre3pfA04CcWlmXR/v6+1qR7Ajgtgjpl/DUKBwcHrjTzmsaF2AnlFwmH1W63qVqt0sbGBmWzWdcJBD8Zm2ZBeYk/2cfzi9ekGnQbFD8ZCHuRmd+VCdGIM2/sC3VRr9dzbcNrUg0CHRf+ChRVP4W/8jDq17I4jrOcJxIJeuONN6TBul6vR5cvXybTNGl5ednztUIO3YHe4zr+QXcJ8zvr+V3LQb7xjW9IYX6BbBj7U1DWRgn9Bz3IV3qC6g6cG/kLSj+VVqtF29vbtLGx4Sq/aTbA6Oc3v/mN1L+ko1fsrq6u0uLiIm1sbLieAgLUDbqC8vY0nOurNBoN2tjYoGKx6CqbaTbINw6O669f+E0Buk8UTrOwfWuAaYCBshm3ublJtVpNuohkmiaVSiX64IMPQl84PU78FUd+r1108CfOgi4qzTK/QVUIJ8wr7iZBo9GgdDpNpmnS2toara+v087OjusEYtZOxuJmGIbWq2ziEnQjAhyfOPNGMpkM9fRh1BKJhNRnOTg4cA368v4A/1+KSeJ3LJeWlujatWvK9vng4IDW1tZocXGRdnd3+WIixUCRF34H9rTgr5waN8dd1kYB/YfRm4V8NSqqunfWVKtVWlxcpBMnTtC5c+dofX3dVX73QwwwJhIJunr1KpVKJdffRFiWRevr63TPPffQxsaGtAyGh7ohOuNwrt/tdmljY4Pm5+dpdXWV1tfX6fLly66yuT8Gg3z85oWgAU0AgDhhoAzo9OnTVK1WybZtsm2bDg8P6fz58xN3EfSXv/ylFF5bW3O9PohP/OJPr9fzvKA0LQqFQv9Yh5mO+49mx1GtVnOlk840Sa8zDVIsFml1dXUsOtmTrNPpuPJJ0HTz5s2JupkBBhNX3kgmk67v6UxXr1499v7BP/3TP0lhPjAmPmU2Tv8vEMexTCQStLm5SZ1Oh8rlsqtfY1kWPfbYY8on5i9duuT6PdUkvrIXwpvkshYn9B+Gg3wVHZwbhdftdimdTtPa2losA9nnz5+nmzdvUqVScd0s0uv1aH19farOp6KEuiE6k3qu32q16OTJk7S+vq49SH2cvvrVr0ph/kYGAIBRwkAZTAX+mqVh8P85m3T8zjDdVy3NoqDXgnz961+XwpP+juZhL35ub2/T5cuXpXmFQoHq9brygnCpVJLWnWZBeYk/ycHfkX8cwv4/j3hxk78mBwYXZ94Qj1NUbeZxOH36tHSn+S9+8Yv+Z94f4P9pFqVxKueJRILOnj1Lh4eHVK/XXRcWz50757pjd9x9/PHHfJavTz/9lM/yxS/E8P7SMKalrMUF/YfBIF/pCao7eFnHuZEsKP2IiP7lX/5F6gcahkHlcpnq9bqr/Nq27WqTdGWzWdrb2yPLslxP8O3s7ODJsiOoG/QE5e1pONfvdrv0ne98RxrATiaTVKlUqNlsusqmbdvS94/DuNzQxn322Wd81swJ27cGmAYYKIOp8Lvf/Y7PGtjOzs5Uvfuc3xk27ODItOp2u9IdV6oTOv6Hu5PYeRL3y7KsofL6hQsX+p8Nw6Bms0mXLl2ilZUVV76bJTp5ib/y6/PPP5fCo/DQQw9J4TAX8fmr7vhTLDC4OPMGL5f8OE4S8YKZZVn9gV7+dBl/xXJU2u322JbzlZUV2tvbcw0u/P73v5fC445f7FtZWZHCDz74oBQOO9gv9ocMw3CVj2HwbU1yWYsD+g+D4WmDfKXGn3DidQdPR5wbyYLq3larJf0veDKZpGvXrtHZs2dd60ZlYWGBNjc3qV6vS/Px/4X/jedp1A1qQXXDNJzrv/7669J+5nI5unr1KmWzWd83FBw38Qa4oBvR4sLzw9WrV6XwLOL/B8z73gDTCANlMBXEzjoN8Hoj/jTE66+/LoUnHR8cmaXOc9CdYw5+cZU/CUCKztPbb78thScBv2Prgw8+kMK6Wq2WdJE4l8uNdec7ClHmJd7JfO+996TwKPC7JsPEgdeROv8JOQrDDPyOizjzBh8cPa4TUe7LL7/kswI99dRTUvgPf/gDEXvtYiaTcdV5QXTLOU+7cSzn58+flwaxx6HtPzw81Cqn7XbbdTc0x58KCdMmNxoNafthXpP017/+lc9yGdeyNiidY6ZrFvsPUZm2fBVGmLpDHOhR1R00g+dGYdIvqO59//33pfBPf/pT10BNXFZWVlw3yujQqbcnGeoGvbwdVDdMw7n+lStXpPBLL70khcfVAw880P/c6/W0b3567bXX+KyhiP3mg4MDrbwVhUFurtNNIxXd7/LrrLzvDTCNMFAGE293d9d110zYzvqPfvQjKSxeaJsG3/72t6VwoVCQwtNsZ2eH8vk8n+3ywgsvSOFHH31UCjsymUz/s2VZyv99GWePP/64FP71r38thVWc/yEQ9/XWrVvSOrxzpzLIxfBxEmVeWllZke6c29ra0u6wRuXkyZMDxaHb7dLPf/7zftgwjNie2gmL3wU9ieLMG/yppxdeeGFkJ4B+Bnnt1dLSknSRY2dnx3URZJAB3Gkr5+LvjwPLsiidTgfmu3/913+Vwt/97nelMB3dQc8vduu2yRcvXpTCTz/9tBT2o/MqpnEta4MK88RxkFnsP0Rl2vJVGFHWHTSD50ZRph8vj/wpHJWg3w1jkHZNp96eZKgbosnbNAXn+l988YUUDrouFpRuo8LrZJ10z+fzkZ/7icefNN9c1Wq1aHFxcag+/n333SeFg26ua7VadOrUKT5b26lTpwLjW61WpeusqVQqMD8BTAMMlMHEe+utt6QwHwjQ8fDDD0ud7oODg8CGY5I8+eST0v7t7OxodT663S5tbGzQ/Pz82HSiBrG1teV74TOfz0udANM0XXeUOb7//e9L4QsXLmj970u73aZ8Pk/Ly8t80UidPn1aulNqf3/fNy+0221Kp9O0v78vnRiH/dPdjY0N1/+RTKIo89Lzzz8vhZ999lmtO5objQal02kqFot8USiJRML1fw/PPvusb1l3Bk3FpwGef/75Y+008yeGdMrjuIsrbywtLbkGFl588UXfY+6oVqu0uLhIu7u7fNFAxHroww8/1IoDJ/7/mGVZ0sntMAO4417O2+02zc/P+9bddHQSLV5AUD31dhwODg58L2pVq1Xa2tqS5j355JNS2PHcc89J4QsXLgT23/L5vPTfOqlUyvP40QDtHY1ZWRvE3XffLYX//Oc/S+FhhE3Paek/RGHS89Wwoqw7xu3caHt7m+bm5mhubo4WFxe12omwokq/MPVDt9ulbDardTF7cXGRisWiZ/zoaHv8tY8qYeuZSYe6IZq8TVNwrh/mvKjValE6neazjwXvs29tbXnG3alX+DGNwjPPPCOF19fXffuVjUaDTp06RZZluW4ECiPMzXXOb4rn42H1ej3fwbJWq+U6Fzpz5owUBphaNsAE63Q6tmEYNhHZRGQbhsFX0ZbL5frbISK7UCjwVUIRt5VKpfhiJfE7pVKJL3ap1+va3ymXy9K6TrxqtZptWVZ/vU6nY9dqNTuXy0lpW6/Xpe05wsTBwb/jtW1RqVTS+g7ftrgPyWTSrtVq/XWbzaadyWSk9f227VB9J5fL2fV63e50Ov31LMuyK5WKa30vqVRKa71h1Wo1V/wzmYy035Zl2aVSSUo/fmxN05S2USqVpP23j44H36+g/ePHkP+uF/47w+LxiDovdTodVxoahmGXSiXX95rNpl0ul+1kMtlfV7de8cPrUCcO5XJZqhecvMzjm0wmXceci/q4cLxuSyaTdrPZtG0h3jw97RB1Cid+x+8YDLPfceaNZrMpbZeIbNM07Uql0k83R71etwuFghQX3fIYhJeXXC7Xz3POPol5UKXT6bj2RdyeDl7OxWlcy7kYZ9M07XK5LB07J9/zss2P76jw9BLToVKp9OsQp93h6wXlOV7W6KgPJ+6v07fh6xqGoZUuPC3L5XI/3vV6XRnHOMuauE1VHlHhacvzn4jH3TCMfllw0rJSqfCvaf8GLxNR9R90fz8MHgcd4nd0j4/4G37f4ceGjjlfid/x27aD17l+3xHX4+d7UdQdvP9AEZ0b8bh4rSfi+axcLvNVQuP75kzDpp9lWcrtcap+I/nkLXF7hUJBSjfnGIjtIwWk0yD1dhg6+8SJ39H5/TDlJa66IUwcHPw7OmWA50G/74jrxVE3qPp6UZzr87j47eOgKpWK9BvJZNL1O51Oxy6x83xn8ksbXk/p4HnBb/uFQkFa1+kvO2ne6XRc9QrfhyjweDjxFstRs9l0XT/k6WyHrCf49nh+Vv2muP9+aSseO55mpVKp3+Y5aczXCYo7wDSJpiYBOCa8IzDM4BZvxE3T5KuEMkjDwhusIDzOQd/hDavuZPgMQIaNg634jqpTwel2LPm2m82mq6H3m3TyUKfTcZ2o6U6ZTIZvrm+QzuegwuYFwzBcF61VA250lN9TqZTr5JinmRd+DHXylB1D+vF4xJGXwm5TnPwuDoQxaBx0BsnsGI4L11EM9vFJVe506xRO/I5f3T7sfg96XEgjb/C2M8zEL7YMipcv1RS0H7bHxQwikga4/PB4ZDKZUOl+HOWcX6TUmXTiGRcxHslk0tUW+E3JZJJvzmXQNtnQHCSzFfWFalJtK66yJq7nVw+J+D4E1Xm8DuOTqm+o+xtx9R90fz8Mng46xO/oHh/xN4K+M075SvyOTn+N17l+3xHXUw2S+E06dYc9QH/YmVT53zFIPuT5TDXwFJa4vajrXtWFZMMw+mWYt3lBN4DYigH0oCkojvw4qCa/8hBE3I7XPnHid/zyviNMebFjqhvCxsFWfEenDPDj5fcdcb046oZB+xXkcc7hCLOPw1DF3TTNfvnky8T1/Y4v/64Onhf8th823ZNHN7SFjVOQsPFw4qIirhNUT+ic04pTpVKRjolf2vL1wrR9qutAANMMr16EifbKK69I4aeeekoKh7GysiK9CsqyrIl+BYHK5uYm1Wq1UO92z+VyWq/LGFdLS0t0cHDg+WoOUblcpkuXLvHZLolEgq5evUqlUokv8mQYBpVKJfrNb37DFx2Lzc1N7finUik6ODhwvcrh9OnTVKlUXPlpf3+f9vf3pVeTFQoFunr1qrTepIkjLy0tLdG1a9dc70P3Y5omVSoVOnv2LF80EGe/+P8b+CkUCrS3t3esr1x0JBIJ2tzc5LMlYt0+KeLMG9lslprNplZedqRSKarX67S0tMQXDWRlZcX16k/u//v//j8+y0X1P2SmadLp06f5bC33338/Xbt2LbA8GIZxbOV8YWFBWfd6KZVKWvEcBaf91Pk/IKeeCZJIJGhvb09rmw6nXdPNz88880xgebnrrrv4rLEoa4MqlUq+eWyYenXW+g9Rm+R8Najbb7+d9vb2AtsNOjp30ak7aIzPjVT1yTCirnsvXbrk2lav1+uXYeeVYIZhUKVSoV/96lfSuipvvPGGdr2SyWQC4zhovT3JUDf4060bJv1cf29vz9WPtSyrXz4dpmlSs9n0/L+2UXP6czzuKqVSia5evar1H4lhOfHQ7bfr1Jk6EokEXblyJbAeNE2T6vU6ZbNZvkjb5uYmlctlPtslmUwqrwMBTDU+cgYwScQ7z/zu3tHFX8GhupNbl3jXhu4roMT90bmT0LIs6a4T3TvonUeqM5mM624Z0zTtTCaj9dor+ygOYeMt3l2ve0e3eLeQ310tYprwpwL5XTd0dPdPoVDw3F4Qy7LscrlspzzugM7lctIj837Eu8x43OMixl8Vd5073SzLsguFgnIbPG29jo1okDxls7uCg+7Y0jHqvNRsNvvpyO8mS6VSdqFQ0C7jg6ofvYqF75tzl7BuvSAS7zr2utsuCs2j11GIecc0TTuXyynLX61WC10P2aye9rtzL8ryHGfecF4n5XXMS+xVI1Gr1Wqup7iSyaRv2nK8HQvz9JTfna5OO8nTuyS8oiSsKI9lp9Oxy+WyK/2GKa9x4PvoqNfrrleZOW3PoHnOOnrNkl/6Drpt+6ifyMtK6uhVbUGiLGviNnT7mOKTBqZpauWNTqdjFwoFqYwZhmFnMhllXMPWq1H3H8L+vo5B6nKxP6J7fMQ0DlOHHXe+CttfE/tWFHDu4qQJP5b1et1V7zntvU6/VSXKc6NB8qGYjobP02phiPsQV93rbIunmdMGia8Mc5YF5a1KpeLqzznbHKQOH6be9jNu5YWLqm4Y5LysGeO5vj3iusGK8Fx/kLphGE6dxuuXTCYjHUfxGpjf8R2kPeR5QTcPO3Hn9RTvG/idr0ehedRvV9VxPC4qg9QTTv+el91UKuU6PmJ/gy8Tiefj4nqWZbnqW1UeAZglc/Z/d6IAAAAAACZOPp+X/tC72Wxq3xndaDRodXW1Hy6VSnT+/HlpHRjO3Nxc/3MqlYrkrlsAgGlRrVZpbW2tHy6Xy8qnicNC3QsAAAAQDl69CAAAAAATqdvtUrVa7YdN09QeJAMAADhuL7zwQv9zKpWKZJAMAAAAAMLDQBkAAAAATKR33nmn/18oREQ/+clPpOUAAADjqlqt9v+TzzCMwP9cBQAAAID4YKAMAAAAACbSL3/5Syn88MMPS2EAAIBxJbZhm5ubtLCwIC0HAAAAgNHBQBkAAAAATJxWq0UHBwf9cCqVwkVGAACYCI1Go9+GZTIZymazfBUAAAAAGCEMlAEAAADAxNne3pbCZ86ckcIAAADj6t///d+JiCiZTNJvfvMbvhgAAAAARgwDZQAAAAAwUbrdLlWrVWkeXrsIAACTolqtkm3bdPXqVUokEnwxAAAAAIwYBsoAAAAAYKJ8/vnn/c+GYVCpVBroQuNXv/pVMk2zH7777rul5TC8VCrV/4xXYwIAjAbqXgAAAIBw5mzbtvlMAAAAAAAAAAAAAAAAgGmHJ8oAAAAAAAAAAAAAAABgJmGgDAAAAAAAAAAAAAAAAGYSBsoAAAAAAAAAAAAAAABgJmGgDAAAAAAAAAAAAAAAAGYSBsoAAAAAAAAAAAAAAABgJmGgDAAAAAAAAAAAAAAAAGYSBsoAAAAAAAAAAAAAAABgJmGgDAAAAAAAAAAAAAAAAGYSBsoAAAAAAAAAAAAAAABgJmGgDAAAAAAAAAAAAAAAAGYSBsoAAAAAAAAAAAAAAABgJmGgDAAAAAAAAAAAAAAAAGYSBsoAAAAAAAAAAAAAAABgJmGgDAAAAAAAAAAAAAAAAGYSBsoAYCi7u7s0Pz9Pc3NzND8/T+12m68Cx6TdbtPi4iLNzc3R3NwcVatVvsrIpNPpfjyKxSJfDDMAeWDybWxs9I/h4uIiXwwzrtVqSf2BVqvFVwGAEcjn8/26Op/P88UAMCCxLztpZQtt9GjwayNIZwCAyYKBMgAYyieffEK9Xo+IiHq9Ht24cYOvAsfkxo0bZFlWP3z9+nVp+Sjt7+/3P3/00UfSMpgNyAOT79133+1/FusWACKiW7duSf2BW7du8VUAYATEm9ZwAxscl3a7TY1GY6oGCsS+7KSVLbTRo8GvjSCdAQAmCwbKAAAAAAAAAABgaLu7u2SaJq2urtKJEyfwJgEAAACYCBgoAwAYQ61Wi4rFIqXT6f7rG5xXOKTTadrY2Ji4OxkBAAAgWu12m7a3tymbzdLy8nK/v+BMy8vLlM1mqVqtUrfb5V8HAIjcJ598IoW3trakMAAAAMA4wkAZAMAYaTQalE6n6cSJE3T58mXa39/vv76Bjl7hsL+/T+vr62SaJqXT6al6pQkAAAAEa7fblM/nyTRNOnfuHO3s7NDBwQFfjQ4ODmhnZ4fW1tbozjvvpHw+jwEzABip+fl5PgsAAABg7GCgDABgTBSLRVpdXZXefx9kf3+fTp06RdVqlS8CAACAKVStVsk0zYGe0tja2qJ77rkHN9kAzLBqtdp/6nRxcZEvHloqlSLTNImIyDAMunjxIl8F4Fjk8/l+3s/n83wxjEDc9Q8AwDAwUAYAMAby+TxdvnyZz6ZcLkeVSoXq9TrV63Wq1WpUKBT6J5909JTZ2tqa9D0AAACYPsViUdnmZzIZKpVK/f5CvV6nSqXi6jPQUb/hxIkTGCwDmFHXr1/vf7YsS1oWhaWlJTo8PCTbtunmzZuUzWb5KgDHQvzrAvyNwfGIu/4BABgGBsoAAI7ZxsaG667wTCZDnU6HNjc3KZvN0srKCq2srNDp06fp0qVLdHh4SJVKRbr41Wg0pG0AAADA9KhWq66bapLJJDWbTapWq3T+/Pl+f2FlZYWy2Wy/z1Aul8kwDOm7p06dwmsYAQAAAAAAMFAGAHC8Wq0Wra+vS/NyuRxVq1VKJBLSfC6bzdIHH3xAmUyGiIjuvfdevgoAAABMgW6363pNVC6Xo6tXr9LS0pI0X+Xs2bN05coVabCs1+vRiy++KK0HAAAAAAAwizBQBgBwjPggWSqVos3NTWmen0QiQdVqlZrNZuDAGgAAAEymF198kXq9Xj+cTCZD9Rfo6HVo/DtbW1t4/RQAAAAAAMw8DJTBVNjd3e3/Iejy8rK0rFqtUjqd7i+fm5ujdDpN1WpVWs/R7XZpe3ublpeX++vPz89TNpsd+NV23W6XqtUqZbNZmp+fl7abTqdpe3tb+9U3xWKx//1isdif3+12aWNjI1S82+02FYtFWlxclP5QNZ/PR3LRpNFoUD6fl/Z52O23Wi0qFovSfs4dHfd8Pu+5ryriNnZ3d/vzeTqm0+lQ29XVbrdpf39fmscvYOnSuZvcj/jHxrwMeWm1Wv1jOz8/P9B/najKm5PmXmV0GF7HvN1uUz6fD1UWVPl7eXmZNjY2tMszF1X+brfb0rER96HRaLjqoqB4O/VXHMcojjwQZZ3r1b60Wi1p+05+UWm327SxseFqixYXFymbzQ68n5zYPvBtqtJjeXmZisWiZx6Pwu7uLuXzede+D3IsOGefxHI7d5R3isViqDqp3W7T9va2K55RHyM/Yj4Rj9Og++RV34Vt45wyytNmmDLKxV33OU9jOXnF6R+p8r5Tf/DjEEWeHZQTJ9GvfvUrKawrm81SMpmU5r3zzjtSWOSVj5w+pLjcSVfd46Xi1Ble5Vp1zKJWrVYpn8+78qNYH+jmgSjaEIfT7wjTVwkjynrQ63xld3dX2v7y8jJtb29L3w3D63eO67xoVP3pVqulzKN+daa4X/xGPXEbzpQd4n/F2u229Ht+eWeUdYzYnnnV77rH2k+1WpW2rbtN3TQTjaKNPs56WayX+O/75XdHu92WviOee+/v70vLnGmYOmkYcaRzHP3wca9/VEbRrpPP+ZbfeXaQKNtmANBgA0yBUqlkE1F/sm3bbjabdjKZlObzKZlM2p1Op7+der1um6bpWk+ccrmc8MvBKpWKbRiGazt8MgzDLpfL/OsuqVSq/51UKmXbtm3XarXA3+DxLpfLgd+pVCrSd1R42tfrdbvT6Ujx9JpKpRLfnCfdbdJRuliWxTfhwuPi9xtOWkepUChIv5HJZPgqQ6nX66599ML3Wwfffr1e56v0qdJSp2wkk0m72WzyzQ1M3LaTHjwPqyaxLHQ6Hdex45NhGKHi7Zf3+KSTv1XHptPp2JlMxrU9ceLxtiwrMF68HvUififOPKCzTQpR5/L8YQf8Bi8HfuuKUzKZlL43CPFYOfm72WwGtmuGYWjV9zwv+CmVSlr7Heb3HTr75EyZTCYwfwaVZ2cyTdN1fKPQ6XTsXC7n+j2vSacOsBX1nV8949XG6eRf0zTtZrOprHeC+MWJTzr7rYqDX37h7aLfuuJkGEZgXKJUq9Wk3x+2vqhUKtL2vI6/rchHtqJeVE283xlEN+2JyC4UCoHlehC1Wk07DqNqQ+wQ5aRQKNi2x7lCkKjrQVUc/H5jUKrfOc7zIn6cdKjqLT9+6ShOTn5w8OU606D4PvG6VqRaj5cb1cSPYRC/cscnr/iK6/iVLR7/oGPq0ImDSGefhmmjj7NebjabrvLkN6VSKeXv8/3WmfyObZBBjn0c6RxXP3wS6h/RqNp1nWuPRsjrA3aI9NZtmwEgWDS1D8Ax442VTqfRmZyOULlcdi3zmnQ6rrZtKy98maZpp1IpO5VKKeMY1OnnJ4S6jScJF8pU8fKaghpcnvY6J5rixDtRKs1mU7lNJx1VnRKdjoi4fqlUUm5H/K2o8d+r1Wp8laHwEwO/fMtPRHTw7fvlFZ6WYfJglBckxe0WCgXXfvtN9XrdtizLddy8JsMwtE5k4sjf/NiUy+VQJwmdTseu1+vKeKkmnfLB148jD6i2OWydy+s4fsGaT2I54Bej6egCt1d8hiXm51KppPx9vymoDuLlxYvqOOhMQb9ve6Rp0OR10tvpdJTlSzxGfBlpXizVFebiiDgF1QF2BG1cmLQ2DMPVH/FrE+wR1X1B/UGxXVTFR6w/+HEK2r8o8bT1ytO6LMtypYUXcZ2w7WZQ/epQ5TXDMDzTnkLcpKGLp7HuFLSPw7Qhtk895TVlMhlpfVXZFnltf9h6UPxeSuN8ZVBhf0ec4jgv4umlg9dbfr+hiqtznPhv82OvKkd+0zA38PF98jsHEdeLq45RpVvQpGprxOU8fUW83PsdU5H4Hb80sz3qTa9pkDZatf1R1cuqNkpnSipuIhlkW8O0sWGPfRzpPEh+J41+uGq741j/OHie152C6hV+jIP6muIU1I91xNU2A0Awvd4bwJjjjZU45XK5/gVWy7KU6/JGqFQqSd9RPYURdNGWD7wlk0llR6ler7t+36+T4tUoGobRP+Gzjy74qOIt/pZxdPeQ8x1VXEzTZDGQqdLTmVKplLQvXnFSpYuj0+m4Olbiforr8bioOssicV2xc+OkZb1etyuVip3L5YbqMHvh6cD3aVhhTlJ5vtLBt+93HPm+OpOT1k556nQ6ys4m72wPiv++M5mmKXUsa7WasiyI8Uomk1L+VsU7qKMdV/7mx0acUqlU/1h5pTff90wm0+/Uq+JCGh1zvr4zRZUH4qpz+b6K8XLquHq9bpdKJTsl3M3a6XRc+UXVbjSbTTuXy9mGYfBFoYnlmO9jLpeTTsxUedwIGNzVrSfE9UzTtMvlsvTbnU5H+ftB7Y1lWa58kclkpOPs5B8xDl51H2+PMpmM8hjx/GhoDtwG6ShOgp26SNx+s9m0S4o7g03T9D1e4ro8/kFtnOrCklgP2Ed5iOcJcVKVP8eo6j5xv520rdfrdrlcduUdcV8Mw1DG3+lHGpoXOqLC01kVt7B4fvLaH3EdnrZiH9KyLOVFqaC4NptN5XY5VX9c52YrHRXFhcpcLueqW7zyPC8/Ip5/ddsQB78wqUp3Vf0g/oYfnqZR1YO8PIm/4aRtrVazC4VCYF/Jj+p4OL8p1ile5yBRnxfx+Ojg9ZZXmeHr5XI5V36xhbrZ70Izz5dR43H1aoftEdQxqsHpUqkk1XmWZbluKlNtV9yGX9ni6avalgqPo5e42+jjrpd5/snlcnatVpPyu9M34vuliqdITBO/YzgoHqfjSGdxH6Pqh6uOybjWP/aI23VxUpVD3t/VyXf8eEfVNgNAsHhqJYAR82qsVB0N22d9w+PCiK1orPwaT4tdzAtqDPkFI79OiqohN3wu2KjWJ5+Ltjwu5HPxxPZJS7/04Sf9funDT4i8jo+DXyz3ygO2x4mZV7pEjXc2jQguknP8N/xOuHg+0cG373dseDpTQFo3FXf2+21fF4+DEw9VR7/DBjrEyevkQHXC4yeu/M2PjRhvFa/1yacs87j4nRDZPmkfRR6Is84dpI6zFSdoXvsZJV6OKaBd6ygGaqKoJ3K5nJ30GKgU8eNAAe0N/32/iwS28PqtmmIglF8489tvW1G2vcpSGLz8e9VFjrDHS1xP/A2dvMjbab/95XWBM/kdf77vfuvait8YpO7zS1t+0dFr+8eF74/fvuji5cnrGPDfpoC8yutMv7xjs6frjYDBelvRH9fJz354+0Eax5/X737x5unhTEFtiK3Il379fcvjiXe/9jDOepDnLyf+XvlsUF6/45VOqvXJp24ctp3SwestrzQS62W/fosOni+jxvfJL2+J6zlTVHWMqi+v6hOISkcDz6r8IG7Hr2zxOHodU078jl+axd1Gj0O97KRB0G/z/Qs6HxHLqN8xHFSYYx9XOsfRD5+k+ue42nWv31DVQ17Hzo65bQaAYNHXSgDHQNVYeTVU9lFjxdf3O6myFSerfh0rfgHIryF08MbZq2PDT8CC4s0bWgo4+bAVcfFrnMOmvR2is8CPk26jL3b4/I4Tj3dQWkaJn0D6xXNQ/Df8jiPPVzr49r3yrK1I66A8aCvylu7x9xM2Hrws68SDn7x6pUuc+ZsfG53tqy6wBZVlfnLlh287KO3tEHmAHydVfcLxes7rOPE4+MVDxL83Crwc69RpPK/4nfzy7UeBHwevi8dh2mAdYn7322cRL9vD4OXf74RcxE+GDZ/BeHE9Z92g/GAr0toMeHLNVhxH8ilTfN91ypM9RN2nU9fw73nF/bjwfYoCL89e+8x/Oyg9eR/Pr3zxPmpQm2Mr8qdf30YHbz90t8cvWHrVXbwtoBB5ntc5Xr/h6CgG073Kih1zPcjzF2ke37D47wTVczzPkUae5vWbXx7h8dGhW/+I2/Y7rjp4vowa3ye/NBPXI43jEaaOCXPsdIjb8jsGPH29jimnE1deB0bdRvMyolNueZy84h4XsX/g1y+yIy5HKrrHflzSmecNr3YmynTjaRS142jXg44f/47f+nG2zQAQ7G8IYAqVy2XKZrN8dl8ikaBUKiXN+4//+A9aWlqS5okWFhbINM1++PDwUFou2tnZ6X/O5XK0sLAgLVd5+OGHpfCf//xnKezlypUrvvE+ffq0FDYMg3Z2diiRSEjzRQ888IAU/uyzz6Swn6C0p6P0z+Vy0rx33nlHCqvm/fjHP5bCXjKZTP/z/v6+tMxPUB6AaJimSXt7e755kIjomWeekcLValUKD0snHo8++qgUTiaTtLm5Kc3jvvnNb0rhzz//XAo7Rpm/M5lMYLy/+93vSuFCoRBYlh955BEp3G63pbAXnbSnEHlglHWuTh4gIvrKV74ihRuNhhQehaD2gYhoZWWFkslkP2xZFrVaLWmdON11111S+Msvv5TCjtdff10KnzlzRgqH0W636eDgoB++ePGitNzL448/LoWHOaZ8f55//vnA8kBEtLS0JNUBvV6Pdnd3pXW86LZxH374oRT+yU9+Ehi3bDZL5XKZz1YaZd2n0+chIrrtttuksG59MGt06u5EIiG1DZZlSctFb731Vv+zaZqBbQ4d9cfFOuvdd9+Vloe1tbXV/2wYhqvd8XLhwgUp/Nvf/lYKe9FtQ4iI3n777f5nwzDo7Nmz0nIukUjQ3t6edL7iZdT1oE6fIgpB7d6oz4uidMcdd/Q/f/jhh9TtdqXl0yDqOuaVV16Rwk8++aQUnkRxt9HjUC+Htbi42P/c6/WkZeNqXNJZtx8+SfXPqNt1netf/Nrj9evXpbBj1G0zALhhoAym0n333cdnuTz00ENSmJ84qYidMK9OeavVkpZ97Wtfk5Z74R3cjz/+WAp78TsZdIgN8wMPPBB4EZkv1734TZppT0T0D//wD1JY1Vl48803pTCPlxd+gVrnom8ymdTKAzC8xcVFV35XSSQS0slAr9eLtFOuE4+VlRUpzAeTVPgJhypv04jz9/33389nuTz44INSmA8SqvD67caNG1LYi07ak2YeGHWd+9Of/pTPUvr7v/97Kfytb31L61hFSad9IMWA51/+8hcpHCdexrzwiwF8oDMMPlDDy6yX22+/XQp/+umnUjiMK1euSOEwF++eeOIJKfzJJ59IYZUwbdx7770nhXle9qLb/o+y7tMdOF9aWiLDMPrh9fV1z4H5WaZbd/M2h9fbDjGNxT52EDEO/KJxGK1WS7qoms1mtfaPjvKMOCAlXtjyo9uGtNttqW3j9bSXRCKhlZajrgd/+MMf8lmx0Gn3RnleFKVTp071P/d6PUqn055la1JFXceIN1Ukk0nXsZxEcbfRx10vD4Jf15kE45LOuv3wSal/jqNd1ylbvG3yGpAcddsMAG4YKAOI2K1bt6Twa6+9Rul0WmsSffHFF1J42vzt3/6tFP7oo4+kMLE0MAzDlV5e08svvyxthx8TFd0OFIwWvyt6lBfw4zbK/D3JgvIA3/+461x+IuJF9eTPiRMnKJ/Pj91dfnfffbcU9hrcPU7iU9ymaQ5VZ/OT04sXL7ryhmr6wQ9+IH2PbycM8eTbMIxQF+/4SbPOIG+Y9OIXgfnJ/bBGWffxwTU/P/vZz6Tw2toapdNpDJhFgNfbDvFi1uHhoeuYe03ixcFhnh7g8Qqb1/nFTZ3BW902hN94wgcGhsXrr7jrwTB1EKg9+eSTrou499xzDxWLRVe9PWt4WSZFW7a8vCyFJxXfr7D1VpDjrpdnxaSl86TUP7wuCFs+BmnXB6G69kWKNjXuthkA3DBQBhAx/rqeg4MD2t/f15pmiU6nRUyTXq/nSi+vyetpv3E2jndkjYOoLwyNk1nK38MIygPjXOf+5je/kZ6Io6PXgayurtLi4iJtbGyMRdnXuRNyGI1GgzY2NqhYLLpO7NJswNKLmO/5SWxY/Ok0ni+8Jt07S3WI+8Nf6xXk3nvvlcK6g7yDEJ+yiopY9sap7jt79qzrtdD7+/u0trZG8/PzlM/nx+pi0KTjNwxYluU65l5TVBcH+U0BYevCb3zjG1JYZ/B2UGEGfXWMQz0I4SQSCXrjjTekernX69Hly5fJNE1aXl7GwL6ADzbrvnFgkkTdRo9DvazSbrepWq3SxsYGZbNZVz+S30gz7kadzlH0wyel/pmkdl0FbTPA8cNAGcCYGub/V+D/SSaTrouK44D/Hwo6NzCIcc3fkyiOOjeRSNDVq1epVCq5LmZYlkXr6+t0zz330MbGhrRsGnS7XdrY2KD5+XlaXV2l9fV1unz5suvEbn8EA5ZxMAzD9X8DoxL3kxniMQk7iDcqcdV9m5ubVKvVXE+y9no92traItM0KZ/Pj3yAm8eHX2QbBC97uq9fGjd8cHOUoh68EvGbQMJe7BuF46wHZ9XS0hJdu3ZNme8PDg5obW2NFhcXtf+7EibPJLTRqvw5iEajQel0mkzTpLW1NVpfX6ednR1XPzLuG2nGlV86x9EPn4X6J852fVTQNgMMBwNlADGr1Wpk23boKegPQWdNMpl0pZHOdPXq1dgvKg5C9URdFBe+YDJNW/4+TuNY554/f55u3rxJlUrFdeLS6/VofX091t8ftVarRSdPnqT19fWB7nwdtU6n48oPQdPNmzeV9fg0EAdlwlxAGcQ41n2nT5+mw8NDqtfryotBW1tbdPLkyZEOlvGnKD///HMpHBZ/lRB/8vU4FAoF13HWmTY3N/mmpgJ/JS4fOIsa6sHJkUgkaHNzkzqdDpXLZddAumVZ9Nhjj9H29rY0H6bDKNvo46yXi8Uira6uxr6P4yDqdI6zH476Z7TQNgOMHgbKACL29a9/XQp/8sknUhj+G79IoyJeuJnGJ674BfM//vGPUhj0/ntnUk17/o5KUB6YpDo3m83S3t4eWZblugC/s7NzbE+WRfmHz91ul77zne9Id/cmk0mqVCrUbDZdJ3O2bUvf1yH+X9kg+GtV+P8ZjFrYP2PnN1Xw/RkWH5SJ2qTUfSsrK/2LQfypUMuy6Hvf+560fpweeughKfzmm29K4bD4hcdHHnlECo8CfyLQ6/86RilsXchfkcT3aRj8vwijxuuN464HIbxEIkFnz57tD+zz84pz58652otZ9tlnn/FZEynONprXYcdVL29vb9Ply5eleYVCger1unLgoFQqSeuOuzjTeRT9cJqg+mec2nUdaJsBjh8GygAixv+ke1o65VH7r//6LynMLwKR4vVS0/bfIN/+9rel8NbW1kjvUJ8E/FUak/pqKJVpz99RCcoDk1jnLiws0ObmJtXrdWn+cf3HAr9x4cEHH5TCYbz++uvSMcvlcnT16lXKZrND3d0onoBbljVUXclfqzLs0zmDEPen1+uFKv88vvzJk2HdcccdUpjnj2FNWt2XSCTo/PnzdHBw4LqTf1Rx5xegdnZ2Bv7tbrfrqmueeuopKTwKPB8MOwA+CF7Xhc3rYpwNw3Dt0zD4K7qDbhoJaxzqQYjOysoK7e3tuQYMfv/730vhWcL7i1evXpXCkyrONprXYcdRLxMRXbhwof/ZMAxqNpt06dIlWllZccVxEvF9iDKd4+qH+xmn+mec23UdaJsBjh8GygAixjvlb7/9thSedrp37bz11ltSmD8VQorBs7B33Y+7J5980vWHuP/2b/8mraMrbCeQ4yddOhfgdI81d3h4qHWRu91uS08bjMOroaI07fnbT5R5YJLr3JWVFenJMj4oOCzdeoGn2TB3T165ckUKv/TSS1J4UAsLC1L4gw8+kMJh8JPo9957TwqPAr9jNEz5f+WVV6Twww8/LIWHdf/990vh999/Xwp70X0qelLrvoWFBbp48aI078aNG1I4LktLS67XG/3rv/6rFNb1u9/9znWneVwXz4LwAXCdvkeUeF3H60I/jUZDSseoX5/Lj4lu3NrttlaZGod6cBqNsj+tcv78eamu0Pl9OhpAn0ZiWhwcHIxsPwe52K3bZ4u7jT7uernVakmvC8zlcq76MCqjyg8qcaVzXP1wHeNQ/4xzu64DbTPA8cNAGUAMMplM/7NlWTP1juZz585RtVrlsyXtdpu2trb6YcMw6OTJk9I6pLiD+oUXXoi0I3XcEokEPf/889K8y5cvB6YfVywW6cSJE0O93oCfdAVdZKlWq3Tu3Dk+W4tlWZROpwOPJb8I+N3vflcKT7ppz99+os4Dk1znioPlUTt16lTghZdqtSqdFKZSqaHunvziiy+kcNC2gvKA4/HHH5fCv/71r6WwSrfbpXQ67coPKysrUrpvbW0FplPUHn30USmsW/4bjYb02rxUKuUaRBwWr5t+8YtfSGGVarXqek2SF7593X0fB/wJ1lHig3RbW1uh+wvVapXW19eleb/61a+k8CjxJ+sLhYIUjlsikXBdrOT1hRd+PJ5++mkpHAWxbev1eoHHu9vtUiaT0fpPmnGoB6fRKPvTXgbpV0zr673EMkRHNwoEabVatLi4OFR5uO+++6Rw0MXuVqtFp06d4rOVeBsadRt93PXyrVu3pDAfdFT58ssv+Swtx/n657jSOa5+uK7jrn/GvV0PgrYZ4PhhoAwgBt///vel8IULF7QGMdrtNuXzeVpeXuaLJsra2prnybxzEi/KZrPKTtzS0pKro/Piiy9qdeiq1SotLi7S7u4uXzQQ56Rpbm6O5ufnI/svoWeeecb1lMza2hoVi8XA/Ww0GrS8vKx94uOHn3T5Xbjc3t6mtbU1PjuUg4MD34GSarUqDabS0RN402Sc8vdxiDIPjGOdu7i4GFiOu90u7ezs9MO8LhhWr9fzHSxrtVqUz+eleWfOnJHCYfFBG7/j0Gq1KJ1O89lKp0+fdr32zu/Et91uUzqdpv39feUFFH6TwrPPPqt152uj0aB0Ok3FYpEvCmVlZUU63k7599Nqtehb3/qWNO+FF16QwlHgTy9ZluXb5m1sbIRqE8ax7svn85ROpwPzwKuvviqF+Z3LJAzQzs3N0dzcXGR3JGezWVdbrdtf6Ha7VCwWXccpl8u5nsodJf5k/c7Ojm+5dnS7XdrY2KD5+fnAfQ/y3HPPSeELFy541pmOfD7vGrCOIx2feOIJKZzP5z3316lPw1z4Pe56cBrxMhpVf7rdbtP8/Hxg+Wi1WlIe4E8vO/gre//85z9L4WnxzDPPSOH19XXf8t1oNOjUqVNkWZZrwCaMMBe7nd/UGeCmEbTRx10vf/WrX5XC/D+juI2NjVDnwmH6qXGKK53D7J9uP3zS6p9xbtd1oG0GOGY2wBQolUo2EfWner3OV3Hh39GRSqW0v5PJZKR1icjO5XJ2vV63O51Ofz3LsuxKpeJa30uYODjE76RSKb5YSfwNv++I6WgYhvS9TCZjN5vN/rq1Ws1OJpPSOoZhSOnBNZtNaX0isk3TtCuVirRt27bter1uFwoF2zTN/rqlUklaRyRu028fbdu2c7mcKx5RaTabrrSjo7TJ5XJ2pVKx6/W6Xa/X7VqtZpdKJWkfncmyLGm79XpdWu6XFrZtu7aZTCbtWq3WX16r1aS8xOPsV+7E9cTvGYZhVyqVfh6wLMtVNkkj7rrEbQYdc0fYeIRJ97jyd5g4OPh3/I6ngx8rv++I68WRB3gdShHVuTwufvsoEvevUChI3+t0Osr6sFwuS9sIi7cP4lQqlfp1RKfTsSuViqsMB5UJvn2VSqUirZNMJl1p1ul07FKp5Pp9J55earWaa/1MJiNt38k/4rZV2+x0Oq46zzAMu1QqueLbbDbtcrksHa+gtNLByxwdpZdYHuyj3+f7REf524+4btj4qtI6l8tJ7cwwbcI41X02y9u5XM6u1WrSMajX6646I5PJSNtw8DJAAWkRRqfTcaUzCf2Fcrls14/6C/V63S6Xy3Yul1N+J5lM8s0rid/RzUdh6s1yueyKWyqVsmu1mpTfnHqT74/ftnXxuo2I7EKhIOVF5/f5uoZhuPKsKExaqPB2wiknDlWdJ372O2Zx1oM8neIyyO+I3/HbB5H4G0Hf4WkaRX9arNtM07TL5bKU75y+Dd+WV97kdbBhGP04OnldzGdhhamLxfWC0tYRplwVCgVpXSc+Yto0m03XuZ5qm2HiyrdnsP6u6jeD+i6OuNvo466XeRkqlUpSm2wf5TFe/p3JD9+3ZDLZzwtOORom/mHyJo8LRZDOvA8SRT980uofW9E20Bi06+J3/OqPONtmAAjm34oATIhBGiv+HR28EfXT6XRcJ7e6k9fFFztkHBxxnhCK6ZhKpVyds6BJPHH0Enab4uTXyRHX89tHW5HupJn2uprNpqtDFGZSdSbFTi15dHxFfH2/yelAivP8yp24Xk0xQOA36V7M0yFuN+iYO8TvBKWhrUjHoO/Ekb/DxsFWfMfveDp4Per3HXG9OPJAXHVumH0UhS3POvsYhNdT/AKM32QYhmuwnePb96I6DqZp2qlUyrUNOtp353NQXg2zTxSwX02PmxR0pmEHNR2Dlv+gQTJ7wPpOFCatw7YJ9hD7ThHXfXbIfaWAfMXrDNJIizAsy1KWsTCTTv5xiN/TzUc8DYL2P2z6O5NhGHxTAxm0/Qi6mGYPkBZc2Hoql8u5+uZ+wm5fnPzqQV7Xx2WQ34nzvMhW1EN+k27daVmW67tBU6FQ4JuR8LTj0zDli6eBX10srheUto4w5WqQ8u3VJxPXCYprx+PGBq+pUqlIx8QvzeyQ9aZuPhOF2T7/rWGpBgLpKM1TqZSrj82Prx+d4+J3XhAkTN60Y0pnnh40ZD980uofe8By7/xuXO26+J2g+iOuthkAguHViwAxSSQSdPXqVSqVSnyRJ8MwqFQq0W9+8xu+aGJks1mq1+uB76c2DIPq9TqdPn2aL3LJZrPUbDZDvZYslUpRvV6P7M9/+WsMora0tEQffPABlUqlwLQTZTIZsiwrklc7raysUKVSCfz9VCpFBwcHA6ft7bffTnt7e5TL5fgil1wuR3t7e3z2VBmH/D1qceSBcatz33jjDenVOH4ymYzWPoa1ubkZqkxHVc/t7e25Xj9lWRbt7+9LrzUxTZOazabnf8+pbG5uah/joP1aWlqia9euuV4H7Mc0TapUKnT27Fm+aCBOm6mbVwzDoHK5TJubm3xR5DY3N7X+MyOTydC1a9dC10fjVPe99NJLrjzrJZlM0pUrVzzzFX+lUNQWFhb6dV1Q2eac9BtF/gljc3OTarVaqP3J5XKhXjPoJ5FI0N7enlZ+dwzbF9K1tLREV65cCawjDMOgWq0W+tiOQz04beLoTy8sLGht01EqlejSpUt8tiSoDgnKc5PCKd+6ebxQKETSJ0skElpl1zRNqtfroc/l4m6jj7NePn36tDK/O/1I8b91C4UCXb16VVrPTyKRCKwng45ZlOJI56j74ZNY/4xzu64DbTPAMeIjZwCTqFar9e+40LkLxGZ3MpumyRcria9u8LrTTMWyLLtcLnveAZU7er0ef6WAingHi268xTuVdO8iFu/A8bsjSLzjS9y280g/v5MnlUrZ5XJZa19VnNcO8LuQDMOwU6mUXWKv0vAjbiMoXcQnvgzDiPVOnc7Ra9EymYwr/UzTtDOZjF0ulz3vZndYliXlN9VTZyqWZdmFQkH6bcMwXK84s4WnZoLKnbMtvl796HVW4h1TpmnauaNX5kUtzDF3hE1Dy7Kk/dF5atIRVf4e5NiLd67x4+RFLP+GzxMW9ojzQJR17iDti6hSqdi5XM4Vj1Qq5XoFyLB4vnE4ZVqMg1OXhMmfYdsfpx4Tf9epS8Q8Kb56Riev2uwYi/vsHN+weafZbNqFQsFOpVJSXiThWIVJq0E4ecWr3tfNs45B6juVer3uysNeZdSrnAc5zrpPVD96zSM/Bk6+0skDnU4nsrTX4ZV2znEKk34qg+wL72P7tQ2iqPo/w7COXmXoVxeEScth2xBHp9NR1nkpRb/aq28eJMp6MGx7MahBficX43mRKI7+tJMPeL/JqSvDlo9Op+MZR794BAlTF4+yjnHyOK9fnPwdtJ1B4upXdnm6iHmTL/MSdxt9nPWyU4Z42iWTSdfxcsqDbj3QPHr1pSrdwvS1uEHr/DjSOep++KTUP9y4tOvicVA9ueclyrYZAILN2f/9CCgAAAAATLB0Oi3dKYouHgAAAAAAAABAMLx6EQAAAAAAAAAAAAAAAGYSBsoAAAAAAAAAAAAAAABgJmGgDAAAAAAAAAAAAAAAAGYSBsoAAAAAAAAAAAAAAABgJmGgDAAAAAAAAAAAAAAAAGYSBsoAAAAAAAAAAAAAAABgJmGgDAAAAGAKPPTQQ/3PpmlKywAAAAAAAAAAQG3Otm2bzwQAAAAAAAAAAAAAAACYdniiDAAAAAAAAAAAAAAAAGYSBsoAAAAAAAAAAAAAAABgJmGgDAAAAAAAAAAAAAAAAGYSBsoAAAAAAAAAAAAAAABgJmGgDAAAAAAAAAAAAAAAAGYSBsoAAAAAAAAAAAAAAABgJmGgDAAAAAAAAAAAAAAAAGYSBsoAAAAAAAAAAAAAAABgJmGgDAAAAAAAAAAAAAAAAGYSBsoAAAAAAAAAAAAAAABgJmGgDAAAAAAAAAAAAAAAAGYSBsoAAAAAAAAAAAAAAABgJmGgDAAAAAAAAAAAAAAAAGYSBsoAAAAAAAAAAAAAAABgJmGgDAAAAAAAAAAAAAAAAGYSBsoAZlCr1aL5+Xmam5uj+fl5arVafBUAmCIo8xC3drtNi4uLNDc3R3Nzc7S7u8tXAYAZhnZoMm1sbPTr9eXlZb4YAACmUKPRoGw222+3nTagWCxSt9vlq0MMxPOqarXKFwNATDBQBjCDbt26Rb1ej4iIer0e3bp1i68CAFMEZR7iduPGDbIsqx/+5JNPpOXTotVqUaPRoHa7zRcBgA+0Q5Pp3Xff7X8+ODiQlgEAwPQpFou0urpKOzs7/XabjtqAy5cv0zvvvCOtD/EQz6uuX78uLQOA+GCgDAAAAAAgQLFYpBMnTtDq6iqZpomn5gAAAABgauzu7tLly5f5bAkGbQBgmmGgDADgGLRaLdrY2KB0Oi09Vu9M6XSa8vk8LsQCAIyJjz76SAq/+uqrUhgAYJSy2ayr/zjshFdiAgDMrv/5P/+nFC6Xy9TpdMi2bWo2m1QqlejJJ5+U1gEAmCYYKAMAGKFGo0HpdJpOnDhB6+vrtL+/Lz1W79jf36etrS167LHHaH5+njY2NvgqAABwjObn5/ksAICR2dnZ4bOGhldiAgDMpna7Lb1iN5fL0dmzZymRSBAR0dLSEp0/f54WFhaEbwEATBcMlAHAVBnnPz3N5/O0urpK+/v7fJGvXq9H6+vrtLy8jD/PBWDGuczDdDlz5gwZhkFERKZp0tmzZ/kqAAAjk0wm+SyAqddqtWh+fp7m5uZofn4eT0EOAGkIKjdu3JDC3/zmN6UwQBTy+Xz/3D2fz/PFAMcOA2UAMFXG9U9Pl5eXaWtrS5pnGAblcjkql8tUr9f7U7lcplwu178g6zg4OKCTJ09isAxAMK5lHqZPNpulmzdvkm3bdHh4SEtLS3wVAICR2dnZkfqPfCqXy9L6uVzOtQ6fVlZWpO8AjJtbt25Rr9cjOrqZEE9Bhoc0BJVPP/1UCt91111SGCAK7XZb+RlgXGCgDAAgZvl8XnqNARFRJpOha9eu0ebmJp09e5ZWVlb609mzZ2lzc5OuXbtGhUJB+p5lWfS9731PmgcAAAAAs2VhYUHqP/Lpvvvuk9b/2te+5lqHTwAAMJu+/PJLPgsAYOZgoAwAIEaNRsP1JFmlUqFqtdp/37eXRCJBly5dokqlIs3f39/HK+YAAAAAAAAAAAAAIoCBMgCAGJ05c0YKFwoFymaz0rwg2WyWcrmcNO+FF16QwgAAAAAAAAAAAAAQHgbKYCrs7u56/iFko9GgfD5Pi4uL/XUWFxcpn89To9GQ1vVSLBb73y0Wi/35u7u7lE6n+8uWl5dpe3tb+i7X7XZpe3ubstmsFCfn+/l8nnZ3d/nXtDjbFuM0NzdH6XR64CeQxD/bXF5e5ouVBv2DYDH+zvedbaTTadre3na9x7harUr7KlpfX5eWOZNufIbVaDSk/08yDIN++MMfSuvoeumll6SwZVme+9Fut6X0F9PMrzzwtNXVbreV+W5xcZGy2ezAec+PWCb59qvVKmWzWSkPLS8vU7FY1N7HKMt8u92mjY0NV76eOyqbxWLR81gGiaPMi3lD3Hc/YjlcXFzkiz21220qFouu+It5h/8n33GXeSd/8fo7zLEUywzfjtMO6LZPoy7vg3COsxiP+fl5ymaz2vvJHUe9s7u7q9W2jcsxCYqHqp7c2NhwlTmHk/fF9B60romyDIh9QN5P8WoP/PaTWD04yM0tg37XT9RtSVTtXBztENdqtahYLNLy8rL0G2HzileZ6Ha7Url06ievMrm7u+vbDnh9b9pUq9XIj/u4HWvH7u6uq+4e1TF30sSv7Ov+vld92Wq1pLrSaZf8dLtdZR07L5y3+dWzYYjno6urq9Ky1dVVKU2cODharZa0TOc8WzyX1f1Ot9uVvuNXbzqq1Srl83lXfvfrBw9qmDQUv7u4uBgqTtvb28ptOsS2iNcdqvwV9pyOi6qOcTjlgJfPOMoBF0X+Eevw9fV1aZkqX4TpZ4jivl4Xdd0W1/U68snXQX1TL2L55P1gL2IdN+9zTsOJfT6v/M7LZrvdltJwf3+/v2x/f19a5kx+9Wer1VLm+0HLMICLDTAFSqWSTUQ2EdmpVMq2bdvudDp2KpXqz/eaCoUC35yLuB1n+4VCwbUtZ/JSKpVswzBc66sm0zTter3ON+GpUqkEbts0TbvZbNr1el2a7/c7PA11hNm+Qyf+zlQqlfrfE4+97iR+P048j+jkNT+5XE5rP1Tp3+l07Ewm40oLPlUqFb45X3wfvaaw+TmImC+ddGg2m7Zpmq7fFifDMLT2MYoy3+l0XMfMb0qlUrZlWXwznnTKzCBlnsdJBy+HOvzSU5wMw7BrtVr/e/y3dCavshKGTv5ypkwmY3c6Hb4Ju9lsuupUvymVSim3I1Id27jKux8eDyfNdY6zV3p50dkmxVDv8LzntW2eFuNyTHTjYRiG3Ww2+9uxLCsw3yaTSa1jGEcZ4MfFPvqdZDLp2p448f0U8e96rcdZliV9L5fL8VVCi6stiaKdi6sdcuj25Ulzv1Vx8KvbedsRJj5iu3Vc+P7y/dHB99fWbA916wRHmLQdxbF2+H2HT4VCIdQ+B6nVatq/7fx+EFV96VeOvcqp33fEyTAMu1wu86+Hpps3xMmJO6+XM5kM37wLrwt16vJKpSJ9x689D3NsxyENeXqEiY+4n6Zp8sVSvOI4p3NEXcfYmvGko7jqbE9XlPmHrx80edUJQcS6x+lz6B6TUdZtpRiv1+nkFzFfi/O92ihbUbZ1qNrIIH7pyScxvvy3dCYnj3C8LvKadPIMgBe9UgQw5njD22w2tStxnYpUbHxSqVRgBc3pdgJUk04HkHfM/SbDMFzx92sYebx18MbQb/u2YgBIZ3IuWoXZd/7duA16oc0L31evDgRP/3K5HNgpEyedPNfpdFz7R0cXRlKplCvfhNm2Dn5SxdMmaAq6gDVsmdfpCKsmvwu3ojD7G7bMi+t55TFOdXLixSvv+E2GYfS/H2bfnUknTf0M8pv8pJRfqNGdksmktB1uFOVdB49HoVAIdZyD9tP2yTujqnd4PvcqRzwtxuWYhImHYRh2p9Ox6/W6dn8qqL6Iqwzw4xLmRN6rzuVlPqif6CiXy9L3gtqaIHG2JcO2czyN/Kaw7ZB9tO+q4+iUdVVdELTfvEwE5RXxQo+q/jEMwzM+fhe1RoXv7yBx4vVqmOOuO1g2bsfaodpX8ZiryqbuPgdR/bbOFFRX8fqyVqu5tiFOqnKqOm8zTbOfLqp01hlo8qP6Tb9J7DfabLCGFPUZx/Mc354Kj6NXPuB1oe50nGnI2++gdtnRbDal76nyp1jHxHFOZ8dUx6i2KZYDnudUZWkQUecfXscHTX5p4ifu63XD1m1xX68Lu798f1RtlIPHWwdvI3l6cGHrDxLyCq8/dCZ+Hu0VB6e88TRIBZyTAPjRK0UAY05sSEzTlBqhVColdaCazabybmq/xkGseHkDl8vl7Hq9btdqNbtQKCg7IbxSNwzDLpVKUkfDsiy7Uqm4OlUU0CFRNTyZTEb6Tq1WczUe4qS77xRDw6vqxKjShl/g89om385x4vs1LH6y4XXSxtNfnJLJpKs88GNsHF0g9cPLUCaTUd4pxy9MGBHdUSfGmZ/c5HI5V/7n6wTt4zBlXnUxzTRNu1KpSPvebDbtkuKuNdM0feMWd5kX19PtZPLOvB9+gmcc3TnH06ZQKEhp40XcVhxl3rIs1zHKZDJSGnY6HbtSqUhpzuPCy2Uul7NrtZp0rJ08Ia5HASdgfLviFFV51+EXDyf/O79jWZZyP3maccdd7/A4e5Ujv7QYl2OSSqX68XfyL8/nvB4T65lOp+NKDwqZV6MqA6r1nUlVN/J+lqqe63Q60jqm4i54FTHNvNpoXXG3JcO0c3G3Q51Ox3WcSqWSa39U+dDvAi7Pg+J+O2lbr9ftcrnsquf576gu4jhlyTRN5fJR4/sbVMeq+B3DUqnUz4udTscul8uuvBT0m+N4rG2PPreqHrIsy9U2BV3Q1SHuq3E00MzjWK/XXb9NRL7tHU9DMV1SR+fM9XrdLpVKdkrxRC+/GSCZTLriZR/FjddfYts3DH5sVb/P8b6nX1x4/e9MYv2mIqal11NrFcUgkFPfOjqdjmf9GVW9Mkga8uPpl88cPN1VaRj3OV1cdQxvQ1Vp6PR3jYBBN11x5x++/6p9GpS47Tiu1/G4q7bvV7fFeb3OVgzWq84HeBzEya8t5cdaR5g6oBbx9Toxvqo+uAqPby6Xcx1DW+h7etXBADr0ShHAmOMNozP5dQZ4Q+RXSfPGh3w6RBxvWHQ6SmHixtflFzNE/OTGmfz2g++7Dt6QeW2/0+m4Tqj9Tlzso2Nt+Fz0FLfl16GIG08Dv452GOI2vY4H/21n8ssb/DirLgY4eJ4OSmd+scEvHrp4fCmgTHYUFxz94h12+yJ+UpgMuLs4bNziLvPien51j4jXwV543vQry/ZR2mQyGd/yI27PL90GxfNC0AWwWq1mG+x1kbZwYbmkODnn+HHz6+zzNHUmv3zB98mvvOvyi4fX/vITfr+LHeNQ7/B87lWO/NLCy6iPiYrX+uTTnwqTV+MqA/y4OJNXGqr6Hqp6iF+k8TreDj54FFRXBIm7LeF5jkK0c3G3Q3zf/da1Fb/hdey98rhfPeUQL/747e844fvrlx+8eOUTr3MZ/ptBg8zjeKxtxaB30Hd4faGqU8KoHN284LV/Iv7bXvW17VNf+n3HYbEbh4L6iB02QBGUF3TxYxuUZ+yQfQLeN3Emv/LD46Q6bjz9vNYT8bjo5EUdPL46acjLnl96OMTj79WX96pjvOIUtq2Lo47h7b1qnaiNIv/w+iEorcLg23Ymv7qH9zX86pxBtu/g5xh+bZwjTNz4cfDrz9U93uTgl8d5GdKhWweo+sz8HJcrBVyvE+Prl24iMb2jaksAvOiVIoAxp2oYgzoOqkpfpzLX3b6Dd+S8GiERP7Egj7tUeCfNDLh72FY01EFx4vuuQ7fh5XHx6wDoinp7g+JpoNsJCCJu0+t48N+mgBNCW/Edv/XFPK3bUeGdyWHxfKnToeX76Bd3vn3SLPMddhdq0AmJg5/AGx5PIoyizIvr6eZbXgd74fnALx66xO1FXeZ5euumRxTENsArP9iKfE0B5ddWfCdofR18m7rb5WXNq5yNQ73D87lX/h0kLfh3gtbXwbeps13eZyGfY+Lg/ZWo6JYBflx04sy/o1qfXzgJSjt+MS6oTfITd1tiK8qeVzpwvF6Muh3i+x6U7g4xv3jV1aoy4XfBSiR+J+q2Ji58fweJN88nOv0t/h2v86txPda87A9SLgZJ60Hx3w57Y4FuuvM6zuu4injZ9yr3YfBjq7tN8bzfrx/B+w7O5DXQY2umDV9HN4+EGQjVNUga8vLql4a2ohx5xZvXFzp1DI+/V1x4nHXzelAdw39fJ/2GNYr8w+uHKPeLb5s06tYw1+tU29c93rzvq7PfutfrbEU/2Ws9R1Pxmka/483LkA7dPMzrcL946BLjqypfKoN8B2BQf0MAU6hcLlM2m+WzJYlEgnK5nDTvnXfekcJeCoVC4PaJiFqtFh0cHPTDqVSKVlZWpHVUEokE/eQnP5Hm/eEPf5DCREQffvihFP7JT35CiURCmsdls1kql8t89rF45ZVXpPCTTz4phSEamUyGNjc3+WzJysoKGYbRD7fbbWm5o91uS3n64sWL0nIvjz/+uBRuNBpSeFhXrlyhpaUlPluysrJCyWSyH7Ysi1qtlrSOF90y//rrr0vh559/PrBMEhEtLS1RJpPph3u9Hu3u7krr0BSU+a2trf5n0zS16sPjxI/nmTNnpHCcFhcX+597vZ60zE+U5X0YOvEgInruueek8JtvvimFaYzrHV06aTEux+S73/2uFNap+x555BEpHFXcBy0DOn3AVColha9fvy6FiYhOnz4tHZNqtSot53Z2dvqfTdMMbJP88Lon6rZERedY0wjaId4X//GPfyyFvYj7vb+/Ly3zYhgG7ezsBMafjtZ1vPvuu9KyWaLT3/r2t78thW/cuCGFHeN6rN96663+Z9M0tcrFwsKC1MccZR5ZWFiQwl988YUU9pNMJgPbBYdYx+VyOdfvqjz88MNS+M9//rMUHiXxOPqdA7z99tv9z2JbcXBw4Nm+id9JJpPKtBH7wIZh0DPPPCMt93LhwgUp/Nvf/lYKj0oikZDKnl8aEitHpMgLXnTqGN1zurjqmNtuu00KjyJfT3r+4XT6asNcr9Ot2+K+Xtdut8myrH44k8kE5u+lpSW6cuUKn30sxuV63R133NH//OGHH1K325WWA0QJA2Uwle677z4+S+kf/uEfpLCqg6Xywx/+kM9Sev/996VwmIusvDP50UcfSWEiovfee08K//3f/70U9qKbPnETO55eJxUwvPvvv5/PUnrggQf6n706H7xzetddd0lhL7fffrsU/vTTT6XwsII6nA5+Qfcvf/mLFPaiW+Z5pzZMZ/KJJ56Qwp988okUpgkv83yQQjwJHVf8Qhevl+P00EMP8Vlaoizvw9CNx8mTJ6WweDLpGNd6R5duWozDMXnwwQel8KOPPiqFVb72ta9JYa+L4mENWgZ06jveZnz55ZdS2CFeoPEbdGq1WlLe/ed//mdpeVhxtyUquu1c3O0QHyzX7Rt+5StfkcI6fXrdi/3E+g/7+/uUz+el5bOClx0Vfqz/+te/SmHHuB5rcVBcHLAPIg7C8QHluPHBf10//elP+SwlXsfxet8LH5j8+OOPpfAo8Ztn+Hk6KS5ql0olabnquPKbeZ599llpOR2ln3jDRzabdaWNl6WlJTJNsx8Wf2vU/umf/kkKqwYGHGI5SqVS2uVPp44hzXO6uOqYpaUl6eaJ9fX1wJtphjEt+UfE2wkvg16v063beD0Q9fU6XmecOnVKCnvRLQdxG5frdWK69Xo9SqfTsZwrARAGymDW/e3f/q0U9rpLjNPtmPCG/N5775XCfngjxBtZUsR3XBpUHTzuy8vLUhiOl1cnml9MvHjxIqXT6cDpBz/4gfQ9vp1Rufvuu6Ww6ikCFd0yL6abYRiucuyHX/xXXUzg5WaSyvznn38uhf/u7/5OCo+jw8PD/mfTNLXzwaTxKu+jkEgkpIsNqrjw+mLS6p1BqNIB4qO6uEFE9NRTT0nhV199VQo7+MXCMANbKnG3JSq69Vvc7ZD4NIxhGK5y7TW9/PLL0nZu3bolhVX4xVA//K78ra0tWlxcpO3tbVysCeA1WDuux1q8IH14eOj6fa9JPFcL8xTsceI3lHjhafzaa6+59t9rEoV52i1q/Clh1ZM14o05qVTKNcjAB15IcY7OL56TYhAnbL3JB2z5NYZR4WkoPuUk2t3dlcpAmMEHXTrndHHWMT/72c+k8NraGqXT6VgGzKYl/wxi0Ot1unUbT4uor9fxfKk7QDgOeFof5/W6J5980jXge88991CxWHTFc1i7u7s0NzenNUX92zAeMFAGMy1sJyMsXnGG/T3xlQJBJ1xip3US8DvOde9MhOPFn7DZ39/Xmsblom/cnVPxLlTx6RAdvGMedDFh0so8P1HgF3PHkXg8+UnmsNrtNlWrVdrY2KBsNht4kj7NgsrKpNc7oDYJZWBpaUnqi+3s7CgHRcRXkkVxx+0o25JhxNEO7Qt3L/d6PVe59ppUT6NGaWlpiSqVijTPsiw6d+4c3XnnnZTNZl1PToO/cTzW/BhaluX6fa8p6FxtGK1Wi7a3t2ljY8NVV6bZIF0c+KvlDg4OXPvvNY0T8Smkg4MDV30uPs3rPNUsvgFBfMWiQxw8M01TWf/zPnDY85FvfOMbUlg1cDMqOk9aD/raxTB00lDMf1HXMWfPnnW9FnB/f5/W1tZofn6e8vm861rQoKYp/4QV9vpZWPwYhf29MNfrSPHaznE2TtfrEokEvfHGG1K/s9fr0eXLl8k0TVpeXo5skNrr5h4VnkYwHTBQBjDGgu7uFTt/YS+kQLy++tWvSuEoThT5yfugr1k5boZhTGzc4xRU3gllfio0Gg1Kp9Nkmiatra3R+vo67ezsDHSSDvpQ74yPSSsD/DVa/FWg/JVkP/rRj6Tlo6bTlgxjEtqhZDLpGjCMQjabpWazqaxLdnZ2aHV1ldLptOsOdYhPXMd6WPwC+qCq1SotLi7SiRMn6Ny5c7S+vu6qK/djHqSLUhxPFoXBX03L63PV/5OJryBWDQyJN0rE9VrxME9Exo0/ac0HxYi9djGXy8XeLsXJr47Z3NykWq0mPelCR/lka2uLTNOkfD7vGpAdtXHKP9MmKG/zm/3CDsTB/7O0tETXrl1Ttq8HBwe0trZGi4uLrjo6rK9//et8lid+zQ+mAwbKACaY2CmLYiAGoqO6m5DfsRQW/38dfnfYceh0OmTbdqjp5s2b6CQOCGV+shWLRVpdXcWxGxLqnck1iWWAv0aRv3qLv3Yxjjvnx8ko26FkMukqyzrT1atXAy9eDWppaYn29vbIsiwqFAqup+r29/fp1KlTrpubwN84HmsiokKh4PpNnWlzc5NvKpRut0vpdJrW1tbG5qYBUa1Wc+2zzpTNZvmmRorXz2J93mg0+gOOhmH0+wwrKytSOf/Tn/7U/8wvyPJBpGnEn7TmT3Hw1y7y/4Y7LnHVMadPn6bDw0Oq1+vKC/hbW1t08uTJYx8sg+PBrwmhbzCcRCJBm5ub1Ol0qFwuuwapLcuixx57jLa3t6X5YZw+fdpVD3hN/PjCdMBAGcy0Ud/xGfb3xAsQYofUEfWrwI7TZ599xmdNPH7HMb9rMaz//b//txTmf247Cnxwjr8zfdzxwcY4hX0NDu8487SmKSvz/D/Lxp34f2WD2N7epsuXL0vzCoUC1et15cAP/wP5aRZUVnhZmLR6B/7bpJaBRCIhPSWws7Mj3fjCnybwu6A2iKDywem0JcOIux0S+7vj/PrUhYUFunTpEt28eZMqlYp0sabX69G3vvUtXBgNMI7Hmj854vX/hXH7l3/5F+k80DAMKpfLVK/XXXWlbduuc46o8Tvsw7yaapwkEgkprcQnyMTXS4qvaKSjp0kdYp0vDpqZpql9Q07Y8xH+VArPp6MmPmnd6/WkwTLxCTPDMOj06dP9cJR00nCUdczKykr/An6pVJIGVy3Lou9973vS+sPQ2XfRuOWfMMJePxtW2N8Lul53nK8rjNo4Xa9LJBJ09uzZ/iA1bwPPnTvn6g8D6MJAGcw0frHNeRd5VPj2+O/54U8f8bsliIjuuOMOKRy2YT9OKysrUvjq1atSeBp8+9vflsK/+MUvpHAYrVbLdcIc14mHH/7qhkkb7OBl5MEHH5TCwxI7ab1ez1WO/fC05H9STRNe5nla/+d//qcUHkfi8bQsa6iLnhcuXOh/NgyDms0mXbp0iVZWViK/sD5Jut2udOcxP9GhKah34L9Nchn4p3/6Jyns3PjCX7vIX+s1qLjbkmHE3Q7xvBBm349LNpulDz74QBpQ7fV6Q98gNe3G8VjzOA17k8wgWq2W638Pr127RmfPnnWdP43K7bffLoXH6YJpWOL5Wa/X619Mfe211/rzeV3+zW9+s//Zsqx+XhWPEx9cE/E+cNh6U8yHhmG48umo+T1pLQ6axfkEIU9DnsakKM+jqGMSiQSdP3+eDg4OXE9gD/r7fN/4vgcZt/wTBr9+xq+vDYtvj/+eH348Vdfr+DlM2EHO48Tbm3G9XreyskJ7e3uuG+x+//vfS2EAXRgog6mk2wC99957UpjfLTcsvj3+e35ef/11Kcw77ERE999/vxR+//33pbCXP/7xj3yWJ35BhHcIVHTTX+xMqP5QeVhffvklnzVS/PUelmW5Xk+ha319XQqrXu0wCryjHiZPx0n3hIH/CXfUd9TxO/fDPAnwyiuvSGGef2hEZV68A1L3AtHHH3/MZ7nwd3jzYxGFqMs8f53CBx98IIV1tVotaTAol8tp33U8qXTyBCmetOVliMa43gF9k14GTp8+LdWNv/3tb4nYaxcNw4jsoiAvB1G3JcOIux3iF63C7PtxSiQSricmr1+/LoVBNq7Hmt8ko3PuEyVepn76058e+4VtfsE0jj7coP7617/yWb54nfjHP/6Rut2u9MQR//9F/p133nmH2u22dKOE3ysG+flGmPRrNBrS70TVzojCpqHqSetut+t67eLZs2f7n3VFeU53nHXMwsICXbx4UZp348YNKayL7xvfdz+jyD+D0L1exPv8/PrasPj2+O/50bled99990nhK1euSGEv/LWufib5el2U2zt//rwUX510AFDBQBlMpXPnzgUOSLTbbdra2uqHDcOgkydPSusM6+TJk9KFla2tLa3OX7fbpZ///Of9sGEYrg46Ke6813liqVqtuk7k/fALIkEdzGq1SufOneOzlfgfHv/ud7+TwiqtVosWFxe10vG4XpfiWFhYcA1o5fN5rbiL8vm862myH/7wh9I6o8Lf06+bp+N26tSpwHhUq1XpRCGVSkV+4UH8w28iohdeeEGrA9hoNKRjnEqlXIM0znxRHGVevDigc4Eon89Ld9R6WVhYcL0CReeVCM4f2euIuszzix6//vWvpbCK878i4rvRb926Ja3D7y5UiXrQb9R2dnYon8/z2S4vvPCCFOZliMa43gF901AGxPb84OCA2u22VPdFefGJl4Oo25JhxN0O8e3r7vs40MnX8P+M67Hmb4QoFApSOG687uNPc6mMIt3E8zbLsob6D5gohX0NJO+P7uzsSDdCJZNJV72ZSCSk71y5ckW60SfoTR/8lY9h0o8Ptjz99NNSOAph05A8nrQWX7sY5lWUoijP6Y67jtEpuzrGPf8MYlau1/FzGP76bpVWq0X/+I//yGd7muTrdVG/ElVMa4BBYaAMptba2ppn49vtdl2VfjabVXawhpFIJFwDJc8++6xvB825yCrejfX8888r47a0tCTdNWFZFm1sbEjriDY2NmhtbY3P9hWmg7m9vR1q+88884wUXl9f921QG40GnTp1iizLcl10c4jp8eGHH3rGlXMa9Lm5OZqfn/dNxzBeeuklqcHu9Xp06tQprc5tu92mdDotdRCJiDY3N5X5YVSef/55Kfzss88Gdvjo6Pil02kqFot80dCcdPXKP61Wy3XR/syZM1I4CisrK9KJtGVZ9OKLL0rrcK1Wi771rW9J8/jggWMUZV73AlG326V8Pu/Kn35+9KMfSeEzZ874llGnThFPhrlBy7yO06dPu16b4ld2nTK7v78vXejiT9Px/wrgNjY2tC8qj7OtrS1XuRPl83np2Jqm6bpr3TGO9Q7om4Yy8NRTT0nhTCYj5d8oLz7F3ZYMI+52aGlpyXVB8MUXX9Sq250bK8Lcia3D2W7QzR387nJ+p7qjWCzS3Nwczc3N0fLyslZdNo3G8VjT0Wvl+IVNv7bf0e12aWNjg+bn57X2wQt/Xar431lct9ulbDYb+cVGle9///tS+MKFC4Flgo76Rvl8npaXl/migYRtT1TE1yRaliXdCOX1CkXxf7l2dnb6TxaT5o0Szz33nBS+cOGC53mLg98smUqlPPtJYUSRhvxJ61/+8pfSOcE///M/9z+HEeU5XVx1TD6fp3Q6HVh3v/rqq1KYPxkWxjjln6jMwvU6UtQPPP+Kdnd36dSpU9K2g0za9Tp+I0JQO9Jut2l+fj6wHW61WlJbyN/OAKDNBpgCpVLJJiLllMlk7Gaz2V+3VqvZyWRSWscwDLvT6UjbFKVSKWn9MDqdjm0Yhuv3yuWybVlWfz3LsuxKpWKbpimtm0wmfeNWq9Vc+5zL5aRt12o1aR94fOr1urRNThWnWq3WXz7M9guFgrQuEdmlUkk6Zs1m087lclrbzGQy0npiWjSbTVe6O/j2KeRx9lOv113bJiLbNE27UCjYlUrFrtfr/alUKrn2w5kKhQLfvAv/vVKpxFdR0s3nnU7HlScMw7BLpZLruDhpLpa5VColrTMIHle+v84x7nQ6dqVSceXJoDjw7YfB05+OykylUpHKcrPZtEulkituuVxO2h4Xd5m3LMu1fbEeddJUzAN8+35U9W+lUvGNv982eVnRLfO6VOmdyWSkNLQsy3UsebnjZaZUKrnq9nq97tpvZ/LC8xv/XS/8d4bF4yGmBW8zms2m67hRQL4ch3qH9zX47zp4WozLMdGJB/+O1z6KdNOFH7+oyoDu73Pid3TzB6+/nMk0Tb7q0PixoIjbEp7OYajqxSjboWaz6dq+aZp2pVKR+of2UToVCgUpf3nldZ6mXutxYh5LpVKuNss5BuK2DcOQtuFQtbG68Qhr0P0VDZJPwvzuuB1rR7lcdsUrlUrZtVpNOvadTseu1Wp2LpeT8rhf/g7C84jTT+J4X0yMpxeeT8PGU9V253I5u16vS/WSc17L148Kr0/K5XL/9+tH51J+VPnOmcT+isjvO6rjo8LLEx2d24l53clTfF3DMFxlYhjDpqHtcR7vTLp9b76f4lSK4JxOddyGrWPEOOdyObtWq0n5v16vu/J+JpORtjEIVVpFmX+GrR/88G3ztBHjVhvgeh3ffpi4d2K+XmdZlmv7qVRKimNTcb1L/I4qH4pUcRrX63W8fU0mk/1tOWksfrcutOemadrlcln6bec7fJ+C8juAl+h6KwDHiDeMvJIOmrw6xA7e0Qir2Wy6Km6dKajRdYTZX6eTJM7zasQcYuMUNIXdfqfTcXWEgqZkMsk306cT13K5zL/mOsY0wHH2U6/XB8oD4qR7EsbTIKhj5eBp4GfQPE0e6R8Wj2vYMhB08sa3H1alUnH9rs4UdGHTEXZ/w5RJW1Gn+k1OR1yc52eQvOM3QMzzu2oaNs+FSW/yyGM8jZwplUrZqVRKeYIjhr3w/Y+jvOvg8Qh7nP2OsSPsNsVp2DxgK8qFVzniaTEux0QnHvw7Xvso0k2XuMqA7u9zPA46+Mm9M+nk30HE2ZYMm9/C1IuDtEOD7jv5XBzh+VunTNgDxsXr3ILHIUw8wuK/NcjvDJJPwv7uIOnrTFEfa1GYPC5OhscgaRiqC5OGYfTrS94W6t4YMmh96RjkvM2ZohgocPD9UE1eecPB2xxn8uP1HZ3zdXuI9HPq0ChFkYa8Xncmv3N1jtcxYcqdqr+tEnUdEyaOFCKeQeLOPzxPhK0f/PBth01DrzbVwbcfNu6DnmPoXq8LmwcrlYpUNoLaMN7m+U1h+2SD5Du/OkA1MMknsb3gN4/oTHH1y2E2+PcEACaEqmFsNpuenVlnMk3Tt1Fw8A7cICzLcm3HbyoUClqNrkN1QsWnTCbT36Y4XycNVHdp8CmVSvU7gWG23+l0XHddeU066RLU8VJ1tFTfiVqn01H+TtCUY3dpB+EdpaCOlYPnzyBhjhsJd+9FQRXXsHnUj2r7YdXr9cA6yJmMo7vWwoi7zOts3ymPPM8FaTabWh1u3XQJKleqMh8Wb2e8Jr88ppNHSejci/O88LSPq7wH4fGwj9o9neOsc4wdx1nv8DzgVY54WozLMdGJB/+O1z6KdNPFjqkMhPl9kfgdvwvLIq+Tda8yH4W42pIo8ptOOzFMO6TbVjhTit2hzfH8rVMmHDr7SkfHwK/NUeWhMPEIY5j9dQySTwb53XE61qJaraZVZzlT2D67H508Zxw9bSbur199Nmh9yfHt+E3G0dPfQedvYehcuA36PVX6+qWd7fGdsAOAnU5HuR2vya9fOYwo0tD2GDwM0+9S1TE6fYWw6RJlHdPpdFzx9pqSwtMyUYgz//By7bX/g1BtO8rrdarthxX39TqdfC3mFzEuOm2YzvbF/CDOD0qvMOdfOukSNHDonAeI6wftmzPppBWAH73eLsCY82oYO52O6/VLxtHdeBX26ho/4vbNIV+vUz96pJ83wk68+CPeYdTrdTuXy0kdDtM07dzRKzFETpoYmncY2Uedh0Kh4ErPDHsNmS10msNsv9lsurZPRw16oVAIlS61Ws3OZDJSg5pMJj0bTrGjFuZC0yA6R6+OyGQyrn114pnJZAbOC5ZlSXlA92RFHGwIOlEUOcctpbjD1Tl2fheNBsHLj8PJo7wMZDKZUHGIssxXKhU7l8u5jrUTrzB1ERd3mffbvpg3xbvwwqRX7eh1ReL2xbowTLqELfODsCzLLpfLrvyXTCaVaa7i5FHVNng9p5Omoy7vXizhtSI8vhV2V6TX/oZxHPWOeMHUrxyN0zEJGw+xLPvto0h8UszQuGs66jKge1w4MW3C1BMFdoEq6XPXbJSibkuiauf82gleJw7SDtlCW8HzjNNelNgrgLwMUiZE1tFrdnk8wh4DMQ+lQlzEDGvY/bUHzCe8HglTF4/LsRb59dudYz9onz2IU7747/J+UlN4OiDn80TpoPWliiX0icS0JqFfpFsmBqXqk6WOXpEZpM5uQtDJq4N8x4tYnzjHRNyHAnulXlyGSUPb42nxMMec/7bD6SvwtiXsOR0XVR1jC9d1ePl08v8w8QwSR/4J258LI+7rdVHWbc5x9cojw9T3Tr7m++v0IURiX4Ev8+K3fd4nc8pWmPRyzr94nnfyXJh0aR69rpGX8VwupzzuTl7h5/tRHBcA0Zz93yPJABNtY2OD1tfX++F6vT5Wf1QKANFKp9PSnxOjKQMAgFGoVqvSH6GXy2U6e/astA4AAMAsaLfbZJpmP5zJZKharUrr+ME53WzA9ToAmBR/w2cAAAAAAACA2yuvvCKFH374YSkMAAAwK15//XUp/MQTT0hhAACASYKBMgAAAAAAgADtdlu68z2TydDCwoK0DgAAwKx4+eWX+58Nw6BsNistBwAAmCQYKAMAAAAAAAjwu9/9TgrjznkAAJhVu7u7ZFlWP4xBMgAAmHQYKAMAAAAAAAiwtbXV/2wYBl67CAAAM+vVV1+Vwk8//bQUBgAAmDQYKAMAAAAAAPBRrVap1+v1w9lslhKJhLQOAADALGi327Szs9MPm6ZJKysr0joAAACTBgNlAAAAAAAAPl555RUp/Pjjj0thAACAWfH6669L4UwmI4UBAAAmEQbKYCp8/etfJ8MwiI5ehXPbbbfxVQBgijz00EP9z6ZpSssAAACidnh42P+cyWTo9OnT0nIAAIBZ8dlnn/U/J5NJeuaZZ6TlunBONxtwvQ4AJsWcbds2nwkAAAAAAAAAAAAAAAAw7fBEGQAAAAAAAAAAAAAAAMwkDJQBAAAAAAAAAAAAAADATMJAGQAAAAAAAAAAAAAAAMwkDJQBAAAAAAAAAAAAAADATMJAGQAAAAAAAAAAAAAAAMwkDJQBAAAAAAAAAAAAAADATMJAGQAAAAAAAAAAAAAAAMwkDJQBAAAAAAAAAAAAAADATMJAGQAAAAAAAAAAAAAAAMwkDJQBAAAAAAAAAAAAAADATMJAGQAAAAAAAAAAAAAAAMwkDJQBAAAAAAAAAAAAAADATMJAGQAAAAAAAAAAAAAAAMwkDJQBAAAAAAAAAAAAAADATMJAGQDTbrdpcXGR5ubmaG5ujqrVKl9lZNLpdD8exWKRLwYACC2fz/frlXw+zxcfO7HeO874jWP92+12aWNjg5aXl/txm5+fp2w2S7u7u3z1qbC7u0vz8/P9fW21WnwVgGPH+47TWh7BG/IAAAAAAMBkw0AZAHPjxg2yLKsfvn79urR8lPb39/ufP/roI2kZwHHpdrvUaDSo0WjwRTAB2u228vO4EOu944zfuNW/rVaLTp48Sevr63RwcNCf3+v1aGdnh5577jlp/XGnW4988skn1Ov1iI729datW3yVvna7TY1GI/bBNCfe3W6XL4IZxfuOn3zyibQcph/yAADaRwAAAJhsGCgDAABt7Xab7rnnHlpdXaXV1VVaXl7mqwBADJ599lnpIiznt2zcxFGP7O7ukmmatLq6SidOnIjtKcDl5eV+vO+5555jHcwFAAAYF2gfAQAAYNJhoAwAALTduHGj/3QHEdHBwUHsT28AzLrd3V3pKbJkMknNZpNs26ZOp0O1Wo3K5bL0nXEWRz3Cn97Y2tqSwlHhT/O988470nKQX+8adtrY2OCbAwCACYD2EQBgtNrtNm1vb1M2m5Veze9My8vLlM1mqVqt4klfAE0YKAMAgKHcdtttfBYAROitt96Swjs7O7S0tERERIlEgk6fPk1nz56V1pk0Udcj8/PzfFYsvvKVr/BZM2+YQcp3332XzwIAgAmE9hEAIB7tdpvy+TyZpknnzp2jnZ0d6WYFx8HBAe3s7NDa2hrdeeedlM/nMWAGEAADZQAAoO3ee++lVCrVDxcKBVpYWJDWAYBoia8vMk1z4stcHPVIKpUi0zSJiMgwDLp48SJfRSI+9ZTP5/liT4VCof85lUrRww8/LC2H4Tz00EN8FgDATKtWq/32anFxkS8eG2gfAWBajHO9W61WyTTNgW5M29raonvuuWfoN3kATDMMlAEAgLZEIkF7e3tk2zbZtk2XLl3iqwBAxD788MP+53E7WRtEHPXI0tISHR4ekm3bdPPmTcpms3wViTj4GOZ/VC5dutSP997eHiUSCb4KCFKpVD+9dKbz58/zTQAAzLTr16/3P4/z/5GifQSAaTGu9W6xWKS1tTU+mzKZDJVKJarX6/2pUqlQoVDo30jo6PV6dOLECQyWAXjAQBkAAADAGBP/zwsAAAAAAABmR7VapcuXL0vznP+trlardP78eVpZWelP2WyWLl26RIeHh1Qul8kwDOm7p06dwmsYARQwUAYAAAAAAAAAAAAAMEa63a7rVfG5XI6uXr3a/99qP2fPnqUrV65Ig2W9Xo9efPFFaT0AwEAZAAAAAAAAAAAAAMBYefHFF6U3jCSTSdrc3JTWCbK0tOT6ztbWVqhX0APMAgyUwVRqNBqUz+dpeXm5/yecc3NztLy8TPl8nnZ3d/lXBrK4uNjfdrFY5IuVovhj0G63S9vb2679S6fTVK1W+eqR2d3dpWw2K+2387vFYjFUI+vsg2p7gxwnMV3n5+e14yL+Nk+7VqtF8/Pz/eXb29vScj/dblfadtB32+02bW9vUzqdltJicXGRstmsK25+xHwhpmG73aZisSgtn5+fp2w2S41GQ9qGHzGO/M4mUbFY7K8nlo/d3V1pG8vLy57p02q1fMtymHjr6Ha7VK1WKZvNun5zHI+FyKn3xHy3uLhI+XxeuzxEwdk3v7wcxWse8vm8lB90iGV6fn5+oHezj6L+bTQa0rZF+/v70rK5uTnP/+OKOj+LnHRIp9NSPTk/P0/pdJq2t7d9851uPaKr3W771uftdlva//39/f4yVZrOedTbGxsbUhrqEo+FV3qFLRejrh/HgdhWevUdBt3vuOqudrs9srq53W5LdZy4/Uaj4cp/y8vLtLGx4blfTp4V02PYum53d9eVHs52w/Qld3d3pf0QVatV13H0i7eqXh+2TRY5eUvc52G3H2W/MYr+mg6v3+l2u7SxsREq/VVpGrZcjaofMUhdLe7X+vq6tEzchjN59QPCcNopv3bdq66gAdtHr3o3aFKl+yj73DqibK+C6nZep4YtC4NotVr9Yyfml7kB6nOR13Ucv2l+fp5vxjPNukdP5jjp5eSFoLhG1XZxo6jLj6uO5aLc1zjK+3HUuzqculn0q1/9SgrrymazlEwmpXnvvPOOFBbFkc5+4ipnAKHYAFOk0+nYqVTKJqLAKZlM2s1mk2/Crtfr0nqlUomv0ieul0ql+GKlUqkkfc+PavuVSsU2DMO1P+LktW+DCpOutVqNf92lVCoF7oMzmaZp1+t1vgkXnq4637FZGvNj3el0XHHRValUpO+Wy2W+Sl+hUHDtt2rSTQvxO84+8fRRTblcjm9KSfyOX74X84yznt++cn7rilOhUOBfDa3T6di5XM61ba/JNE2tMiZ+J45jYYcon046qY5LVHSPmWEYnnWFuJ5f/Pg+6+D1u195UsVjVPWvTh4RJ55OceVnh046OBOvVx3iOjz+Ip4WXseMH1v+u3y5zqSK1yD5Tje9DMPwbStEumUtivoxLPH3VWk4iGaz6Up7vymVStmdTodvxpNuenrVXTx/OflPZ7uVSoVvbmA8HvV63e50OnYmk3H9rjgZhiHVAZZlBaZ3MpkMlcbNZtM2TdO1HdVUKBQCt83rBvvoN5LJpGt74sTjXa/XA+Ol0ybztA+TBzKZTOD+inS2SSH6jap+gd9vDEr1O7VaLbB+5OlfLpcDv6NTrnge18GPc1D6+qWjOPG6mi/XmYahWz4Nw7Aty+Jft+0B0pOX4TATb+PtEfW5dcTRXqnynU7dTpplIYxaraaVV5yJ520vuvvjNfGyqEozv3yuylN2iLJBmm2XSLd+GKYuP846VhT1vorfiaq883V1plGo1WrSbyaTSb5KKPw6lV9fXVwvqnRWibOcAYQ1mpINMALNZjOwQedTJpPhm3F1qrw6TfaAF4N4w+KHbz/MhU+/E5kwOp2O66KDYRh2KpWyU6mUa5lfeule0FdNQZ0xnq46HSzbo/EX8Q676gKZCv+eqjFXpS0ddX6c9OXLSCMtxHULhYLndlSTTqdGXN8v3/POelAHWaTK606a8P3xi4Mu3Y6ZOOmUMXH9OI6FVx7ymjKZjLR+FGlnDxAPOko/FXEdv/jxtNTB63e/eoLHQ5UnvSadvOGHxzNo4m1ZXPnZ9iibQZNqEE5c7necdet2nma8PrcsyxWvoEk1aBU236nSyzTNfl2m6rcElX3VNuOsH8OK+vcHOXakeSEhqrqL579CoRBqu0Htui4ej3K5rF0fGIZhdzodu16vK/OlatI9vvyijPN7Tp5VxZEPaHG8btAdkCYh3uVy2bXMa+J1CsfTPmweGCa/DttvFL+XCtlfCyPs74hTqVSyOyFvAvFqLxw8vXTw4+z3G6q46tbVqjLhN/F+QBiqc2ixneJx8dpnvk9+VMfeyceqPM6noH5FHH1uHXG1VzzfhanbSaMO0KWqy3UmncEy1XH3yoN80mmXg9oIVR2v2t9h2y57jOpycYqjjrVj3Fdx3ajKu+p4+k3D1Lth8OOoOj8JQ1VPeRHXiSqdubjKGcCgvEsEwIThDXAymbRrtZpUgdZqNanxTylO8HmnStVpcojrqbalwk/s/YjriZNhGHapVOpf1Ox0OsrOn26c/PD4qhpm5/dN01Qud/COl7Mf/C5mZ1t8v1UnRQ4eT52Om60xUMbv4NFp8DvsSTSvThQfTMtkMsoL1fzYBl3QFrcpToZh2JVKpV8mLMtydbxII+3Edf3ymNiR4nkzl8vZ9XrdrtVqdqFQkNKVl8FcLqfsCNVqNTuVSnmmbxh8nyqVipTGTr5U7YcfcV1xiupYqMoU327J5wlOv+MXBo+7Ew8xDZvNpl0oFKS4qOjGj3fUdfC85Ze+4nriNMr61xF2u3x9fiwGzc+8PqSjepPX4fwCjiqdeRy96Nbt/Niq6nORmH/8fp8Lk+/4RfhkMqmMf71ed/VhvG7K4Ps5ivoxLDF+YdLWi2qfef+u2Wy68gppXGiJqu7icRQnpz/qUD1tYBwNUg3LLx6pVKqf/7zqLZ4PM5lMv3x3Op2B0rjZbErrO2nMWZbl6hf5XVxVxcWZcrlc/xg67SBfh++rWK+r4kJEUr7g/NLeNE1l28zXC6q3eJyi6jeK+ZHnCb/+Wlg834u/WTq6SGsf5Rm+r8SOGe/vqOpRM+BNEDw+OvhxVtXptmK9Yepqnleixo+/ap/E/qTX+ZhuevK0SSaTrvxpWZbreHr9rkNcV5x4XrEG7HPr4PsWVXvFtytOo2xjxHgbhmEXCgVXutXrdWX55cdYxNNDVV7q7CYO0zRd64h4mvHvVioVu16v2+Vy2c5kMq79iKvtskdUl/O4H0cda8e4rzzuXvEetLzzPHmc+HENirsOMa3Jp37l6eZMUaVznOUMYFDHW+IBIsIbslTAKwyaR69mUVWuvFPld9LKf1MHj6sfcT1nUp1MOJqKOwKDGqcg4sXOYU6O+QVWw+dEy8EHAfzSmKer7n6L3/E61rzTFqTC7opRNfY8Pbx+28E7EX7HQlzPmZI+d93wtPPbth0i3/NOHfmcgIvE467TAY+CaZqeHXcRPw5B+YHvP0V4LCx2N5hfmVJdcKCA46eL15lBJzado1erJD3untWNH89fOnhc/fIiTys6hvrXIW7TL00cceTnTqfj2j+vwRyHc1FNFQ/dfeJlwitN+bENqlPF/OP3+5xuvrMsS0qvoN/odDpSe+tV9x1H/RiWmD5B+63DqevEizxe+OCk38Vnnme88qrDr+7i23Imvzqc5yVVXyGssPHwWp88boyyQ6axzW5kMzQu1vILIV7HhNcNzuSVjl7r+/VLeFy80sT2SUvVBV8H7y/6pU+c/UaeF524eKXLoLx+x6vvolqffNpiXo+Sz8U/W7F9Hfw4e6VRlHU1z7tR4n1Jr/KjQzc9xXLll+f58QxqT8Tfdqao+ty6RtVe6cSZH49hjq3DGczQ2VaY+lO3v8TrNb960C/Ngo6NHWPbdRx1uVc9qFqfIqxj49xXHmcn3l7HKWx55+sfJ76fXvsYBj/2Xm0Z/22KOJ3jKmcAwzjeEg8QEbHB1qlg/fBOlV+DLq7n16kT8cbDj7geBTRKDr79oMYpiG5aBOEX6b0aY1GYzhjfb53t25r7J57sksbFYX4CqCKmh+4JNI+HF3Ed0sg3HXYBPCg+4rb98j3vgJHmSZr4Pb/tHxd+HLzypB3zseDx8DsBtY+2zcthFOnL46Fb9rzoxo/nLx28fveLq7geaRw7W1EPDVv/OnTTZBD8+HnlZ35B16u+1KW7TzxNvY4ZP7ZB8Ru0ntHNd/yuSp0TOZ7Gqn0dNN6jJO6D7uTVVg6C9wm98LyvSm9dPP+RRvnn3wlaXwffps52ebtAGm0175t54RfJgrZrKy7ce5VlXjcEbb/DnvangAuItiIufmVukLS3FXWK1z7E2W/kcfCLxzD47wSlP88/pNEW83rUK//Yivjo4MfZq96Isq7meT1KuvujQzc9xXVUN62Kwuy7uB5p5JUwfe646LZX/DiRRv3CvxO0ftR4/ek1EMjjGXSerVu2+HZJI084eN2jUx/y/fWqe0ZZlx93HRvnvoaNd9jyHqbuiRvf1yjwvOJV9/PfjjKdef6LspwBDONvCGDCNRoNsiyrH85ms5RIJKR1poFpmrS3txe4b88884wUrlarUjgswzD6n999911pma5Wq0UHBwf9cCqVopWVFWkdlUQiQT/5yU+keX/4wx+k8Cg8/fTTUvitt96SwqJ2u007Ozv9cDablZbT0Tpiely8eFFa7uXxxx+Xwo1GQwqr6OSbRCJBjzzySD8slqcoFQoFZXpwd9xxR//zhx9+SN1uV1p+3L72ta9J4Vu3bklhL1Efi7fffrv/2TAMOnv2rLScSyQStLe3R6Zp8kVD2dra6n82TVOrbE8anWNHMdS/o6Cbn1955RUp/OSTT0phkIntQC6Xo4WFBWm5ysMPPyyF//znP0thmoD6cVC9Xo/PGtji4mL/s99246y7MpkMbW5u8tmSlZUVqY/Vbrel5VHQicd3v/tdKazTVovtFPnEXewvmaYZuF0iooWFBUomk/2wbt+zXC77bj+RSFAqlZLm/cd//ActLS1J80QLCwtSm3l4eCgt96OT9kREzz33nBR+8803pTCNuN9ImnkgCleuXPFN/9OnT0thwzBoZ2fHty1+4IEHpPBnn30mhUdlUurq2267TQqr2p0otVotKfwP//APUph78MEHpbBuHtbpt4Xpc8dFt73idOqXUbQxfni/54svvpDCjk8//VQKnzx5UgpzDz30UP/z/v6+tMyPTv3hiKvtGnVdfpx17Cj3dVLK+6SLOp3jKmcAw8JAGUw83qHnjeu0WFxc9G2UHIlEQmo8er3eUCdnYkO3v79P+XxeWq7j/fffl8JnzpyRwn74hcOPPvpICo/CysqKdKHE7+L3O++8I4X5IBsp1rnrrruksJfbb79dCvMTCxXdfHP//fdL4WHyjJcf/vCHfJbSqVOn+p97vR6l0+lY4jMoftKuK8pj0W63pY4nv2jpJZFISCflw+InL5lMRgpPC91jF3X9Owq6+Vm8GJFMJl0XQOD/abVaUvnkg5FeeB77+OOPpTBNQP04KPFi3rDEi2he4q67eD3uRbzgFMdx1IkHrwMeffRRKazC8/SNGzeksEPsL4Vpe8Sy8OGHH0rLvNx33318lgvPG/wioYoYb78LPpxO2pPiorDqN0bZb6QQ/bVh+V3AdYiDmw888EBg28OXj3pwwDEpdfXS0pJU/66vr/ue5wyL34zD82hUdPttvJyO+hjxOkkXj7eXuNuYIPzmBJUvv/xSCusct0Ho3rREMbZdo67Lj7OOHeW+Tkp5n3RRp3Nc5QxgWBgog4nH72L5H//jf0jhWcSfGPnLX/4ihcO4cOGCFN7a2qLFxUXa3t72bPQ4fvfgvffeK4X98M7YcTWG4kW0Xq9Hu7u70nLHb3/72/5nrzvU+QnBxYsXKZ1OB04/+MEPpO/x7URpmDzjRadjRUdPqoh5+ODggO655x4qFouenfFppjoW/KIk75COyueffy6F/+7v/k4Kz6Io699xwcvd8vKyFAYZvxD42muvuepzr0mkuvt60urHVCpF9n+/6t13unnzJv9qrMax7hLvvJ4W4hMSh4eHrvzuNYl9vTBPWUyiRCIhDVSo8gHv78Xdb9Ttr4G3Saqrf/azn0nhtbU1SqfTsQyY8fMifsMr98c//lEK8+9HbRr6bF5Udcs44Ddr8BtZuNdee63/WWcgzvGVr3yFz/IUV9vF6+C46/LjxOM4jvs6zeV9nHilc1zlDGBYGCiDicdPNvjAyiyK8qL50tISVSoVaZ5lWXTu3Dm68847KZvNBnZo+THSubtJxJ/QOA78lWqvvvqqFCbFKwa87lDnj4jv7+9rTeN6ghO1RCJBb7zxhnThqNfr0eXLl8k0TVpeXo7l5N3R7XZpd3eXNjY2KJ/PuzpnvAM/DsKc/EXp+vXrUlj3bsFpFmX9G4Uo8jMfmOVPk4CMX/g7ODhw1edeU5Djrh/HQbvdpmq1ShsbG5TNZl15+uWXX+ZfcUHdFT/eN7Qsy5Xfvabj6usdF/4qKw79xskzSXX12bNnKZfLSfP29/dpbW2N5ufnKZ/Pu87lhiGe17388sueN152u13pNcbi9yZFFO3VOGu1WrS9vU0bGxuufUuzC9pe+A20//7v/y6FRfzvHL7xjW9Iy6MQZ9s1S3X5LO0rhBdnOQMYFgbKACBQNpulZrOpvGtrZ2eHVldXKZ1Ou54ci8o43NnK34e8s7PjOrHjrxjgg2tRMgxDeTymxdLSEl27ds114k5HF53X1tZocXHR88m+QbTbbcrn83TnnXfSY489Ruvr67S1teXqnI1DB55fiNd55RTMlknKz6Dm9Zri46gfx0Gj0aB0Ok2madLa2hqtr6/Tzs6OK0+rXl0Hk0uVzyG8ae83jqNJqqs3NzepVqu5norv9Xq0tbVFpmlSPp93nfsM4le/+lX/s2VZlE6nXQNx7Xab0um0VJ//6Ec/ktYZZ9PeXlWrVVpcXKQTJ07QuXPnaH193bVv+5oXtBOJBJVKpX54Z2dHmdcajYb0SlOK+Vx7WKpyH4VZqstnaV/98HqZDzINYp/dnBf307pxiaucwWzDQBkAaFlaWqK9vT2yLIsKhYLr/0T29/fp1KlTkTTc4+rZZ5+VwnxgTHztYpj/8Ol0Oq7XUAVNN2/eDP1k3qRJJBK0ublJnU6HyuWyq5NoWRY99thjtL29Lc0fRLVapWQySVtbW3zRWLr77rulMB84g9k2afl52tVqNVcdrjP5/an1KOvHcVAsFml1ddV1Yg+To1AouPK4zrS5uck3NfPQb5wck1RXnz59mg4PD6lerysvPm5tbdHJkyddAxhhraysuF436jxll06naXl5mUzTlG7kyeVyvm3iOJnm9qrb7VI6naa1tbVIB/n4YMjW1hbdeeed/SfTFhcXaXV1VRp4q1Qq2ufaw4iz7ZqlunyW9jVq/P+7+OvDw+I3t4/D07pxljOAsDBQBlOH35E2iz7++GM+KzILCwt06dIlunnzJlUqFemEr9fr0be+9a3AEyjeOAcRTzSOsyF/+OGHpfCbb77Z/8xfu8gH1UT8NRFe722G/5ZIJOjs2bP9k3d+MnXu3LmhBmhbrRatra1JJ1+ZTIZqtRpZluXqkNXrden7x2FcXxM2bMd9GsRZ/+oYRX7m/w0Ksq9//etS+JNPPpHCUYq7fhwH29vbdPnyZWleoVCger2uvPAi3pmuC3VX9PjrtD766CMpDP9P0OvJ0G+cfJNUV6+srPQH90qlkjSoZVkWfe9735PWD6tYLCqfNHJeU8yfdC8UChNzMXQU7dVx+pd/+RfpvNwwDCqXy1Sv1137Ztu2K5978TpvVj15ZxgGVSqV2AZO42y7Zqkun6V9jdtDDz0khcVrUIPgg/iPPPKIFB6FOMsZwLAwUAYTjzcc//f//l8pPIv4HV5xPUqdzWbpgw8+kP6Lq9fruZ604scoTEeJD3zyOzFHaWFhQdpX8fWLfJ/5oJqI/58ULtDpW1lZob29PdeJ5e9//3spHAb/E/NKpULVapVOnz49kjsVB3HbbbdJ4eManOF/wP2f//mfUngWjar+9RJHfub7cPXqVSkMsttvv10Kj2pgMY76cRxcuHCh/9kwDGo2m3Tp0iVaWVkZ+NXMqLvix4/N4eGhFIb/1u12pUED1YVl9Buny6TU1YlEgs6fP99/4suxv7/vOj/T1W63pYEky7KoXC678n0ymaRCoUCWZdGlS5ekZeMsjvZqXLRaLdd/xl27do3Onj3r6ieGUa1W+4OjpmlSp9OhQqHgujk2lUpRuVyma9euxTZIRjG3XbNUl8/SvsaN1487OzsD18Hdbtf134hPPfWUFB6FOMsZwLAwUAYTj7+C7E9/+pMUjpN4h51u5T7oBe3Dw8PAJ7VI8WQT72RGLZFIuO6cu379uhTmd9e/9957UtjP66+/LoWfeOIJKewYpDMW9sk2Uvy+M0AmvnYxk8n4XpDmF+jCpAf8t/Pnz0sn7YN2FomI3n777f7nZDIZ68lXVPhrKMR98NNutwPvXA/jq1/9qhTWjUcU7rjjDimskwc+/fRTPkvLuNa/KnHlZ7G8HRwcaKXHpIh6X/gFo1GWC4q4fjxurVZLGkTI5XKu+m8Qx1l3zRLx4o5lWROdF8PS7e/zG634XfiEfmNsRtmPUBm0ro66zQqysLBAFy9elObduHFDCusSz+tSqRQtLCzQ2bNnaW9vT3oS6erVq3Tp0iXf86lxE1d7NS7ef/99KfzTn/7UdbF7EK+88kr/8z//8z9TIpGgS5cu0dWrV6U8sbe3R2fPno3kN4PE1XbNUl0+bfs66npXtLS05LpZ/F//f/bu78WR684b/6f33k6qlavETwhdMqxxoIe42rM43YExOFLawcSsjdSJLww2mZESDMkm0x61zRLsmUTa7AYC7laHGILJRuqNwxO+RL3dGfBA1GtiTztI4OCAp0QwWV9Jlu35A+p7EZWecz51quqUVKUfrfcLCnSkUqnq/K5zqko//rEU1vXyyy9LF3ValjW1eiqpcgYwLkyUwdzjd+7s7e1pNWQ7OztjDyDef//9w9c6lXuxWJSuxIrCHvzZcdix8Ubz8ccfl8JJ4JNU3Pnz56VJxb29Pa1Jql6vRz/60Y+GYcMwPOntuvfee6VwWGes3W57/hBYB//93/72t57BcT6ZxvFn8+vGB8j4/+SNSjyp1Tn5+vjjj/lbU8Hv5KzX69LnXK/Xo1wup3zczahWVlakyaDT01OtRwe5fwI+ji984QtSOGwCsF6v06VLl/jbWma5/uWSys9ifqPBiVaYdrtN6XR65us3/pinOIjxZdv2xP9/Jq76cdpu374thcP6G0REH330EX/LY5p11yJ59NFHpXCpVJLCZ9nBwQEVi0X+tsdzzz0nhb/yla9IYUK/MTGT7Ef4GaWujvJkjrjwO6XBK6n2albwfdXJE2H95lmVVNu1SHX5WTvWadS7In6xwt7eXui5P1ev12l7e1t67yc/+YkUnqSkyhnAuDBRBnMvlUpJfzjc7/fpW9/6lrSOqNfrUbFYpGvXrtGHH37IP45Et3J3f3Nvb49/FMnp6WngYG29Xvf8xmOPPSaFo3AHhMIGj/hdX/wOMp5GNHgWud9xkPBnweKg77PPPus78BulM3ZyckIXLlwYacKAH8vBwYE0YBw0mSd69tlnpfDTTz8dOtFKg33PZrO0s7PDPzoTOp0OLS8vhw4qt9ttaXBbdQW2LvEKrTfffDMwXx4eHtITTzzB354KPiFbLBZ9973dblM2m01kQuBf/uVfpPCTTz7pux80+P+GOP4EnD+G4rnnnvP9Xfc3xzHp+ndUSeXnp556Sgpvb2/71rEk1LO2bXsGj2YBv0o9rJ2L6tvf/rYUvnLlitZvdDodKhaLtLa2xj+KvX6s1+u0vLxMS0tLlE6n6fDwkK8ydfzOr9dee00Kc5VKxXOXu59p1V2L5LHHHpP6ZgcHB6H5lwZ9wEqlQsvLy4FpMuv29vYCJ8uKxaKUn0zT9NyR6kK/MX5J9SPirqv501Nef/11KTyOYrFI2Ww2NC+98sorUpj/v4wucfLo+PiYKpWKb5zPmyTbq1kQJR/2ej3K5/Na5x3inZ0/+tGPIg/+JyHJtmuR6vJ5PtYo+V3kjmEtLS3R0tLS2Bfmu/L5vKfN2traop2dHd+85ur1erSzs+NpwwqFgm+fYxKSLGcAY3EAzgDbth3DMBwiGi6WZTmNRsPpdruO4zhOt9t1arWaY5rmcJ1MJsM35TSbTWk75XKZrzJk27a0LhE5uVzOabVajuPzm3w/g4jrid8zDMOp1WrDY7Nt2ymXy559Cdp3HeI2M5mMU6vVHNu2h5+3Wi3P7xqGIW3D1e12PcduGIZTrValbdq27YkzGqSne7x+CoWCZ/tiPLVaLeU67mvd+Go0GtI2xKVQKPDVlbrdrucYDcNwyuWy02w2pXVbrZZTrVYdy7KG66ryrkvcZtB6Ip6OfB9EutvPZDLSujrE8meaplOtVoflyRHyB89L4jpR8TyRy+WkPOkMfpev5y5xxJUoSlqIeYIGcVar1Yafu3UDrz+i7lMYvh9u2RPjsdFoaOUJ8fOw/eNlyK33Xfw3eb4JiltxPR5/k6h/ReJ2w+KE59M483OpVPKsXy6XpfKnqmdV2xQ/DzomHreqbTkR227HcZxqtSqtb1nW8Djcekb1Wzp52JXL5aR1adBGNJtNqT1zf4+vz8VdP/LyE5QOUcS9Tb6f5XLZ0x9oNpuetHGXIHHVXVHznytsu1GNsh/8O6p8z+mWS0dR1miQLxqNhhTP3W7XaTQaTqFQkPKw37aj7IOLf0eHbhrxeBSPgbdNrVbLU97DjiHJfqPuMY5rlN8RvxN0DCLxN8K+w+OUpxUv/7x+5XHvJFBXt1otaT3DMIb76JYbse8XhXhshUJBOnd2BsfC82oul5O24dJJX9X5IF8sy3IymcxwKZfLUpr4EbcRlu4uXieo0jMKnp/iaq94/aJTtzuaaaLLZuMebnvJqc7jKSBN+LGpFjE/5HI5T99ThW9XN85cSbVds1aXi98J2raIx4mfJI9Vdx9EUcr7qPVurVaTvhf2O1H41Z+GYTiFQsGpVqtOs9kcLtVq1ZMv3cWyLL55JfE7ScRzUuUMYBx6tSfAHFA1SmGLqtMdtVPFG4KgxT35Et8LIq7XaDQ8AzpBi27jFySuOHW1Wi1lQx22WBqTZE5A58FvqdVqUucwLK1Ffr8TdPzcqPFBRE61WuWbGxLXS6JDo7v9UTrr/CRMZymVSnwzkdiKiXYSTtR5uTMMQ+r0xxFXoihpETUPFQoFafu6+xQm6n5QQLqJ64TtH6+vgxbDMDwnPUFxK643jfpXJG47LE6SzM/dbtfz/bDFLy7EdYKOSbc88LwQVp/rtBeqwcAo9doo8RX023HXj3zdoHSIgm83yqI6bt5vcpfMYNCMD8LwOA8SV90VNf+5ouQnHaPsB/+OXxkT6ZZLF588110Mn4uvnBH2wVF8R4duGvF4jJq3VPmKi7pNcQnqN+oe47hG+R3xO7p1lPgbYd/h6Ra06PYj4q6rHUXc8SWorASJWjYNw/BcfOPi++in1Wp56mmdxTTNwMkRcd2wdHfxOkGVnlEk1V7xfKpTtzsR0kSX6oIpwzCGx8frJ/H4gtKk0Wh4vquzZDIZ3zGCUeNMFLV8uEtYeZylujzpOjapY42yD66o5Z3HJ19U6cx/Q+d3orBt21NvRF0Kmhd2OxOK56TKGcCo8OhFODPy+Tw1Gg2tZ72bpknNZpM2Nzf5R5FdvnzZ95GLolKpREdHR1rP81a588476ejoyPMIQ5VCoUBHR0f87cjy+bzWsdHgkYONRiMwTldXV+n09NRz23gQN978HrkoSqVSdOPGDc+fnXJu+o9zK7wqHUzTDDx+bnV1ld59913Pf/8EMU2TarUaXbx4kX90JqysrFCtVtMqx0RE5XKZrl69yt+OZGVlRZlvTk9P6fj4WHpsSCaToXfffXdm/qNmdXVVue+cWz53d3f5R7Fw90P8zx8/hmFQtVodO91o8MhVnfySyWTo9PR05D8rnkb9O6ok83MqlaKjoyPtOsutv2dRKpUKLQ88DqNKpVJ08+ZNKpfL/CNfhmFQuVyml156iX8Ue/047vElQfVI7M3NTeVxHx8f0/HxsfToulKpRDdv3pTWCzKtumvR7O7uavfRXYVCQeuxXbPK7fPq5C3dfIV+Y/yS6EfEXVfTYJ2g7Y1an7/wwgva52WWZdGNGzc8jy6O6p133hmpbNu2TRcuXAh87PO0JdlezYKrV696xgb6/f7w+Ny/NTAMg2q1mvb/H/3ud78b6S8Rjo+PAx+LPq6k2q5Fqsvn+VhHqXf5IxvjtrKyMjy3CNo3lUwmQ81mM/T8Z9KSKmcAI+MzZwDzrjt43GEul5OuXjFN08nlcspbpEW2bUtXe4Wt72o2m06hUJC+a5qmUygUpCvvxKtqTNOUtsG5V4u4VzC6moPHYPDjcx/pFDd78GgxflWNGKd+V3P5aTabTqlU8mzTvSqtyh7JGEW323Wq1apn25nB4yNF4hUs/LMgPJ9QyFVPYVqt1jA++FVXmUzGKZVK2nericete8WQePegaZqBca+7ffFqorC8zrlpyPN5HPnDj5hvwsqW+xgaXjY53bgSRUkLV1Cer1arUvkUr3bV3aco3MciiOVDTLewumKUOLNt2ymVStIVdoZhOLlczlMnuvsVlnazUv867PFwYVedu5LIzyK3zuJXNbr1VVi+1U1n8SrjoP3jdbJufd4aPCpS1Xar8uqo9Zpt28P04G2HZVlOoVDQbkvjqh9rwqO/TNOMLf+K7WrURXVHmcst57yesyzLk+fE49I1Tt01av4T4yqjeaVukFH2Q+yXBpUxkdiOGAF3mHBiH53XHeagT6mbf3XrBhFvX3WId1D43SHrsLt5+bb5EwzcbfF8G0Wc/cZR67WoRvkdsYwEtRWiUdrMJPoRcdXVrm6367uPQfuhwz0v4+XSbZ908pJO+jbZXT6WZXnioNVqOU3h0WG8zfSrK3X7FSJeJ/B9GVXc7dUodbuTQBvjag7GPXh+4e1lS7gD0y9N+N0nqv6Xmx/cfMrrPNXdYqPGmUqcbRc37bp8UnWsE/OxTqq8R613u93uSPs2Krfvyusa9xgzg8fXqvZVxyjHMko8OwmXM4Aolpy/304JAAAAAAAAAAAQu3Q6PbyryjRNeuONN0KfGtLr9SibzUp3D3S73dDvwezrdDrSXTm5XI7q9bq0jkq73aYLFy4M70KzLGvu7s4DAIDZhEcvAgAAAAAAAABAItrttvTowRdffFFrsiuVStHjjz8uvffOO+9IYZhP169fl8LXrl2Twn5WV1fp/vvvH4bxCDYAAIgLJsoAAAAAAAAAACARt2/flsJ33XWXFA7y0UcfSeF77rlHCsN84uka5f/vxP8l0/kvSAAAAB2YKAMAAAAAAAAAgIl4/fXX+VtK7Xab9vb2hmHLsrTuRIP5c3Jywt9Sqtfr0l1kX/7yl6XPAQAARoWJMgAAAAAAAAAASMQ999xDhmEMw9vb21SpVKjT6UjruXq9HtXrdem/qIiIfvKTn0jrwfx64IEHpPAjjzxC9XpdultM1Ol0qFKp0NbW1vA9wzDou9/9rrQeAADAqJYcx3H4mwAAAAAAAAAAAHGo1+vSJIfLMAzpP6du3bol/Z+Zq1arUT6f52/DHCsWi9Idgy7TNCmdTg/Db775pjRhSoN8c+PGDVpdXZXeBwAAGBUmygAAAAAAAAAAIFGHh4f0zDPPKCfC/JimST/96U9pc3OTfwRnQKVSoR/96EeeibAgmUyGyuUyJskAACBWmCgDAAAAAAAAAICJODw8pN/97nfU6XTo+PhY+sy9w+y+++6jL37xi5ggWwC9Xo+uX79Ov/3tb8m2bek/yEi4w+zBBx+kTCaDCTIAAEgEJsoAAAAAAAAAAAAAAABgIf0DfwMAAAAAAAAAAAAAAABgEWCiDAAAAAAAAAAAAAAAABYSJsoAAAAAAAAAAAAAAABgIWGiDAAAAAAAAAAAAAAAABYSJsoAAAAAAAAAAAAAAABgIWGiDAAAAAAAAAAAAAAAABYSJsoAAAAAAAAAAAAAAABgIWGiDAAAAAAAAAAAAAAAABYSJsoAAAAAAAAAAAAAAABgIWGiDAAAAAAAAAAAAAAAABYSJsoAAAAAAAAAAAAAAABgIWGiDAAAAAAAAAAAAAAAABYSJsoAAAAAAAAAAAAAAABgIWGiDAAAAAAAAAAAAAAAABYSJsoAAABGkM1maWlpiZaWlmhnZ4d/DGdcOp0epn+9Xucfz7R6vS7l36WlJcpms7S/v89XBZgbqJMBFhPK/uw6PDyk5eVlWlpaouXlZWq323yVieh0OlK/7fDwkK8yFZ1Oh4rForRv6XSaisXi1OIqaWJ5LRaL/GMAAICpwkQZAADACI6Pj4ev33rrLekzOPts2x6+fu+996TPZlWv16NsNktbW1tS/qVBfr506RJ1Oh3pfYB5gToZYDGh7M+ut99+m/r9PhER9ft9un37Nl9lIt5//32p3/b2229Ln09DvV4ny7Job29P2jfbtmlvb2/uLl5qt9t0cnIS2o8Uy2vYuicnJ3RyckK9Xo9/FJtOp0MnJydndmISAACiwUQZAAAAwAL4j//4D88EGff+++/ztwAAAAAgJu6dZO4kokrYJNIs2dnZoXPnztHGxgaZphnLHXtra2u0sbFBGxsbdPfddycSH4eHh2SaJm1sbNC5c+dwRyoAAGCiDAAAAOCs6/V6dO3atWHYMAxqNBrkOA45jkPNZpNKpRKtr69L3wMAAIDF0uv1qF6vUz6fp7W1NelRzWtra1QsFufusdOz5OWXX5YmyQqFAtm2TY7jkG3bVKvV6JlnnpG+M8v4nZyvvPKKFB7F6enp8HW/36fr169Ln8eB31m4t7cnhQEAYPFgogwAAADgjOMDDLu7u7S5uTkMr6+v09WrV6V1AAAAYHH0ej2qVCp0991309bWFh0cHEgTFjSYwNjb26OtrS1aXl6mSqUifQ7hDg4Ohq9N06Td3V1aWVkhIqKVlRXK5/NSH23eLC8v87fG9olPfIK/Fbsk9hsAAOYLJsoAAOZIsVjEHyADQGT8f9Tuv/9+KQwwK9Lp9LCdwx0LAACT0W636fz587S9vR34SEBRv9+n7e1tymazif6P1Fkj/ifZl7/8ZemzefTkk0+SYRhEg4m/ixcv8lUiK5VKw9eZTIYeeugh6XNRu92m5eVlWlpaouXlZe3/G8tkMmSaJtHgSQsvvvgiXwUAIhq1PALMCkyUAQDMEfH57Ek8qx0AzqY//elPUti9chlg1ogDiHyCFwAA4tdut+nChQtS/UuDSY9yuUzNZnO4VKtVyuVy0nrHx8f08ssvS++BGh80/tznPieF51E+n6cPPviAHMehW7du0erqKl8lsqtXrw4fD350dESpVIqvMnT79u3h5G6/36fbt2/zVZRWV1fp1q1b5DgOffDBB5TP5/kqABDRqOURYFZgogwAAADgjPvwww/5WwAAALDger0eXbhwQbqLzP0f01u3btHly5dpfX19uFy8eJHq9TrZtk2FQmH4nddee234Gvxh0BgAAGB2YaIMAAAAAAAAAGDBfOtb3/JMkt24cSP0P7JWVlZod3eXGo0GGYZB9913H18FAAAAYK5gogwAAAAAAAAAYIGcnJzQwcGB9N7/9//9f5Eenbe5uUmnp6f03e9+l38EAAAAMFcwUQZnzuHhIRWLRcpms8M/g3f/SDKbzdL+/v5IfzZcr9cpn89LfzIftqiec314eDj8fG1tbfh+u92mfD4//OPLdDpNxWJR+i7X6/WG++V+L45jpcH/X+3v73viMZ1OUz6fp3q9zr/ia21tbfj9w8PD4fudToeKxaIUp+5x+/3/1snJCRWLRel419bWqFKpjHys7XabdnZ2pP10t1ssFunk5IR/RanT6Uh/XCoeg7vfUY6VBtsU9+n4+Hj42fHxsfSZu+zv70vbGIe7335xI6anHzGf8u3EnZ94Oi4vL1M+n9dOwzj0ej3a39/3HGs2m410nKIky7qfsPzM9yWsHLr7H0ecuGU2m81K++Buc2dnJ7BcBVHFc9ixRRFXfROm1+tJxyDWHUQk/fbSII2DdDodqlQqgXHO/3cjiF85rlQq0mfZbHasOPH7nVlpf05OToZ5maeHW7b99kfF73hHiddJ5dV6vS5tX7S9vS195i5R8lqv1/Mc/zhtg9g/4n3CqHETVs9GzaNxqtfryvZfbLd1871f35cSqnMnlXdFOzs7w9/Z2dkZvj9K/nP7M3GmfZxx4lfPzEq96kqiP0bCuSYv/1H7H37lYpRzwlH96le/ksKFQoHW19el93SsrKwE/odUmHa7LeUBnfMLIqJisTj8zqhxpCpvYWU0qkqlMtz2xsaG9JmqnfM7l0uy/+uWRV5e3DoiKE0ODw+ltixKG+1HjLN0Os0/ltKex+nGxoYnTlX93E6nI6V7lHohzjrVdXh4SHnFeNO4aesnzvwUZ302jfNebpzywHViPocS84fY3wgi9rVV5Unk18bzvox4LhFHeRRNuiwASByAM6JcLjuGYThEFLoYhuHUajW+CaVWq+VYluXZhu7Clctlz+e1Ws1335vNJt+E44R8R1wMw3Cq1Sr/eqBSqeTZjmoxTdN3/0Tid8rlsuMo4kG1iGnU7XZD98swDKfVagm/HKzb7TqZTMazHdWSyWQc27b5JiTNZlP6TrPZdLrdrpPL5Tzb44tffuTb1FkymQzfTGRR4sayLGW8d7tdp1AoeNb3W0zTVG6HE78TJT8VCgW+qbGI23bjXKdc+sWXH51t0ohlPQjPe7r5mZdD27ZD85JlWU6325V+X6XRaDimaXq+77eUSiW+CV+tVit022LbIb7v5sMgUcqUTn0ThqefzqIStRzr7rv4nXK5HBg/49Rp/Hcczfoi6fan1Wr5Hq9qKZVKWmVE/M6o8Rr0Hb7opncQnfTgi6rM8f1yNOtP3bYhapplMpnQNOPlVLeepYB+w7ii1LO67Q5PY0ezfx21XE0674rE33XzX6PRiJz/qtVq6HeipH0ScSJ+ZxbqVfE7Ucp+1P6YTj/BXXTqbB5nTsh+65xzRdHtdj2/ESU+dPBj9DsGXheq6ngVVblT8dt+WB4kIieXy4WmZRjdMugu/Pij1MsUsf8bpY7wKzO66ez4lFcVvk8c/1xn4fvlly+CRIkv3To1yjYbjQb/emRJ5CeeB5wR67Og74iLbv8jqihp4VceXN0JnEMFlSGRKn38iOvpnkv4fR60qPJA0G/xJY6yAKASXEIA5kSUBihK5WrbtqehNgzDyWQyTiaT8XzGl1wuxzfpaaQajYbne+KiakBUx2uaZuB+8RNxlW63qxy0sCxruG3+GWmcsIvrlkol3+2olmaz6di2rdwv1WIYhtbJTKvVUsaTe5yq3ws7Yeed7Wq1GqkTqopH27Y964Ut43Ya/eImaFHl9SjH7i6GYYR2EMX1o+YnnXKgS9xuJpNRlku/Rec4nQTLuo5x8rNbDpvNpnIfVYvb0fZTq9U839FZdE7uouZ5Xo+HnVj7bX+c+iZMt9tV/qbfYhgG30SkQUG+rbB9F9cvl8vKOHCXsLwRRNxO1PoiqfZHdxCALzoTyuL6o8TrNPLqKGVb9Xvi51Hr5LB6c5S2mAZpFmScepZ8+g3j0Bk0Vi1h8cfrzChlQDd/TSPvisS6JZPJRIpLdyAqSp5VnR9wScWJuP4s1Kvi+lHLvqHZH1PVU4ZwTqgqt2F1Ni8Xo5wTjoP/Xlh9NQp+jH7HwOvCsH6Vi5c7P3z7pVJJOw9SDHHD4yFsEc/lVHlPZ0mi/0s+53z8+PzS2VGUVz+8XuGilHPy6efyfBGW7/zia5w6VTX+ItYt/LOwfQyTVH7ieYDXL3xR5RFVmk7qvNcJSN+gRVUenAmeQwWVIRFPnyDierrnEqq0C1pU5XHSZQHAT3AJAZgTYkfKNE2nWq1KDUy323UajYancjVNU9oOxztoqgmIarUqrePXWLp4IyU2xplMxmk0Gk6z2XTK5bKTUVyNzH/PsixlR6PZbHqON2xikF/BnMvllCePfIAj7CRT3Ka4mKYpDfL4pZH4W5ZlScfB94U0OkzdbtfTcXEHKfh6PL2CTpR4Z5t/T9zvluLKdENjMED8jm7HKCqeBu6+i/vWaDSkDpFqX8RtZDIZp1arSfnEtu2R0k9cV1yMwd0+7n7atq0cqFKVl1Hw7Yr7US6Xh8fa7XaVx6mKM1GSZV1HUH7OZDLDffE7Pr5PuVxuWC+ryhaFDPqK6xuG4ZRKJU98NJtNTz1GRIH1k6OY1FWV16ATgKCOelL1TVS8vgmjOllx62wxPlutllNW3NFtmqbnGEXiurw9KZfLTrPZdGq1mlMoFJRtry7xd/j+TaP9UZ2Eu22/GF/NZlOZ58L6GOK6UeN1VvIq/31d4vfEJY62gdeHhULBk2ZuWeDbDarX+HbFhee3UfsNumqKwbNCoSDFS3fQn+b7QT59ZJcqXtxFbBscnyvdw9rLWci7qjghoey5+9JqtZTtlFj/8DzbVLTzYecwScYJ33dxn6ZRr/L9cBc37sftj7VaLc92VeXatm1P2gYNLvN4F/dL55xwXPz3g/Z1VPw3/OpZXhfq1v2650V8++Li5luxjeD7HWWfwvB9CduuuC9GzP1fXj7d8ijmNZ1zPh5ffP9E4nqqbbl4nRqEx2nQ74v494LSIqk6la+rakvdusscjHONI6n8xI8jan027fNeJ8by0J3gOZTq91V4+gQR14t6LuEoypUqHVX4Pqq2HWdZAPATXEIA5kShUPBtTEWqDo7fFRv8pCio48Qb9qD94A1AUEPA2ewOt7CGkR9v0El1g131E3S8jiJ+gk5i+bHSoOOh6gB0A+6CKBQKyu/wfTEUV6iI+ABZUHo5ivRVnRw7ik6BuN9++EmA37ZduieEo+L5U9WRFbUGj05SnVybpuk72SqKmn48fikgPzmKYwpKjyj4Prj74Xe8qgFyv7yXZFnXFTU/+61PAfUbL1tBkwDu4FZYGXEUk/5+v+8oBoeD8lLT5w65oPoyqfomKl7XhOH7HRQvjs9JYVC8iOuJv+FXfkbFfyPoWCbR/vA48itPrij1hhNwvDrxytM86HecBPOquM2gPMTx43aPXZVuTsS2wR7cUVZWDIpxPF6C6jW/ejNoX3hZjiPeeZujs11edxoBk3Y8rsN+Q1UWg/LwLORdni40iBO/8wzV+hRQXnk7TwHnME7CccL32d1vVfqr0tJd4qpX+Xbd/VHFozNCvSrW20H53MX7IH774VcugvosceJ5MInf5cfoF8+8LtSt+3XPi/j23cUvDzoR67go+L6EHWtS/V+eNuOc8/Ft+aWzE2GQn+fPIDxOg35fxL8XlBZJ1alivR7U9sdlUvlJ5zsu3gcJyheOoj2M47yX7/845YHnFb/20dUd4xwqLK5c/PiCiOuJx+DXlnG8XIWVFdekywKAn+ASAnAG8U6vX+PNG5Ogxs2JMLDDtxulIeCNrk5jxY/Xr6ESG2fdzkaBXe3uhx9vWGeBHydpxBHfF7/j7LLn8Ydt1yU23H4dEt4p0Nk+/07Y+ronhKMSjzOuE0IdPP2CBn94HIflJz5Io5u/w0TdD0dR/v3Sm5eBOMu6Lp43g/bXxTv5FHBi6OIDf3FwB7XdJWigmv9+UN5zfAbY/Or8JOubqKIMOPD91q0Logxuiuu564bF/Sj474SVU172SCPdeP3lV/b4BSm6acsHW4LyM9933XjlaR52zK4k8qq4H35lS4Ufe1haJ9U2OIq21M8o9Sz/Ttj6Oni+14133UE03vaRRtvAv+O3/qzkXV7HhpU9Xh+QRp7l7bxfOiUdJ1H3m+cvnX3SrVedEfbHUeQvv/3h6eSXD0W8D+KXTnwfgvYjCTzPBsXxqPgx+v0Gr9f84ozTPS/i29eNax5HOukfhu+L7rHq4HkvqL/A26mwMhNEN52dCIP8PO6D8DgN+n0R/55fWiRZp+r8/rREyU88D0SJJ95GTOO8N67ywPOK7rZGPYfyy1ccT58g4nruvgT1ZzhernTTRvzOrJUFWCz/QAAL5q677pLCH330kRR2/elPfxq+tiyLUqmU9DmXyWSGr1977TXpsyCWZdHu7i5/W+ng4GD4ulAo0MrKivS5ykMPPSSFX3/9dSlMRNTpdOj09HQYfvHFF6XP/Xz1q1+VwicnJ1JYxTRNOjo6CozPr3zlK1JYJ46+9KUvSeG//e1vUth1/fp1Kfy9731PCvvJ5XLD18fHx9JnfnK5XOh+r6+vk2EYw3Cn05E+n6STkxOybXsYzufzgekUp8997nNS+Pbt21LYj05+SqVS9OUvf3kYFo8xLjr7QUT01FNPSeF6vS6FXUmV9XHo5OfHH39cCpdKJcrn89J7nJg2FFMZ4PH14YcfSmFXp9OR8kMul6PV1VVpHW51dZVu3LjB31aaZH0Tp1dffVUKP/vss6F5mwZxI+57v9+nw8NDaR0/v/zlL0Pjflw65TTJ9ueVV16Rws8995wU9nPx4kWpnTg4OKBeryet40c3Xuc1r/rRSesk24Z0Oj183e/3pc+C6NSzSfQb9vb2hq8Nw/C0VX6uXLkihX/+859LYT/VajW0bRD71URE7733nhR2zWrevXHjRmDZ29zclMKGYdDBwUFgnr3//vul8F//+lcp7JpknOiUtSTrVU5nfyhCf+x3v/vd8LVpmqH5lgZ9EMuyhmHd80KdeIF46NS1RETPPPOMFP7tb38rhWeNbv93mud88yjJOlVsz3XriknRzU8qUeqzaZ/3xlkepnEOlTTdc4lxzXJZgMWCiTJYOOvr6/wtJbEjoNO4jeoHP/gBf0up3W5LDTifWPDD912cAHTxzh+fTPRz5513SuE///nPUlglnU579onjacQH31X4PvsNqPATHJ2OGBHRJz7xCSncbrelsMoXvvAF/paSOPChO/iZBN7B5BOhSXrggQf4W1p08hMp0iLueNbdj1QqJQ2e9Pt9z74kWdbHweNQhacjHxxT4cf3/vvvS+FR8UFWlTfffFMKX7hwQQr70T1ZmGR9Eyc+EfjYY49J4SBf+9rXpPDbb78thVUsy/IMGidBp5wm2f78/ve/H742TdPzW0H44Ow777wjhVWixOu85lU/OmlNinqN18ejevDBB/lbWvj++Imz39But6XJvCgDRKurq2Sa5jAsXnQV5N577+VvefB61u/CtlnNu3z/VcR26v777w/dd/653yTpJONEp6zxui7OepXT2R/S7I8Rm0ATJ8DDiPvA+xp+dM8JYXy6de358+elcJwXVCRFp/87zXO+eZRknSpesHN8fEzFYlH6fNp08pOKbn02C+e9cZaHSZ9DJS3KucS4Zr0swOLARBmAD3GQw+8KIFev15PWiTJAwieb/PA7bH79619TNpvVWkSqK4H44MOLL77o2YZq+c53viN9j29nFonHbxiG55j8lp/97GfSdnh6xEV3kCkJ/Mrkf/zHf5TCZ4nOIHNSxEFFUuwLz1txlnWQ8YE3ncHbKGa9vvEj1kOGYWgPCJBicFPnxJWf7J5FnU5HmowQB2h18IEDnQtTosTrvObVuPH6eB6M22/gx6wzwSPikweqgcA4vPXWW/wtIuRdJcSJnrD+GLE7Qm/duuWJM79FnBzTvatU95wQJieVSkl3OYxb386KRTrni0OSdSq/M3tvb4/S6TTt7+8rJ+/nhW59xuNkGue9cZaHSZ9DJS3KucS4zmpZgPmDiTI4k05OTqhSqdDOzo6nQeWNqp/Pf/7zUnh/f18Ki/gt1vy7ceBXupyentLx8bHWEobf2sy/77fM48mCGB/9ft9zTH7LPFxBOC5+ZXKUjl2YXq9Hh4eHVKlUqFgsesokn3Q9y8KuYk2yrJ8l7Xab9vf3qVKpePJTlg1S6brjjjv4W2MR02Se6hvx9/mjvsLcc889UnicE9ezhN8pGVYPcLxfEfeFKfOaV6el0+lQvV6nSqVC+XzeU//wwbFZNu4FA/fdd58U5oNeSUPe9UKc6Amrh/kj5W3b9sSZ36I7OTZLPv74Y/4WjNAPSloc/d8kz/nOouME69TV1VWq1WrSe7Zt06VLl+hTn/oU5fN5T10Upzjy0zhm4bw3zvKAc6jRTbssALgwUQZnRq/Xo0qlQsvLy7SxsUHb29t07do1T4Oq26hubm5Kt5pfunRJOVm2v79Ply5dGoZN05zY7cmjePLJJ/lbsTAMY+Rb8+eNZVmejgyodTodKhaL9KlPfYoefvhh2t7epr29PU+ZnMdJ11mXVFmftnq9Tul0ms6dO0eXLl2i7e1tT3461hyk4hcJRL2TYhLmrb6Z5JWHi0T3ytxpmre8OoqTkxPKZrNkmiZtbW3R9vY2HRwceOofncGxs4I/WmoeLULejQpxEp9CocDfmgmf/OQnpfAsPOYL/MXZ/4XJC6pT8/k8tVot5VjKwcEBbWxsUDabjfWO7bOWn87CeS/OoaZTFgA4TJTBmdBut+n8+fO0vb0da2P+6KOPSuFLly7R8vLy8Aqb5eVlaZLMMAz6zW9+I30nKY1GgxzHibzw/zlR6Xa7nu+FLR988MFMDjIHsSzLcxw6y82bN9GR0VCv18myLNrb2+MfQQRJlvV50uv1KJvN0tbWVmyD0PyKwSSvUkN9A/MCeVVtZ2eHNjY26FjzgiuYPORdL8RJfEqlkieedJbd3V2+qZnA76jjFw/BbEii/wujS6pOXV1dpaOjI7Jtm0qlkvTITxrc1XbhwoWxz1VmPT/hvBcmVRYA/GCiDOZer9ejf/7nf5YaesuyqFarUavV8jSijuNI3/fT6XQ8z8kldru9OClnmibduHEjscki/tilOK/644/NUT2j/6wQ/xcGdzEF448hiKLdbtPW1pZURnK5HDUaDbJt21Mmm82m9P2zLOx540mW9Xn2rW99SxqgNgyDqtUqNZtNT35yHEd5JRrH//cpbmehvon6yBV+0sLbF/i7sHqA44+m4fXEuM5CXk3S/v4+Xbt2TXqvVCpRs9lUXlxULpeldeeJzv/fifjgut8V80lB3vVCnOgJq4d5Xvb7n7x59cADD0jh4+Nj/A+MQtR+UNyS6P9y45zzLYJJ1qkrKyt09epV+uCDD6hWq0n/pdjv9+mRRx4Zq5xOIj9Fwfuzs3DeG1d5iFp34BxKlnRZAPCDiTKYe6+++qo0SVYoFOjmzZuUz+fHmrT68Y9/PBzkLxQK1Gq1qFAoSBW0YRiUy+WoVqvRrVu3xvq9MPyxS/xPR8fBH5vzt7/9TQqfJfxKrrg6QmfBgw8+KIX/8pe/SOEofvjDH0rhWq1G9XqdNjc3PXfxLBp+9d76+roUTrKsz6t2u00HBwfDsGVZ9O6779LFixc98RcFr/uiDhCHmdf6Rjwp7vf7kfabtx+f/exnpfCi4vk06kALrwc+85nPSOFxzWtenRTxwinDMKjVatHVq1dpfX3dE3fzhg+WR32cza1bt4avDcOYeHzw30PeRZzoCuuP8XgU8/pZsL6+7rlS/+WXX5bCi67X60kX/SU9acAl1f+N85xvEfC6YFJ1aj6fpzfeeINyudzwvX6/T9evX5fW05VUfhrHLJz3xlkecA6VjLjLAkAQTJTB3Ltx44YUfuGFF6TwqMTHxX3961+n1dVV2t3dpVu3bg2vsPnggw+oXq9P5FZv3nn5/e9/L4XHwQdJ/vCHP0jhs4R3hKJe6TNL4r6ChnfG/ud//kcKRyHmT8uyJlJGpunWrVta6dHpdKQBcvEKRVeSZX1e/fGPf5TCP/jBDzwnraO49957pTBvT/wcHh7yt5Tmtb7hVzBG2e9f/OIXUvihhx6SwotMLO+2bWufPPd6ParX68OwaZqxX5gzq3n1o48+4m9NXLvdlgZKC4VC7PE/TfyumShtzsnJiTTZMI22flbz7jQtcpzE2R8jNugZpd6eF88++6wU/tGPfjTSMfZ6vZG+57rjjjuksM5gea/XG3nyMuxuQhcfhOX9o6Ql1f+N85xvFn388cf8rbFMs05NpVKeO9rfe+89Kawrqfw0jlk4742zPPA6Ikpe0T2HEi9w0K0Ddeu8JMRVHuMsCwBBMFEGc+/DDz+UwmGNvc7J06wSr6CwbZv29/elz0fFryjc29uLfEXxvOBXAj733HNzmyei3pEQhnfG9vb2tOJmZ2fHMzgmDiqGlUmKsQM1LbZtUzabDY2vH//4x1L48ccfl8KupMr6vOKD5fzqQ5WwtCBF3XdwcBA60NNut+mJJ57gbyvNa33zla98RQrr7vfJyYn0OJdMJrPwd5CKeHkvlUpS2M/LL78s1anf/OY3pc/jMKt5dRYedXb79m0pzO9EVeF11ixLpVKeyQDdNufFF1+Uwl//+tel8CTMat6dpkWOk7j7Y/z/qnXr7Xnx1FNPSf2gfr9PuVwuNP5E7n+FF4tF/pE2fvFB2GB5b/A/S/yuQF0HBwda+/vcc89JYd4/ShpvS+Lq/8Z5zjeL4n5837TrVJ1+h46k8tO4pn3eG2d54HWEbl6Jcg51//33D1/rXMBRLBalOwknLc7yGFdZAAiCiTKYe7wB4c/2FbXbbcpms/xtJfGk4Tvf+U7gdifl29/+thS+cuWK1n51Oh0qFou0trbGPxriVxQ+/fTToY0uDeI7m83Szs4O/2gmra6uegaEnn/+ea0OTL1ep3Q6rX03SRKi5PeoUqkUFQqFYbjf79O3vvUtaR1Rr9ejYrFI165d80xYi48offPNNwPj9/DwUHviYZadnp4GDs7U63XpTlUioscee0wKu5Is6/OIX+nH/69J1Ov1KJ/Pa08k8xOcoIGTw8NDunDhgjRpEWRe65v19XXP3U/PP/+8tA7XbrfpkUcekd7jA0yL7rHHHvNMzIp3iqnU63Xa3t4ehg3DoKeeekpaJw6zlFejtB+T8OlPf1oK8//k4iqViueK11n3zDPPSOErV66EXjBVLBY9gzr8yvBJmKW8OysWPU7i7I+p6m2dQdxer0eVSoWWl5d99yOqnZ0dWlpaoqWlJVpbW9M6TwuTSqVod3dXeu/09JTOnz8f2u90j/HcuXMjT1iJdAfLO50OZbNZ7X6en729vcA+X7FYlI7LNM2J13FJ9X/jPOebBVHb6aiSqlPdz8LK2quvviqF+f966UoqP41r2ue9cZaHSZxD6V7A4e4nb++SNkp5jLss7O/vD9vLdDodS3sJC8QBmHO1Ws0houFiWZbTbDaldbrdrlMulx3DMKR1icgpl8vSuq5yuexZV1wMw3AymcxwKRQKTrVadWzb5puS8O3yfQ2Ty+U8+1IoFJxms+l0u93herZtO7VazbO+n26365im6TnGcrns2cdWq+VUq1XHsqzhuplMRlpHJG4zaD2R+B2/NBI1m03t77RaLWldInJM03RqtZrTarWkdZvNplMqlaS48dt2lH0QZTIZ6XtBqtWqtK5lWcN9dtOcp1cUtm17yollWU6j0Rjmr26369RqNSlOeLoWCgVpG7lczlM2bNv2rOcuQccgrsd/18+45U5F3J4YZ4ZhOLVabRhftm17fp808gcvuxRTWdc1Sn7m39GJZx43qu/Yti2t48Yxx/OluwTlE1Wez2Qy0n60Wi1PXhW/ExQ3SdU3UUWpZxxFWtKgLhDztjM4PlX7WigUpO1x4rpB6TOuUX5H/I5O/PO4CvoOz+80qB8bjYa0XrPZ9OQ5IlLme5G4ru7xumYlr/K6rFAoDNsPt//B2xNnxGPn6aGqfxzH8dQr5XJZKgfOIE54OXMXP1Hyjoj/Thz4NonIKZVKUtp3u12n0Wh41jUMw5NHRLrxzInfCUrTWci7PE50iN8JOj7RLMSJ7j6IxO8EbdsVpWyI6yXRH+N9bxocd6PRkOoit3wUCgVpP/zyO98Xv/UcRT9IZ7+jULU3NGj3y4NzQXepVqvK9VXtfpRj5Of07jG6ceymH09j93VQXuT5Sfyee57jarVannaIQvY9Cr4vQenI0z3p/u8o53xOxHTW3b+odSo/lmq1OjyOZrOpjOcoaZFEnSrGWyaTcWq1mlSnuH1s8TcNw5C2EUWS+YnvZ1AeUFGVuUme98ZZHni+crcV1zkUT0canEu4+VC1n/w3gojrqY5PB/+9sPIYd1ng9Ue1WuWrAPgKLiEAc0KcsHEX0zSdzGASi38mrs8raRGvjHWXUqnENzXEtxm1E9HtdpXHq7Pkcjm+OUmr1fI0arpLUOMjrqfb2IrfCUojF++QhH1HdTKmu/DOsCvqPrh4Hg3S7XZD0ygsncOMEjd8kFfV2aRB2ctkMp48bBiG1JkLKhfi93Tz07jlTkXcXqPR8BxT0GJZFt+cR5JlXcco+Zl/RyeeddOmVCp5jtMQLljg+U2Mu7B8EjXP12o1qdyGxU3U7YuLX30TVZR6xjXqfoed4DkjluNRjPI74nfC0tZR5Puw76gGGHUW1WAGJ66ve7yiUdOcYsyrPD5Vi6rPIX6ue+y69U+j0fDsg/s7mUzGM6DE624//FjD8o5rlPIcZtQ2xwiZJHMixDMnficsTaedd0dJE/E7YcfnEn8j7DtJxYm4Xtg+uMTv6OTzKGVDXC+J/pgzRr0dNJAXpVzw+KCQOBmFqp+lu1iWJQ0Au6Ico6MoR0FLoVCQth+UF3n8RT3nDTq3j4rvS1g6qtJlWv1fUpzzORHTWVwvaP94XgjD90G18HotalqMEl/uwn971O2p4j+KpPITj/+gPKAyah+EYjrvdWJOj1G2RZrnUI4ivoMWazDhJ74XRFwvKM2D6OyfWCZGiS+/uHcU9YfOORSAC49ehDPh6OjI8+xo27bp+PhYeiyMaZrUarV8n0Mv6vV69Otf/5q/reXatWuBj3IYRyqVops3b1K5XOYf+TIMg8rlMr300kv8I8nq6iq9++670qMvwpimSbVajS5evMg/mmn5fJ5arZbvn3erZDIZajabnufoT5LqESmc+NiqUeTzeWo0GtKjZvyYpknNZpM2Nzel91dWVujGjRuefTk9PaXj42PpMQ6ZTIbeffddSqfT0rrz5M4776SjoyPpsQ1+CoUCHR0d8bc9kizr8+jq1aueR0v0+/1hPe8+DtEwDKrVavSTn/xEWjdIPp+nWq0Wmucty6JWq+V5XGOYea1v8vk8NZtNTzn2YxgGVavV0Dpq0e3u7lK1Wg3Nby63no2a70YxC3l1fX09tC79P//n//C3ErW5uamsI9z6R3w8V6lUops3b0rrzYNUKkVHR0eeejZIJpOh09PT2NJ+HLOQd2fNIsZJEv0xGtTbun1jV6FQiO2xZfxRVkm4evUqNZtNzzl1ENM0qVqt0s2bN7X+kzjMf/7nf4b+fhx9jdXVVTo9PdUqG9Vqla5evcrfnpik+7+6+drvnG9WPPXUU6Hpedddd/G3Iom7Ts3n85609WMYBjUajbHjP8n8NI5ZOO+NszwkfQ51+fJlTzqqlEolOjo60vo/ujhFLY9Jl4Vxyz4sGD5zBjDPaoPbsPltxrlcTrqKQHyEht/VBfwqBH71crfbdZqDR1C4j9ngVzmorqRpNBrDK3V0rsINYtu2U61WnYzP1cyFQsGpsVu8dbVaLadUKimvLMpkMk6pVAq8ikMkxqXuVTLi8filkYjfwaS7b84gTQqFgifN3auryuWyVjrZth15vx12laruVTutwaPgxN8zTdMpFAojpbeKe9t+LpeT4tY0TU+Z8tPtdod5lG/DfZyCy32EQli5GCU/iVcpmaYp3co/KveqN76/zWZTGWf8eKNIsqz7GSU/i1fo8njxI17hZhhGaNo0B4+k41cdZjIZ6bEOLeERKbr5xLZtp1QqSdtWtSEOuyKTfxYkrvomKnF/da+gF9VqNWW8i/VBlPw3SjkexSi/EzXfj9r+uPUj77e4aVQoFLS35RrleP1MK6+6Go2Gpy61Bo8BUxnl2KO2DW4dwePEsiynVCpJ33f32zRNaRuiUepZZ8R+QxT24BFnvO12f6/EHskYZtS+rxg3fumuMo28K149HZTmIjEddfOsWAdHucslzjgZpaxFzedR6tVJ9sfEvrFfe+j3eFguarkQ2/FMJqP1G6OK6zww6jG6VOcfbv0v9jXEOjwoL4r5iZfPGntKgPtbvE6PS5S8LUqy/zvuOV+UdNatP0apU53BOA9Pz8zgUancqG2wE3OdKra54rZG7WPriDs/RckDYewpnPeKxi0PXC3mcyiRm45iPLntnFh/tYRz9LDypFtGdUQpj06MZUGMDyPgzm4AlSXn77dWAoCgXq/T1tbWMFytVrXumOLfK5VKU70CDQAAAAAAAAAAAOAs42OyumO5AC5MlAEo5PN5Ojg4IBrcVn3r1i2+iq+lpaXh60wmo/1IDwAAAAAAAAAAAACIJp1ODx+JjvFYGAX+owxA4cMPPxy+jvK/Sb1eTwrfd999UhgAAAAAAAAAAAAA4lGv14eTZIZhaP/nG4AIE2UAId58803PBJif559/Xgp/8YtflMIAAAAAAAAAAAAAEI9///d/H77e3d2llZUV6XMAHZgoA1B48MEHh6/7/T5ls1k6PDyU1hG1223K5/O0t7c3fC+TydDm5qa0HgAAAAAAAAAAAACM7+TkhE5PT4mIKJfLUT6f56sAaMF/lAEo9Ho9ymazw4pWZFkWpVKpYfj4+Fj6nAbrHB0dSesBAAAAAAAAAAAAQDzy+TwdHBxgLBbGhokyAB+9Xo+ef/556S4xHYVCgV544QVUzAAAAAAAAAAAAAAAMw4TZQAhOp0OXb9+nf7v//2/dOvWreGfQ7osyyLTNOnChQv00EMP4Tm4AAAAAAAAAAAAAABzAhNlAAAAAAAAAAAAAAAAsJD+gb8BAAAAAAAAAAAAAAAAsAgwUQYAAAAAAAAAAAAAAAALCRNlAAAAAAAAAAAAAAAAsJAwUQYAAAAAAAAAAAAAAAALCRNlAAAAAAAAAAAAAAAAsJAwUQYAAAAAAAAAAAAAAAALCRNlAAAAAAAAAAAAAAAAsJAwUQYAAAAAAAAAAAAAAAALCRNlAAAAAAAAAAAAAAAAsJAwUQYAAAAAAAAAAAAAAAALCRNlAAAAAAAAAAAAAAAAsJAwUQYAAAAAAAAAAAAAAAALCRNlAAAAAAAAAAAAAAAAsJAwUQYAAAAAAAAAAAAAAAALCRNlAAAAAAAAAAAAAAAAsJAwUQaQgE6nQ+l0mpaWlmhpaYkODw/5KmPh26/X63wVmGPtdpuWl5dpaWmJlpeXqd1u81Uiq1Qqw/yytrbGP55JUfJ5NpsdrlcsFvnHAABzJYl2AABgHhSLRfTpAOBMEs9Zd3Z2+MdjiXLuDIvl5OSE8vn88NzCHRPa2dmhXq/HVwdYaJgoA0jA+++/T7ZtD8Nvv/229Pm4+Pbfe+896XOYb7dv36Z+v09ERP1+n27fvs1Xiey1114bvj49PZU+m1VR8vnx8fHwdafTkT4DAJg3SbQDk3RyckInJyc4+QaAyMR+HPp08wP1PkA48Zz1rbfekj4bV5RzZ1gcOzs7tLGxQQcHB8NzCxqMCV27do2uX78urQ+w6DBRBgAAAAAAsVhbW6ONjQ3a2Nigu+++GwPdAABnHOp9AIDZc3h4SNeuXeNvSzChCiDDRBkAAMCMa7fbtLOzQ9lsVnpkwvLyMmWzWapUKhiUgDNPfBxh0OKWi52dHTyycArEu5b7/T6uVAWAqdBpL6Isy8vL/CdgYB7r/cPDQyoWi9Kj8JaWliidTlM+n6f9/X3cHTcnUNYB1P71X/9VClerVep2u+Q4DrVaLSqXy/TYY49J6wAsOkyUAQAAzKiTkxPKZrN07tw5unbtGh0fH0uPTOj3+3R8fEzb29tkmiZls1lMDMCZxfO/H7dcXLt2jc6dO0fZbBaDXVP0iU98gr8FAJCok5MTrfYiiri3d5bNcr1fr9cpnU7Tww8/THt7e9Kj8IiIbNumg4MDunTpEn3qU5+iYrGIPsQMQ1kHUOt0OtJFDIVCgS5evEipVIqIiFZXV+ny5cu0srIifAsAMFEGZ0a9Xh9eBZROp/nHAABzxX2eOD+BD3J8fEwXLlzAnzf7KBaLw3aiWCzyj+GMOj4+xmTZBJVKpeHrTCZDDz30kPT5JOFP7WESxLtdl5eXccHKDLjnnnv4W5CgWar3/fR6Pcpms7S1tSX9j1OYvb09On/+PMq1j2m3syjrAGrvv/++FP7Sl74khQFADRNlcGaIz9aN0vkFAJg1xWJR+TzxQqFAtVqNms0mNZtNajQaVCqVyDTN4Tr9fp+2trak78HfiY+nxKMq51+z2STHcTxLs9mkQqEgrXt6ekrPP/+89B4k4+rVq8O0ODo6Gl65Og34U3uYhNu3bw/vQOj3+3T79m2+CkxYKpWiVqs17C+pFt5OVKtVzzri0mq1pPXh/5mlel/FnSTjF58ZhkGlUokajcYwnWu1GhUKBTIMY7iebdu0vb0tfRf+btrtLMo6gNqf//xnKXzXXXdJYQBQw0QZAADADKlUKrS3tye9l8vlqNvt0u7uLuXzeVpfX6f19XXa3Nykq1ev0q1bt6hWq0kTZicnJ9I2ABbF+vo67e7uUq1Wk97f29vDBCkAwIJYXV0d9pdUy+c+9zlp/Xvvvdezjrisrq5K68P8+MY3viE9goyIqFwu0wcffEBXr16lzc3NYTrn83na3d2ld999l8rl8nDCjE+ywexAWQfw+uijj/hbAKABE2UAAAAzot1ue65YLRQKVK/XQ6/Ozefz9MYbb1AulyPCo0gAKJ/PUyaTkd77y1/+IoUBAADg7Nrf3/dMctVqNbp8+bL0HpdKpejy5ct048YNsiyLLMviqwAAAMAZg4kyAACAGcEnyTKZDO3u7krvBUmlUlSv16nVaoVOrAEsggcffFAKv/3221IYAAAAzqZer0dXrlyR3iuXy5TP56X3gqyurtLR0REdHBzwjwAAAOCMwUQZzDXxz2P5ALP7vrgEdYo7nQ7t7+9TNpuVtru0tERra2tULBZjeZRZp9OhnZ0d6TeWl5cpn8/Hsv0wh4eHVCwWPceYzWZpZ2cn8mOper0e1et1ymazwz8yd48pm83S/v4+9Xo9/rWxuMeQzWalYxjlN3d2dobf39nZGb7f6/WG+YHH06h/VJzENuPgpl8c+zSpcjSuTqdDlUrFc9zpdJry+fxIxz6uTqfjueI1yiSZSPeRIfV6nYrFIq2trfnGg25Zqtfrw+8vLy9r1yW6fwJ+eHgo5SVXu92mfD4/rH/S6TQVi0WiQZyKxyXG7/HxsfSZu+zv7w/X4Sadb9z6NZ/PB6aRLnEbh4eHw/crlYr0WTabDS2n7XabdnZ2PPs1S+V8HHG2M6Ik2oGgdoynbVh/Q9VHccuUbpmuVCrSd/10Op1hueV1xsnJiaevorMfYj20tLQkfba9vS195i7tdltaTyXOutKvLqPB74j1mbtOpVLR3v6o3Djnx+iWabHOCCPWleKxLAn9TZ14dxWLRd8489Nut6X8FfR7o9SN4j5tbGwIWyPa2NiQjtndhzjE2c9KogwGSWKb0yS20eOeAyVdLwS1E3G0Sbr1vmtS/anr168P/z+QiMg0zdA7yVRSqRStrKzwtz3c+Mzn877lM0pdmnTf2i9fHB4eSmmztrY27B8n1c7Oqrj74n7cvMN/I2pZHFUS/frDw0NlWXD7Abr5WZd7DEF9D93f9KuTg847/cTZVoQRyy0fH1X1TYLKZtz12Sj1DcBUOABzjIgiL1yr1XIymYxnPb8lk8k43W6Xb0bSbDal75TLZcdxHKdUKnm2x5dcLjfy9oO0Wi3HNE3P76mWUqkUug9OhG0ahuHYts2/Hlm5XHYMw/BsX7UYhuHUajW+CQ8x7TOZjOM4jtNoNEJ/x7IsrThy1Wq10G2apum0Wi1P+jabTb65yHgedzTTT/c4J1mOVPi2g+ikBQ2OfZJ4/ZDL5fgqsWk0GqFp7y6GYTjVapVvwqNcLkvf08234neC0phv3wlJy2az6clDOotf/gn6LXGJI990u12nUCh4tu23uHVHGPE75XLZ6Xa7vuXWLx6CvsOXTCYTS93v4nlAJ4/x7zQaDb6KJIl2xqWTh0ZpB0ZtxwqFgrSdarUa+h2d4+X5w4/qGLvdrpPL5Ty/yxe//eDprbME1TuTqCudQRtqWZZnm3z7OuU8qihl2rKswH2IWnfp1hF8/3So8pcfcT3dutHv86AlaB/CTKKfFUcZVAmKT3EplUqO41OnJYGXxSjpo1Of0wzVC6o41WkndM8DePoG0Y27OPpTPP500mJUUfoPpmlq5TeeL3S+4yjqND+qfMHPR8TFUeyTzhK0D5PA91knHqO2Z6P0xd041ykTYe2vo6jTdeJdt36mCG12lG2G9ct1ROmrkdDWBOF5xglJJ788FfQdcdFtK8Lw7YYtfvudRH02Sn0DMA3IfTDXojSIpBh4tm3bs47OEtZx552UUqnk6agHLVG3H9YJqtVqnt8wDMPJZDJOJpNRxmPYiVGr1fI0nqZp+m5Tp/EMEqWjKi5hnS/eYAc11nwJiyOXKv79FsMwPPswbtw5ihPYKPsUdpyTKkdB+Vxcz+14qaiO27KsYb7leXqSeB0RlndHxfOX7sIH1Tl+QqGbb8XvBKUx336j0fDsI//9UfKm6iRl0vmG1586i6FxQYK4frlc9uQ5cVGVI1W9766byWSU29MdxNPB84BOHuNxGVSXJdXOOD55yG+J2g6M046VB5MCUY49aF8cRXvjh9fx1WrVk15Bi2qgPko8u4tf/owSj+ISta7UHUShmMuTE1Cmgxbel3a1NC6+US06x6Sbp0Q8fwXlW3E93boxSpmhwXGOapS2jEboZ8VRBrlutxsYn3zJ5XLS+qq2KC68LAblEZEq7cVzIFWZmna9ME47EXYe4EQoo6o6Oqn+VLfb9fxW2HGMIsqkAF/CyhDPF7p5VPxOUN86ar5wfNIwbAnLn0kbJR6j1IXuErUvnslklPWJ3xK2fV6nB6W9E9AHcMujqu4Oq29Udb4hjDvxz8L2Mcwo+ZE0Jst4ntE57+RUaTtuWxEmal3E0zLJ+myU+gZgGpD74MzgjZkO3pkoFApOo9GQOtGtVsuzbQppCPh2xcU0TadWqw1/w7Zt5faDOg18+0HrtlotaV3D5wp427Y9V5AGdSDEhs4wDGXnwD22sA6VDvH3TNN0qtWqtM1ut+s0Gg1P58s0TWk7XFBHoFwuDzuj3W5XebV9UNw7PoMbuVxO2vdGoxG4H6q4jSpo++MeJ8+PSZWjoH0Q18v4DKp0u13puCzLUp5stFotp1AoOMYYg1qj4HGTxMm86mSiUChIecwtS6o8o5pEcvH01c234neC0phvX0zLTCbjNBoNp9lsOuVy2cn4XEnPO+g6ppFvxOPMZDJOrVaTftO2beUgWtjJlV/8GYbhlMtlp9lsOrVazSkUCp607na7nkGD8mCSha/H0ypssFYX325YHqtWq9L6QW2ak2A7k3Q74Pc9N13dNGq1Wp52ngbpI35H7KM0m83Ix8v3xw+v4/k+iROQLcXdNIZhePIfJ64fVL9wk6wrxUWVL3i50627dPC0deNdjNdGoyEN9qh+v6sYGHP7u2Ld5fYFeN1lmmZgWvI41sHzV1AZEteLWjc6EX9rFHz7SfWzxCWuMsgHCnkdI54r8H0gn/wWFx5fOunG2xXLspTfU9WdYnxyfF/EJY56gaeduJTHPA9wFNtXmXR/iufvuPoinCqPl8tlKc3cfhtPN1IMVIt4vlDlNRXxO0FpJ6YbT3O3zWs0Gk6pVPLtY+r+1jSNEo/i+kn1xcXFzTdiWVRtP6is8zwflB7dhPr1fF1Vm+kem9vXHof4e8bgQjOevs1mU9n/VdU/Ln4cYjpkNM47k2orouDHoPp9Lsn6LI76BmAS1L0YgDnEGwId7uCVqlPA8cbO74paR9FJERsAv9/hgzJBJ598+0GdID4A5rdNF+9EqDoQfNAv6CQ8LoVCwbeDIVJ1+nQbbDGe/L7D4z5swJB3NoIafZ7H3CXsmHUkeZyTKkdB+Vxcz+8EgpcxVd6eFn6s4w4OqNi27emUhpVdHmdBdQivg3XzrfidoDTm23eXKCdYYjnwyyccj4NJ5BvTNJ1cLhf6Wy3FhRBBeNxRwEAVx6/6C0tfXtbD8poOngf89qGpOCG2NK6IT6qdSbodiFq/q9angLwQ9Xj59v3wes9dguKHbzssX4nrBtUvoknXlWG/0WWDyxRTPcT3QzXQI2oNHgOnmnDm9UNYeesqJtaC0oenuw6ev4LKkLieeAy68Rzlt0YxqX6Wu8RVBvn5QlC9ZNu2J09QhLZ6FLwMhKUbrxvC9o3XnUF9ab4v7uIXv1HrBZ5uFJIePG8E7buj2L4KryeD9jcOPE6DysKoGuwuk6A4dfE+QVA+4scQlkdd4nei1K3uMej+jhPht6ZplHiclb54S3HXl9/+83IblB683fbbpou3LX51k1jnBbUlcakNJhP99kfEzw2CziF5ntH5jivJtiIKfgxhaZx0fRZHfQMwCepeDMAc4g1BEsQGLKgTxDsppNlR4I2HX4PPt+/XCeKNnd/2RPykVrVt/vuz1rjxE7GgDg2Pc50OAf+OX8eWx6UZcsW0o9j3uOKX73OcxxnVqOVIlRdd4np+HbRJ1BGj4sfqdwzj4CdEQfEp0j2p4PGrm29194lvnzTrVZGYp3XjmP/urOEnKEHlmsefTj3gDE7gRol3sazrxncQnhY6izG4EjJuvK72KxeTaAd4XR2WrrxvQBoTG3yfguKU748fXu+RRt7i3wlbX3efRZOuK0mjf8a/E7a+Dt4WB6V/EF4/6G4ryuCibp4S8bwSVIbE9dx9CSpDXJTfmgSetn74fpNGmeLfCVqft09+ZcKlmkCNo+3ww8tVWLrxukGnX8zrTr/f4PtCGuWcfydofV6GdPI4/07Q8fJ1Vfj+Jo3/nm5dHgXPr37pK+KD4hTQd+PHoLN9J0Lbx9ONQvKRiu5vTdOo8aiL13V+6eko2puw/pej2H+/epfXz37pwdttv+1xOv16nd+fFt4nD5o853EeJZ6SbCui4McQts2k67M46huASfgHAgBt6XR6+Lrf70ufBcnlcrS7u8vf9njmmWek8G9/+1spHNXvfve74WvTNCmfz0ufq6ysrJBlWcPwa6+9Jn1ORHTHHXdI4ddff10KT9tdd90lhT/66CMpHOTGjRu0urrK35Y8+uijUvj999+Xwq4333xTCn//+9+nVColvcfl83mqVqv87djFeZxRjVqOxvWJT3xCCp+cnEjhs25vb2/42jAMeuqpp6TP/Vy5ckUK//znP5fC02JZlla9Oq5Zzzef+9znpPDt27elcJBf/vKXofUAEdH169el8Pe+9z0p7CeXyw1fHx8fS59NSr/fp5/97GdUqVT4R2PRbWem0Q6E1e+bm5tS2DAMOjg4CNyv+++/Xwr/9a9/lcJx0Okrra+vk2EYw3Cn05E+j8Ok68pqtRraP8tkMlL4vffek8JRnZyckG3bw3A+nw9M/yCvvvqqFH722We1trW6uirVEf1+nw4PD6V1pkW3bpxVo/az4i6Dv//974evDcOgixcvSp9zqVSKjo6OyDRN/tFMODg4GL4uFAq0srIifa7y0EMPSWHdc6ak64WwdoISOA+Y9f5UVO12m05PT4fhTCZD6+vr0joqqVSKvv/970vv/dd//ZcUnpZSqRSa78Br1L64aZp0dHQU2mbyfki9XpfCUSXZrxfbB9U40jTxOvvDDz+UwkGinHdOsq2IyzTqM9Q3MKswUQYQwYMPPsjf0vKFL3yBv6V0/vx5KSwOYoxC7ESJJ81hxM4aH+SjweCG2Ana3t4eu8MWJ51G3U/YSSMR0b333iuFP/74Yyns+sMf/iCF/+mf/kkK++HbT0KcxxnVqOVoXDz+H3nkEWq329J7Z1W73ZYGy6IMiq6urkqDVmInepp+8IMf8LcSMev55oEHHuBvabEsyzNh4odftKFzwkeKQbFpxZtt27S9vU1ra2vU6/X4xyPRbWem0Q7o1O/iAOv9998fmqb886DB8VHp9pXESbu40tM1jbpSJ615mvpNzOriAzBf/epXpXAUN27ckMKPPfaYFA7yta99TQq//fbbUngaotSNs2rUflacZbDT6UjnMV/+8pelz/2kUqlI5yyT0m63pePhA+N+eP3xpz/9SQr7Sbpe4N9V4fsw7nkAb/9mrT8V1R//+Ecp/OSTT0rhIHxQ/K233pLC0/Ld736XvwUaRu2Lp9NpTx2hkkqlpAuZ+/2+b92rI8l+vVjXHx8fU7FYlD6fNn6BgS7d885JtxVxmUZ9hvoGZhUmygBmSCqVkiagdAdZ/IiDPbdu3aJsNqu1iJNjflei/vCHP5TCW1tblM1mZ2rCbFL8Bnb4QKLOSeks8zvOeaG6ev3cuXNULBbn/qrWMO+8844UjpoX+aCV6sRo0u68807+ViLOar7hJ2RBxCsuDcPwtBl+y89+9jNpO7pX2OpqNps0eIy4tHS7XWo0GlQoFKT1T09PKZvNjjW4ENVZawdmzbj9JG5e6krdQQg//I7Af/zHf5TCUYhpYBiG9oAbKe7MnPTAkEqUuhH8yyC/+0h3Em5W8fbr17/+tafN81tEUe5giGrceiHMuOcBZ60/xev3e+65RwoH4fWk6sLUaUD9N7v4nba8vxJFkv16fnf93t4epdNp2t/fn2j/O2665508TmaxrVCZRn2G+gZmFSbKAASdTofq9TpVKhXK5/Oexot3DpLAH280Kn7CYds2HR8fay1+k2OiixcvegYhj4+PaWtri5aXl6lYLHoGCON0cnJClbhiy48AAGmVSURBVEqFdnZ2POnEOxqzQJwAPetmoRz5eemll6Qr8mjQgd/Y2KB0Ok2VSmUmOvFx7wN/HA+/SjjMfffdJ4X5ScBZN8180+v16PDwkCqVChWLRU95+s53vsO/Ejvx8Sr9ft/TZvgt494VPapUKkWbm5u0u7tLrVbLcwHKyy+/LK3vJ+52ZpHagXm1KHUl75/xQY4oxHIetQ/LB2ImPTA0r2a5n+WH34kwb/hdmKenp542z2+B/2ea/akod9zp4PVo1Asr+B1CMLtmoS8e58UGYr0Ud79+dXWVarWa9J5t23Tp0iX61Kc+Rfl83jNOFad2u037+/tUqVQ86ZRlF4QnYV7bCtRnAP8PJsoABoNh2WyWTNOkra0t2t7epoODA0/jpdM5OGv4ZJhod3eXGo2G5wqnfr9Pe3t7ZJomFYvF2E54er0eVSoVWl5epo2NDdre3qZr16550mnaHQ2XuB9RB4/m0TyUo1QqRTdv3qRyuewZtHYfz3b33XfH/n9GYfj//vldoT0t8z7ANa5p5JtOp0PFYpE+9alP0cMPP0zb29u0t7fnKU+zllf8WJblGRSfhNXVVc9/CgQNIsfdzixaO7DoFr2ujApXE0czD/0sFx8sjDrpfFZFeZzVWTTJ/hSvj5O+4y4q1H+z76z1xeMU1K/P5/PUarWUjzk8ODigjY0NymaznruYxlGv1ymdTtO5c+fo0qVLtL297UmnY80LwmfBvLUVqM/gLMFEGSy8nZ0d2tjY0B70mlelUsnzeCqdhQ8wcpubm3Tr1i1qNpvKSbW9vT06f/782JNl7Xabzp8/T9vb23PTwREnEM96/pq3cnT58mX64IMPqFareTrx/X6ftre3J/rnsqqrtpK82g5GM6l8U6/XybIs2tvb4x9NnWVZnnZCZ7l58+bUTqLy+bw0IGfbtvLkPIl2ZpHaAQBIzrz1sz772c9KYT5xNu8ajYanndNZ4ugjnAWT6E/xydl5KTswG2a5Lx6npPr1q6urdHR0RLZtU6lU8kyMHx8f04ULF8Y+3+31epTNZmlra2smLhLh0FYAzB9MlMFC29/fp2vXrknvlUolajab1O12PQ1WuVyW1k1CXLeD8yt8kr6Kbn19nXZ3d6nb7XquErRtm77xjW9I60fR6/Xon//5n6XOj2VZVKvVqNVqedLJcRzp+9PC/6vkrJrFcqQrn88PO/F8ovfg4CCWK1p18YGC//7v/5bCcfrzn//M3wr02muvSWFevyyaJPNNu92mra0taaIml8tRo9Eg27Y95anZbErfT4L4OI15vWqW383FH4mXVDuzKO3AWbUodSV/5M6oovZh+QAZf3Ql/N089rP4/8/Nu89//vNSeNz/64K/S7I/tb6+zt+iw8ND/lZsVBfgBBEn7vjjKGG6ZrEvHud/eE6yX7+yskJXr14dToyLF5D1+3165JFHxrqg+lvf+pZUlgzDoGq16vs/xvx8O25npa1AfQaLDBNlsNDEPxs1DINarRZdvXqV1tfXA6+QSUqv15M6ZOM05Hz/b926JYWTkkql6PLly3R6euq5kn7UgZhXX31VGrwsFAp08+ZNyufzyjtxZsUnP/lJKRy1wzEvZq0cjWJlZYV2d3c9JzpBj2iL26OPPiqF9/b2xjpxED3wwANSOGpeFOsPwzDmJl2TlkS++eEPfyiFa7Ua1et12tzcHOt/hMbB03vUunyWJdXOLEo7cFYsSl354IMPSuG//OUvUjgKsa/a7/cj1Q9/+9vfpDC/Cwn+bh77WfyR0nEO8k7DnXfeKYX/+te/SmEYTxL9KRpMboh++tOfSuFx8Hr0nXfekcJBeD3J/8YApmsW++L8binVRLAu3m7w/JiUfD5Pb7zxhlQu+/0+Xb9+XVpPV7vdpoODg2HYsix699136eLFi2PFzzjmta1AfQbw/2CiDM6ssAHmdrstTUoVCoWxBsOC6J4c8k7CuFfWioMXtm17GrEkrays0Isvvii99/7770thXTdu3JDCL7zwghSeVfxPd//4xz9KYT9J3kkUt0mWo0lYX1+XrmjlJyVJeuyxx6Q7Mfv9Pv3Hf/yHtI4uPrjL72r4/e9/L4WDnJycSPHg9ygI/l8QfABUhe/nJIW1EVHEmW/EtLEsyze+J4mfPEW9a2QW8ItFPv3pT0vhpNqZRWgH5sVHH33E3/KYRF05C/iE1P/8z/9I4Sh4XzVK/fCLX/xCCj/00ENS2MUnnHX6s1HvBozTxx9/zN8a2bz2s/g+6palTqcTKQ9NCh901T0eiCbO/hQR0be//W0pfHx8PPJdZbzPyu8c+cMf/iCFg7z66qtS+Gtf+5oUds1b31qnnZ0Hk+qL37p1S+t8pNPpSHd+jXvHzjT79alUynOH9HvvvSeFdfE+9Q9+8APPJOCkzWtbMYn6DGBeYKIMzqywqyD4Y5d4R1Rl1M7fwcEBFYtF/rbHc889J4W/8pWvSOGo+B0qpVJJCieNX1Ezqg8//FAKh3WAdDqck8DvCPy3f/s3KaxSr9c9ncdZNslyNCn8GeqTkkql6Nlnn5Xeu3btGtXrdem9MDs7O3Tu3DnpkVapVMozcb6/vz8MB+ET3l//+telsIv/F0RYB7vdbtOFCxf42xMT96NG4so34oBoWF1HMQ/I+uF12XPPPTcz9awOPoFhmqbniuCk2hked2exHZgXOo+gnkRdOQv4hJTuHcw7OzueAUPeV9WtH05OTqRH9WQyGU+5dPEJ57BBvXq9TpcuXeJvT0ycj1qa534Wv2sgrD/T6/Uol8vF9h+RcROPJ0rdANHE1Z+iwaA1b4efeOKJSJNJ7n8gnTt3Tnr//Pnz0r7u7e1pbbfX69GPfvSjYdgwDE+d7Jq3vrVOOzsPJtUXt22bstlsaJv54x//WAo//vjjUjgqXiZ02+246LRjOnhbpzP2NInjnMe2YhL1GcC8wEQZnBn86tiwP43mV5Pz/5XgKpXKWANXe3t7gZNlxWLRM5DHr0iJit+hcnBwoNVQ93o9qlQqtLy8rOxMFItFymazoVf0vvLKK1KYX6mtiw+c8P+0ELXbbcpms/ztqVhdXZVuPbdtO/BZ+5VKhba2tvjbM23S5Wgc6XSadnZ2lHna1ev1PI9wUGm325ROp2lpaYmWl5cD0zWKp556yvObW1tboftNg3KxtrbmG7/PPPOMFL5y5UpoB7hYLHoGMv3qpfX1de0O9snJCV24cGHig2FR6hJXnPlGh1hnvPnmm4G/e3h4SE888QR/O3arq6ueyYPnn38+cN9c9Xqd0un0yFdwj6vT6dCTTz4pvffNb35TClPEvBGlnVmEdmCWRSlPrqTrylmQSqWkuzb6/T5961vfktYR9Xo9KhaLdO3aNc+k8vr6ulTnufVDkHa7TY888oj0Hr9YTBRlUG9/f3/iZShqXyiKqNueZj+L41eVF4tF33Rz69W4L2KJE7876cqVK4FthavT6VCxWKS1tTX+0UKZdH/Kxf87u9/v04ULF7TOiev1Ot19991S/e7i9SgR0dNPPx16fNlsVur/Pvvss76TMfPQtx6lnaUEz6XiEOWYxu2Ln56eBk6W1et12tvbk9577LHHpHBUSfXr3c/C6kV+BxK/m0lXlPG/Xq9H+Xx+Im3MPLYVk6jPAOaGA3BGtFoth4iGi2EYTqPRcBzHcbrdrtNoNJxarSZ9xzRN6TvlctnpdrvSOs1m08lkMtJ67uKn2Wx69sV9bVnWcL+cwX7ncjnPtpvNprRNEd9+uVzmqwxVq1XPtjOZjNNoNBzbtofruXFUKBSk/VXthxgfhULBaTQaUrw1m03PMeVyOWkbUdRqNWlblmV59qvb7Trlclnad3cJih+etjqixH+j0fDsT6FQkOK+0WhI+8GPgR/rKJI8zkmVI7/fdxxHWi+TyfCPHUdYxzAMp1QqSfHq5n/LsqRtVatVaRuuQqGgfRxRtVotTx5w97tQKDi1Ws1pNptOs9l0Go2GUy6XPWlARFIec6nSoFQqOa1Wa7iOGxd8XcMwpPVUeLwYhuHUarVhfmi1Wsp13NdBaVwul6XvjVIueH1oWdbwmGzbHsatSNzPcfONDh4/uVzOk5a2bXvW04kXcT2/cuKHt7FE5Jim6dRqNU++aDabTqlUkvJlUNrqipIHWq2Wsk2wLMtTPzkJtzNJtwO8rOoQv6ObF8TfCPqO7v5EqeNFutt3HMfTFxHjvdVqOdVq1VO+HMVvUIx1ZZR8LBK/ExT/umzb9uQzt4/qlpFut+vUajWpLKt+m6eluy2x/ncCymWhUJC2p8LbOd6f5mnBfyMonsX1VMeng/9etVodHnuz2dTO3yr82KfRzxLx3wnC20e33XDZtu3JE+LrUdNDxyhlkdcpNMi/zWZTShO3T8HX9zPKvjgR8m6UNHNFyR8623c/m1R/SsTbeHcxTdMplUpOo9FwmoO+da1Wc0qlkqdMm6bJN+t0u13PeoZheNoWNz/wsuzXJxHx/p4RY99aJ93C8Dyu287yfR7193VELV9835Lqi/N6T0xXt27k2w5KzyhlNol+vbi/mUzGqdVqUry5fQDxNw3DkLYRhW3bnm2J7YtLVfbcffTD9zMoTVV4uaCY2ooooh5D0vVZHPUNwCQgd8KZwitfvvCGWDV4RYNGM5PJKCt/MeyHd1JaPgPffkupVOKblPDtqzoqIr9OXNjC48sVdXuGYXg6l1HxuKdBZ85NK/6ZuH5Q/PDv6kgy/o3BAJv4XlinRkeSxzmpcuT3+47mQAHfj7DFsiy+iSEenxRwHKNotVqR91dcVCcJzqADzONfZ3HzZRhVBztoqdVqUlwGpXHUzr6Kzv7xSf2o6RCUb3SoBq/d7WYyGU/6GYYh7WNQvIjf8ysnQfwGmnQWnfwThueBqItpmoH7wePW/c647YyTcDvA902H+B3dvCD+RtB3dPcnSh0v0t2+o/gN1aIaiE2yruT5OChtReJ3guI/ilHKtDg5JRplW6Q5SeZopqW7RC1D4nqjxi1PV9USljf8zEI/SxSlDEY9ByoUClJcjpoeOniaBeUR16h1Ayn6F6JR9sWJkHejpJkrSv7Q2T7Pp2HLuP0prlarRcqL4hJUt0fN4+4SNqjs0um7ikuUvrVOuoXh+US1qNpZ/tuj/r6OqOVrUn1x1eRw0BJWJnhaBKW9M0a7TT7t2Sjb8+tT6CqVSp5tGoYxbB95OorxHVRnRs0zXFJtRRSjHEOS9Rkv8wCzCo9ehDOFP1qBE2+jJyLa3NykWq3m+c7x8TEdHx9Lj0IslUp08+ZNaT1dq6urdHp6qvX4iGq1SlevXuVvj2V3d5cajYbnOIMUCgXfW9NfeOEFz2Nw/FiWRTdu3PA81iqqo6Mjz2/atj1MK5dpmtRqtcZ+dnecdnd3tf4fLpfL0bvvvuv5A/RZN6lyNK7f/OY3njrATy6Xo6OjI/720Lj5Oczq6iq98cYboXUal8vlyLZtz3/IuFKpFB0dHWnlR1cmk6HT01OtfJlKpejGjRuh8WyaJjWbTd/9TEoqlaLd3V3+toTve5z5RsfKyooyDk9PT+n4+FiqlzOZDL377ruUTqeldZOSz+ep1WpptWWuTCZDzWZTK/8kqVAo0BtvvBG4H0m2M2e9HZhV6+vrnkfJcP/n//wf/lbideWsyOfz2v1Dt97e3NzkHxENttVsNj11lx/DMKharYbWya719XVlX4ObVjqoHp3M3XXXXfwtLfPSz1JZXV1VtmmcYRjUaDS088O0pFIpunnzJpXLZf6RL8MwqFwu00svvcQ/WiiT7k9x7mPXwtoEkWEYVCqVAttl9zyf9x+ClEolOjo60npE2az3rUdtZ5M+lxrHpPrid955Jx0dHYXGHw36sUmUiTj79fl8Xrvf5Nb5fn0KXVevXvX8Zr/fH7aP7mMBDcOgWq1GP/nJT6R1kzKvbUXS9RnAXOAzZwDzrtvtOqVSSbqCwzAMJ5fLKa98cQZXDZVKJc9VDpZlOaVSSbobyr3CwlQ8fsElXoXE1+NXefn9ThDbtqWrlvzuHuG6g0fo5HI5zxUupmk6uVzOc2t1kObgNny+LcuynMLgkYxxc/dfPH43fcV4EB+xFhQ/4pU2PK38iFfaGMIjPsM0m02nUChI+26a5vA2fJEbp0FXMEYxieNMohzp5nPxN8OuTq/Vap50oMFVZfzRWn5awh1fxuCRBEmJu9y67MEjPVRX20WJC5Vut+tUq1VPXsgMHsMhEu+04Z+JGo2GlB9H3TdHeEyNqiz6XQ0XR76JQoxDMX1UdYb7uI6weIlSTsI0Bo/q5WlsDK7iLJfLgfsyiihXOZqDO8FGKRtxtzOiJNqBUep3sdzp5gWx/gm68113f6LU8SJx3zMBVwOLGo2Gk8vlpPxjWVbo1dZOAnXlqHWZGFc6+x2F2M7w+obnex1ufenXZtXYIxmjcPsaqn4+L0NiOx0Uz3HWjX5tX1gfSsc0+1miUcpgUL+gKjym0mF30I2bHkFGLYsu27aHx8T7Bu65kG5eH3VfdOsF3XpZFOU8IMr2J92fUokz7UTuuTHP58agbzRKn8QVVIZ42RXLKP9MFCXdwkRtZyd5LjVq+UqiL+7Xt2sO/roi7HeCjFqnOzH368V+k7itOPoAftz+Ne938DamJdxtHtS+jJpnVJKqb8KIbakxwhOe4q7P4qxvAJK05Pz99l8AAAAAAAAAAAAAAACAhYJHLwIAAAAAAAAAAAAAAMBCwkQZAAAAAAAAAAAAAAAALCRMlAEAAAAAAAAAAAAAAMBCwkQZAAAAAAAAAAAAAAAALCRMlAEAAAAAAAAAAAAAAMBCwkQZAAAAAAAAAAAAAAAALCRMlAEAAAAAAAAAAAAAAMBCwkQZAAAAAAAAAAAAAAAALCRMlAEAAAAAAAAAAAAAAMBCwkQZAAAAAAAAAAAAAAAALCRMlAEAAAAAAAAAAAAAAMBCwkQZAAAAAAAAAAAAAAAALCRMlAEAAAAAAAAAAAAAAMBCwkQZAAAAAAAAAAAAAAAALCRMlAEAAAAAAAAAAAAAAMBCwkQZAAAAAAAAAAAAAAAALCRMlAEAAAAAAAAAAAAAAMBCwkQZAAAAAAAAAAAAAAAALCRMlAEAAAAAAAAAAAAAAMBCwkQZAAAAAAAAAAAAAAAALCRMlAEAAAAAAAAAAAAAAMBCwkQZAAAAAAAAAAAAAAAALCRMlAEAzIlisUhLS0u0tLRExWKRfwwxymazZzquZ+X4KpXKcD/W1tb4x7AAkAfgrOt0OpROp4f5vF6v81XOJH7ch4eHfJWFdnh4SMvLy7S0tETLy8vUbrf5KnNBrMPT6TT/eGJ4fHY6Hb7KVJycnFA+nx/um9vW7ezsUK/X46vPPV7uF6W+AzhLZqVvPiv7Matm5Xwe4KzBRBkAaOn1enRyckInJyf8I5gQ8aR/VgYAzqrj4+Ph67MY17NyfK+99trw9enpqfQZLAbkATjr3n//fbJtexh+7733pM/PKn7cb7/9tvT5onv77bep3+8TEVG/36fbt2/zVeaCWIeL6T1pPD7ff/99vsrE7ezs0MbGBh0cHAz3jQZt3bVr1+j69evS+rPOPQ8MmuDj5T6ovpvUuWW73aaTk5Op9ncB5sms9M1nZT9mVRLn86gvATBRBgAaOp0O3X333bSxsUEbGxu4ogcAAAAAAEDh8PCQrl27xt+WBE0izZq1tbXheeDdd9899iDqpM4td3Z26Ny5c7SxsUGmaeLOVgAAH6gvAf4OE2Uwt9rt9vBW47iWfD7PfwYGVwfyKyHn9RExIBMfVRO0rK2tUbFYxCNUpqzT6dD+/j5ls1np0TZLS0uUzWZpZ2cn8StzAQAAAMDfv/7rv0rharVK3W6XHMehVqtF5XKZHnvsMWmdWSbezdHv98e+G25S55ZvvfWWFH7llVekMBDV63XPeZ/OMkuPOAWA8aG+BPg7TJTB3BJvNY7Lhx9+yN8CH3fccQd/C+bQT3/6U+lE1c/p6Snt7e3R1tYWLS8v4wqjCet0OlQsFsk0Tbp06RIdHx97HnF0fHxM165do42NDUqn00gjAAAAgAnrdDrSxFKhUKCLFy9SKpUiIqLV1VW6fPkyraysCN+aL5/4xCf4W2ObxLnl8vIyf2vh/eIXv+BvaZmVR5wCQDJQX8KiwkQZzK3Pf/7z/C1IyD333EOZTGYYLpVKc31yB+Pp9/v08MMP409jJ6Rer5NlWbS3t8c/8mXbNj388MO0s7PDPwIAAACAhPDJgy996UtSeB6VSqXh60wmQw899JD0eVRRzy3Fu57S6TT/2NeTTz5JhmEQEZFpmnTx4kW+CoxhEpObADAZqC8B/g4TZTC3Njc3qdlsBi6WZUnf4Z/zZXd3V1of/i6VStHR0RE5jkOO49DVq1f5KnBGuGksLq1Wi2q1GpmmKa27t7dH+/v70nsQr3q9TltbW567/jKZDFWrVan+KpfLnjrv2rVreBQjAAAAwIT8+c9/lsJ33XWXFJ5HV69eHZ4XHB0dDe+OG1XUc0vx/9z4ExWC5PN5+uCDD8hxHLp16xatrq7yVYDh4yN+S6vVQnwCnCGoLwH+DhNlMNfW19cDF96J55/zJehKNoBFtbq6Svl8nm7dukWFQkH67MqVK9Tr9aT3IB4nJye0tbUlvWdZFrVaLTo6OqKLFy9K9dfly5fp5s2b1Gw2pat0X3/9dWkbAAAAAJCMjz76iL8FMDf4+IjfgkF0AAA4izBRBgAA2l544QXpzrI4/tAbvHq9Hj355JPSe5Zl0dHRUeiJ6fr6Oh0dHVG5XCbCY2oBAAAAAAAAAAACYaIMAAC0pVIp+uY3vym994c//EEKw/hefvll6dEyhmFEftTN5cuXqdVq0ebmJv8IAAAAAAAAAAAABjBRBhCg1+tRvV6nfD5Py8vLwz8RXl5epmw2S/v7+9qPndvZ2Rl+f2dnZ/h+r9ej/f19ymazw8+XlpYom81SvV6XthEk6e2L3y8Wi/xjj06nQ5VKxfO76XSa8vl8pN/WIabV2tra2L8pbuPw8HD4fqfToZ2dHenz5eVlyufzI/8X1MnJCRWLRUqn09I+F4tF6nQ6fPWpe+CBB6Swzj6K+UEsS0uDvLizs0Ptdpt/TVvS25+0n/3sZ1J4d3c30iSZK+zuszDFYnEYj2tra/xjpXa7PUyD5eXlkePdLc9iWq6trVGlUtGud3UF1Z+VSiVSeXfriDjLc7vd9tQ7bnwUi0XffVEJqtui1kNu3SWWuTjTKIk8cHh46DnOJaGe8DtWrtPpSPnc/V6v15O27+YX1XbddovXW6P0MaJw080vP4n5ws88t7k6Op3OsO/E88oo5S6qdrsdmEZRf7teryu3J6ZVEnnNj6qejCNdkzxOtz+dz+d984RO2RlFu92W+tPpdJqvMjLxPMGvHlLVX1HV63Vp27rbFOM6Sp0iUrVVYe1bVGL6bG9vS59tbGxI+WVpacm3b+S2Ufz8KY52wa2zef7V6SdXKhUp7uIgHmNRcW4p7iePUx6fS0tLlM/npXVoEJ+j9knj6i+4ptXmT9vJyQnt7OwE5mnduIyj7zUKsc8TZ9rNankP4uZhvs1R6+dRJXGO0El4PCHOshBVpVKRjkmVXrr1pV85pATGtdz+Io+zsMVv3wG0OABnWCaTcYhouERRq9UcwzCk76sWwzCcarXKv+4h7ksmk3Ecx3EajUbob1iW5XS7Xb45j6S3L37H3b4f3bizLIt/NbJut+sUCgXPtv0W0zSdVqvFN+MhfqdcLjuO4zjlctmzPb4UCgW+KV/dbteTR1VLqVRyHJ80Hhf/fR3NZlP6TtC+RE2fTCbj2LbNN+Mrqe3z70xSo9GQft8wDL7K2HSPL4780Ww2+SpDqu23Wi3HNE3pfb4YhuE0Gg2+uZGpypZO/cnLe7VaDf1OrVaTvhNEt46gEfN2lLpN3O9ut+uUSiXPOuJiGIZWXcuPz0koD+hs011KpVJou6jK50G/4ca1K2hdcTEMQytddUTJT5ZlKdMvap07S22ujlarpR1HNCh3UfMKzwtcWNlyF7dvEKTRaGjlM4rQn9Xld9w6x5fL5ULjVZT0cZbL5dC63V1M0wxs91w8f/t9p9vteo4trnyv21+ngHzLy4sf3ePldPbB8dm+bp0XtF1dfJthCz/+KHnMMIxIfQnd9oYCyh6PRz9+5V5FXE/VF+X7prNwqnwRJkp86fQXnAjbjLPN16WbtlFFbU914pLnr2bEvtcodOvJKG3LPJZ3ne3qjivpGnU/op4jRO3b6p5zuZIoC45GHeqqVqvSun7naLr1paocdrtdJ5fLeY6FL1HyMt+fKEscZR8WV3wtIcAM4g2SLlVDaZqmk8lknEwmo+zYhJ20ivuSyWS0BgrcRafTkfT2xfWDGuJarabcvl/cjSuso6RadE5CxPVLpZInLwUtYXnBGXTILMvyfNdvyeVy0vpBaRAFPy4dfCInl8vxVRxHsyOrWvw6b1yS2xfXjyuudfGyqzMYGpXu8Y2SP1SdZz98+6r6I2iJchIUZJz6s1wuRz7BCooTV6vV8tSXNNi/TCajrD+i5u2odVuz2XRs21b+tmoxDCO0beG/n0QeUG3TMIxhXKrqkbB2kefzsIEU8YRNlbZiH4Pvj05+CaP6zbBFVbfzfdNZZqHN1WHbtmfbOkvYRT88rwSdvKvqETdf8DjJBNTdjqIt0V3iik9+3KVSSbvuII14dSV5nLoTLaolbDCIDwCpyrmqr6iz3zpUeS1sUbUvPH786ByvividoLLDt69z4Yq4jNvX4vEQtohxOUpa0BjtX9iiGuznx+eHl/ugNBPXU9VnUdsbVZvF80VYvlPF17j9BVX7m3SbH4Vu2kYR1ifyW8LikuevsN8Jyn86VGVz3DEh1TZ1lmmW9yjbDUvDKMbZD9KMsyTHE5wEy4KjUYc6ijwRtN+69SUvh9VqNVIchvWPHJ++nTumyPtFqsXvGAF0xNMSAswo3rjq4FdcWJalbCSazaankg5qjPm+iEu5XB4OInW7XeXJXVhHL+nti+v6NcTdblfarmVZysGxVqvlFAoFx4jhThm+X7VaTfpN27aVHZSwTqy4rrgYg6u63I6LbdvKhlyVZ0S8k6zabjngajO/NIiK5xsdfN9VHWzV4I5pmp70abVayuM0TTOwc5j09sV144prXTxNguqVUekeH98XHbzzHFQW+PbFpVAoSJ3cRqPhSXNDYyJGh99+GIbhlAcTYc4gP6mulhP3i5dlVVthmibbA1lXcQeBuB/ievykJmxwme+7uE/iiYsqvk3T9NTxYv4cpa71i3v3u+PmgVar5VlfdYJm27YnbYMGTnk+F4/bjctms+lUq1Unl8tJ5UA8ZsMwlGVEbAPiONnj8eamnRh3jUZDqt9VdYO4jXlqc3XwNC0UCp44ctsU/vuqPOXi2/Xrb/H1CoWCMm83Gg0nk8koB4VdNcVgUqFQkOKp2+0Ot8XXVbXrUfHjERe3jIjpqopXv7hyJX2cvL/jtglimXTzPK+zKWSghh8vz8Oqfk5YOdLVYBc80SCu+XHxwS++j46iDvcTdrx++D764dsXl0wmI7VVfm257j6F4fsStl0xDk3TdKrVqpQWbh7m+SGsL2Hbtqcu5u1Rt9t1arWatA+qeNZNZ17uVdtyieup2hsRj1Nd/HtBaZFUf2EabX4Uummrq6WYGHTLoNimNZtNTx1LPhOeLp6/ovS9oprEmNC8lHdxKccwrqQraD/iOEdQtbNxjickWRYcjTqU95HC6hfd+pKXQ3Hh54Ytxd10YenCt28pxhRtxYWbQccGEMX4LSHADOOVchjewVA1OKIuG8wM6sDwfaGQxoo3EEHbdiawfXFdv3jhjTFv0JJgmqaTy+VCf0t18hOExyWFXNnDOxZBgxk2u2o9KJ1UnQAKSIOoeL4Jw8sI+aQzH8gMijvHp6Ma1MlOevvienHFtS7xtymhTp/u8UXNH46ibvHrZDuK7VPAIIIzQjrq8tsPv7hXrU8+HXlH0VZQSLry/O0XHy5+Mq8a2HHxfXb3W1V+uuziB3HxG8SPWteq4jLOPCCuG3Zi5jiOZ/BLlZ6OIp+7i1+8uHj9H5RWceHtUybkcYGtVsuxLEs58DePba4uN23Kiklpjpe5oMEMnlf88qs4SBLWJwuiaqfD8hnvv+mUlTD8uN0lqIxE2Y+kj5NPJgW1CS4+0BXUvvI8zOs8vq048rjjU68HDeo6g301fO4M5XW4n7Dj9SN+x6/sOIrtu0vQZCiP46D0ioLvS9ixFgoFx/IZhBdF7UvwtFHV6aLG4JHTqvzAt+WHl/ugNBPXC4t7Hqe6+PeC4jiJ/sI02vyodNNWF++jhdVdqskEv3Ti+Uv8jbD0ioK3L2H5k5fNoDZ8Hss7hbSBPF2Cjj8Kv/3wi7uo5wj8fCuo3+mMsH2+bpxlwQmpQ/m2gtLPpVtf8vTWOT6elkF1oVi3BtXFvIzwOAAY1fgtIcAM4xVyGN5Yqjq8HD/p9mtQ+L7oNFb8O0H7w9eNe/vien6NEG9cZw0/IQ6KH3E90uw4iZ2RoA4i34+gk3jHp1PmlwZR8TwQRLUfqg5Rt9uV1gnq4Ih0B1aT3r6jmd+TIv42haTJqHSPL0r+cPHOs1+d6Ci2r1Nv8e0HlTVdUfeDD6CSRh3B2wq/Eyuev1VlTEX3RCHqfvN2UWefeB03rTzA0ynopMzFB7X80onvA2nEpaP4XlDcxEXMG7r1ZRx4PghK16hxGaXNTQqPVz88zf3ylFgWgspwGF5m/X6P44O+YX2TMPy4SaPucBR1gl+5Tfo4eX9Hp6zyQRsKyPe8zyxun5cdnXjTpdsW6eLp5SfoeIPo7ivfPgXkHRevRyjkXEgX3xfdY9XB088v//K2bJw6xYmQzrzcB6VZlP3jcaqLf88vLZLqL/D48Pv9adJNWx08HsPS1aV78QmPT9LoL4yCty869QIvm3GkNd/mtMq7Tt+cf0cnzsLwbersB88jfv1Dfr6l2z/WHU9Iuiw4AXXoKJNkToT6kscxafRT+HeC1hfXC5vw5fsMEId/IAAYOjg4GL4uFAq0srIifa7y0EMPSeHXX39dCvu5ceMGra6u8rcljz76qBR+//33pXCQpLev8olPfEIKn5ycSOFp+9znPieFb9++LYX9mKZJR0dHlEql+EdDqVSKvvzlLw/Dtm1Ln4t+//vfD18bhkEXL16UPudSqRQdHR2RaZr8o4lot9tUqVTo7rvvptPT0+H7hmHQCy+8IK1LRPTqq69K4WeffTYw7lyrq6uUy+WG4X6/T4eHh9I6NIHtw/To1Fvr6+tkWdYwbNs2tdttaZ1xhe3H5uamFDYMgw4ODgLz4f333y+F//rXv0ph1/Xr16Xw9773PSnsR8zbx8fH0md+dOq2r3zlK1LYsiza3d2V3uO+9KUvSeG//e1vUjhIWNxThDzwu9/9bvjaNE3K5/PS5yorKyvStl977TXpcz86eYCI6I477pDCun2GUZ2cnEjtUT6fD93HuMxKm5uUdDo9fN3v96XPRvHJT35y+PrNN9+kXq8nfa5rb29v+NowDHrqqaekz/1cuXJFCv/85z+XwuPK5XKhdQcR0TPPPCOFf/vb30phV5LH2W63pf5OJpOh9fV1aR2VVCpF3//+96X3/uu//ksKhykWi9KxFQoFrXjT9Ytf/EIKP/bYY1L4rKhWq6F1fiqVokKhIL3H2+BZc9ddd0nhjz76SAq7eF/5ySeflMIgS6q/MOk2Pw5LS0taS6VS4V+lV155RQo/99xzUtjPxYsXyTCMYfjg4ECrDdTte0U1yTGhILNS3nX65nGPK6no7IfuOQKPs7jHEyZdFlztdpsuXLgw7JcahqEVb+PQ6d+tr69Lx9XpdKTPXTytvvjFL0ph7oEHHpDCszb+CPMJE2UAA+12Wxpo4QM8fniD+qc//UkK+9FprO69914p/PHHH0vhIElvX+Wf/umfpPAjjzziaeymiTekutLptCedVb7whS9IYVWnptPpSPlMHOgLkkqlpEG5pPCToKWlJTp37hxtb29LA4Fup0sVLzdu3JDCUQZhvva1r0nht99+WwrTBLYP06NTb5Gi3Pzv//6vFB6Xzn5kMpnh6/vvvz/0JJp/7neCwAeF+ff88AsVdOpenbqNDw4//vjjUliFn9i/9957UjiITtyTZh6o1+vD11HqTzFO3nzzTekzP7oDKaurq9KJ4vb2trSfceMDNV/96lelcJJmoc1N0oMPPsjfGsuFCxeGr/v9PmWz2cjH1G63pbY6ysTo6uqqdEGOOFEUB55efs6fPy+FVZOgSR/nH//4RykcZdCRD5a+9dZbUjhIvV5PdJKM2IUUlmVp1VvziJ/j+OGDcFHaq2ngbbIfPmnD8yXIkuovTLrNnySex4hdDGqapnZ+pUE9LnrnnXeksIpu3yuKSY8JBdGNP54WcZd3nb45r3PHHVdS0dkP0jxHSHo8YdJlgQb94Keffnqik2QUoX8nXjTq17/lF9XdeeedUhhgEjBRBjDAK+Vf//rXlM1mtRbRhx9+KIXjpGqE4zTu9lVX2Jw7d46KxeJCXt2h6tTwq6t0OxazpFAo0Lvvvuvb6eJ3nUU5geED7KqTjKS3D7Pvs5/9rBQet+6aJWIbYhiGp73xW372s59J2+Ft2lmjkwfEgfRbt2554sxvEQe7dO8U4hOVQX74wx9K4a2tLcpms4kMnvE7F//xH/9RCp8lqjZ3njz22GOeCZy7776bdnZ2fCfWOR4Hfu20Hz5ArDPhHrdUKiUNLKsmspI+Th6+5557pHAQ3idRDZ6r/OpXv6Ktra1hOIlJMp6P1tbWpPAi+sxnPiOFo0xszrJbt24NX5um6RnEB1mS/YVJtvmTxO8g6nQ6UhyId/Xo4BNSf/7zn6WwSpS+ly7ef57FMSFuFsu7ql8+KTrnCEmOJ0yjLPR6Pcpms8PjmtQk2ahUfTtSTA7zC/64//7v/5bC/PsAo8BEGcAAr4RPT0/p+PhYa4H/56WXXvJ0Bvb29mhjY4PS6TRVKhXfK0jG1ev16PDwkCqVChWLRU/n9Tvf+Q7/ytQl0cGPm2malMlkqFqtkm3btLu7G9gBF6/C44+bC8MHo1QnGUlvf9YkVV7mGb9q8SwR25R+v+9pb/wW1V0XZ1lYHuAXZ9i27Ykzv8VvsCsuFy9e9Dzu6/j4mLa2tmh5eZmKxaJnQHtUfDtRBgLCzGObG0Wn06F6vU6VSoXy+bzn+Pjk9LhSqRT95je/kSaJ+v0+Xbt2jUzTpLW1tdCBVX43TFg54e677z4pzAcMJyWsbU/6OHm5iTrQJPaDdesT8epzUuxDHPjFWnwwbhFFTdtJODk5oUqlQjs7O556J8sG4/2IfQI+MQyypPsLk2zz4+A4jtbC/zqA1y9RLwb9/Oc/L4X9HjOYtEmPCaG8x0+nT5DkeMI0ykK/35cmn/r9vqdvMy/EPtTPfvYz37GQXq8nPSaVj0ECjAoTZQAxi/J4lrMolUrRzZs3qVwuS4M9NOiQbG9v09133618rvmoOp0OFYtF+tSnPkUPP/wwbW9v097enqfz6nflyiTxzrdOR26S+EmQ4zh069YtOjo6oosXL8Y6yKoSNAEXh6S3HwdebviV8wBhLMvynMTBaPjgVlx2d3ep0Wh4/nuy3+/T3t4emaZJxWLR9+RwmuapzR3FyckJZbNZMk2Ttra2aHt7mw4ODjzHl8Tk9OrqKr377rvKfHd6ekpbW1uUTqeV/4cRh3m4eCcOSR/nKH2Nn/70p1J9cHx8HGtfGWZbr9ejSqVCy8vLtLGxQdvb23Tt2jVPvXM84mA8JE9Vb7vmuc2flLP2iLWgMSGU9/k2ShsfxShlIZ1OU7Vald575JFH5rJO+clPfjJ8bds2ZbNZz8UEnU6Hstms1Bf/l3/5F2kdgFFhogzAR6PR8EwY6Cz8mcKL6vLly/TBBx9QrVaT/suHBicF29vbscRVvV4ny7Kk/3SYZfxRAHziDIBf1YY8srgsy/K0MTrLzZs3Ez+JmzelUskTTzpL3I8+E21ubtKtW7eo2WwqB9j29vbo/PnzM3WSO29tblQ7Ozu0sbEx1cGpVCpFu7u71O12qVqtegZWbdumhx9+mPb396X3Yb7deeed9Jvf/EZ6b3t7O7FJUZgd7Xabzp8/7/k/YJiOpPoL89jmQ/xjQijvkJSLFy96/gZF967EWbK+vu55BLf7ZIVsNktra2tkmqZ0QV6hUPAtcwBRYaIMYIDf4qx6ljFEl8/n6ejoiGzb9pwUHBwcjHW1bLvdpq2tLamTmcvlqNFokG3bng5rs9mUvj8N/JnWZ53uf3O4+ONP+OORuKS3Pw0PPvigFP71r38thUHvWe3zSnxsxLzekTMJYXmA31E3y/87s76+PpwY4Xdj27ZN3/jGN6T1x8GvyIxiHtvcKPb39+natWvSe6VSiZrNJnW7Xc/xlctlad24pVIpunjx4nBglV90dOnSJU+bxoWVE+61116TwrwcTUrUtj3p4+T/WRZGnGiN8iig1dVVqtVq0ntPPPHEWOU2CP8Pw0UUNW3j1uv16J//+Z+lq+Ity6JarUatVstT7ziOI31fh/j/ReDFy3/S/YVJtvnTxP+3KQy/MJCPzUwK/904x4RQ3icjap8gap+D973CxhMmWRb436Ccnp7Szs6OtM6s29nZUU4iu49B5efHpVIp9EIFgCgwUQYwwG9xxsljvFZWVmh3d9czcDbOf3zwP0eu1WpUr9dpc3Mz8UcEjuqOO+6QwlE7TvNAHMzr9/uRBnj+9re/SWF+Bx5NYPvTxgdDT09PPR3yRcf/n+aBBx6QwvOM3wkWJX8vkrA8wONxHgYOUqkUXb58eXjlpOv4+HjkfMAn3v/yl79I4Sjmsc2N4sqVK8PXhmFQq9Wiq1ev0vr6uic/Tdr6+jodHR15Jud+9atfSWFeDqJOAojlxDCMqRx3r9eTBkh4m0gTOE5ebqI8ApmXVX5HYJh8Pi9dWNbv9ymXy8Vylwn/k/ubN29K4UX0v//7v1KYp33SXn31VWnQvFAo0M2bNymfz4/1/2liubFtO5b8c1bx8j+p/kISbf408fqFD2aH4WMvn/nMZ6TwpCQ5JoTyPhlh5wiU8HjCNMtCKpWin//859IE/LVr10L/43ZWdDod6aI127apWq16+oKWZVGpVCLbtunq1avSZwDjwkQZwABv0PifakM81tfXpQEAsbMYlZhGlmXNxe3WvBOsm886nU7kq52mhV9VFWW/f/GLX0jhhx56SArTBLY/baurq57O4He+8x0prKvT6Yx1svTJT35SCuucRES9ik+kO9gp/nEvKa4Gnmd8kC5K/j4L4swDfOBAJ//OgpWVFXrxxRel9/gfg+viJ+//8z//I4WjmMc2V1e73ZYmZwqFgqe9ngWXL1+WBlR5nublQLePQYMrpMU+Wdzpq3th0PXr16Uwb/NpAsfJr97+wx/+IIWDvPrqq1L4a1/7mhTW8cILL3iuCH/++eeldUYl5p/T09Ox+ghR8P+F4wONKrrtgYpuX+R3v/udFOZpn7QbN25I4RdeeEEKj4pfvPDGG29I4XkXd76dZn8hzjZ/2sR6K0o89no9aSDfNM2ptcFJjgmhvI9Ht03QOUfgfYso51s64wnTLAurq6ueO6yKxaJ2/E2T2IfKZDK0srJCFy9epKOjI+lOy5s3b9LVq1c9eR8gDpgoAxCIz/S1bRv//5AQ8QqXcYiDWvxqQJWPP/6YvzUV/NnRYVf49Ho9yuVyylvQZ9FXvvIVKfzcc89pndCenJxIjytyO0dc0tufBc8995wUPj09pWKxKL0Xxv0voZdffpl/pO0LX/iCFA47iajX63Tp0iX+trYLFy6EduLr9bo0yJnJZLTK/7zgk6S6+fusiDMPPProo1K4VCpJ4VnGr2geFT9539vb08pPOzs7ngmEeW1zddy+fVsK80F9lY8++oi/NRFBfahUKuUZ8NXty/KB2q9//etSeFwHBwda7Rhv/3ibTxM4zvPnz0vxvLe3F1ov0aC/9qMf/WgYNgzDUwZ1qK4I39vbC+0v6hD7oESk1Udot9uUTqe14sDPvffeK4XDJh/b7TZduHCBv63t0qVLofHV6XSk/1s0DIPOnz8vrZO0Dz/8UAqH1a069TcR0Ve/+lUp/NOf/lQKq/R6Pcpms9plaZqi3OWpY9r9hbja/Gl7/PHHpbBuPL788stSH+Ob3/ym9PmkJTUmhPI+njjPEXjfQvd8S3c8YdplQXV3+tNPP611jACLDhNlAIJvf/vbUvjKlStajzzrdDpULBZpbW2Nf7RQ0uk07ezsBDbAvV5Pusonyn83cOJVsW+++Wbg7x4eHtITTzzB354KfnVxsVj03fd2u03ZbDbyLfvTtL6+7rmKKuxK6Ha7TY888oj0Hh8scyW9/Sjck4ylpSVaWlryDCyPit95SYNBsmw2G3pFWqfToXw+7/kvoVFEmbTZ39+nra0t/nYk/X4/8CSo3W57BlqffPJJKTzv+B2Fbv72i3dRvV6ndDpNh4eH/KO5EWceeOyxx6SB5oODA60BgV6vR5VKhZaXl7XiPYpisahVjl955RUprLoaVkcqlfKcKH/rW9+S1hH1ej0qFot07do1z4DOvLa5Oj796U9LYf4fVlylUvH8n9k4Op0OLS8vh+bPdrst9Qf4FdFERM8884wUvnLlim95chWLRc/AD7+qPg57e3ue8isqFovSAJdpmr77keRx8nJDRKEDTG5/QGx3n332WeUAnY7V1VX65S9/Kb23tbUVeoxhnnrqKSm8vb0duM2TkxO6cOEC2bbtmVCOYn193TPx5/e77m+O24fZ2trynSzrDS5CE+Xz+ZHTa1R8gDXovNM9J9CxubnpeZxfUP3S6XQom83S8fHx1C4CCMLvjub/4TOupPoLcbb57cGE9dLSEi0vL4/1P99JUcWjXxl01et12t7eHoYNw/DUU5OW1JgQyvt44jxHSHo8YRbKwu7urufu9KBzgFkgXqh2fHxMlUpFWbeOan9/fzhuk06nQ+tmWFAOwBmWyWQcIhouOnK5nPQdInIKhYLTbDadbrc7XM+2badWq3nW9zPKvjSbTek75XKZrzKU9PbF9TKZDP/YcYR1DMNwSqWS02w2h591u12n0Wg4lmVJ26pWq9I2oigUCtK2crmcY9u2tI5t25713EXcP07neLlyuay9fR4Ppmk6tVpt+Llt2065XHYMwxiuI77W3acwo+QbHTxvEZFjWZZTq9WkctRqtTzHSYMyFyTp7YvrBsV1rVbz7EdQukfR7XY9+cRdcrmcU61WnWazOVzK5bInPYlIylcu3eNzHMcxTVNa37Isp9FoDD9vNBrS7/K4DoqPoO+Vy+Vhee52u06tVvOsE7bvuni86RC/o7sfuvvearWkdUmoI1qtlrRus9l0SqWSlE7j1uWc+J2gbbt4+Qz6TtJ5oFqtSuu732k0GlJ74bZRhUJB+g2//BvlGEXi8RYKBafRaEh1VrPZ9PQrcrmctI2obNv2xJtbjt3fduNXzEc8bnlbOk9trg5e15XLZSltnEH68PrCXfzo5BVxHdM0nWq1KpV1t8/J05HXBy7VPpZKJWl9N8/zdQ3D8N1uFPy4xX3n7Uir1fLke9JIU77vcR5nt9v1xLdhGE61WpXyvZs2PP9YluXJPyLd/FsqlaT1TNMM3K4Ovk0a5EsxPlqtlqcsq/aRx2sQvj3DMKR+m+o3xTRQlR2XGJ883XK5nHRsqvMRwzDGjleXbto6in6kZVme9bvdrrIvSyFx0mg0POvncjlp+6rzDdU2ddOZl3vVtlziemH1Pu8XGYYxrEPcMq7q70ZJiyT6C3G2+bxsUEA6RKGbtrp4nLvHJNb5zuDYVcekSkdXlPw1Lp4uFMOY0Fkr76Ik0kbcDx4f5RjOEfg+U8zjCUmWBUezDlWdA/iNv/H95XnTxeNNN6118pWq78UXy7KcTCYzXMrlsidO/fB98IsLWGzq3AlwRvCKUEc3YHA6bPHr2Doj7kuURijp7Yvr+TXEfJAgbLEsi28iElXD7243k8l40tEwDGkf/Rp/R/N4Od3OhTPocKn23W8pFArS9nX3Kcwo+UYXPxnQXcI6na4kty+uHxTXPM0pJN2j6na7njSKsvgdq7hO0PE5inoiaDEGA4/ie0HxIR5buVxWniT4LYZheAbpR8XjWIf4nbA4dIm/EfadUfM3BQyeOxH3wSV+J6idcPE8E/SdSeSBKNvk2/cT5RhFUfdF9xjDjJKf+EnnPLe5OlSDTO7+ZDIZTx+HH68fnbxi27bnd8OWUqnENzM0al/WrcPjwI87ar8n6PhcSR9n1H12l7BJMidi/uXHqFtG/IwSb3599ijtp84AmLjUajVPG+GH95Gj1nm8vhtHlLR1FOlLgwlRt+7hn4nrB8WJE2Obw/fDDy/3QfsnrqeTp/k+8EXVZkdNi6jxFfTbzgjb84t/x+f448C3G4eox+0uYRMDUfLXuEapJ90laExItc15Le+iJNKG1/9Rjs/v2LiobYW7+J1jc1H2WVzCyoIToQ5V9W9VdaFufTlqWuvmq1arpSwnYYtpmqF9O74POvEMiwePXgRgUqkU3bx5k8rlMv/Il2EYVC6X6aWXXuIfLZTf/OY30m3/QXK5HB0dHfG3I1lZWaEbN254fvP09JSOj4+lxxNlMhl69913KZ1OS+tOy+rqqnLfOcMwqNFoeP6QdR7k83lqNpuhx+gyDIOq1ar2sSa9fR38UTBxS6VSdHR0RLVaTfs4afBI02azGcuxrq+vU61WC/xfHBqUsdPT08h/OCza3d2larXK3/awLItOT089jzA5S/L5PLVarUiPp81kMtRsNsdKg2lLIg/s7u5So9EIzcOiQqGQyCNvX3jhBc8jTf1YlkU3btzQOsYw+XxeOw5M06Rms0mbm5vS+/Pc5urY3NxU1nXHx8d0fHwsPRKwVCrRzZs3pfXGsbKyovxtP+Vyma5evcrfHnLbDt3/xKCY6vAgq6urdHp6qlWnVavVwONzJX2c7j7rllka5I2jo6NYH+F3dHQk5Q33cUSjcuONP3rQj3tM40qlUso6hHProHEeZ+32EcPKlGEYyvpuko6Ojjx5zLbtYd3jMk2TWq2W579vguzu7mqf07plI442JwnlcjkwPcPylY64+wtxtvl+788ity+nG49xlPm4JTUmhPI+uiTOEZIeT5iFsrC5uenJF4888kisjzSM0zvvvONbpwaxbTvw0Zwqd911F38LIGAaF+AMEK+KME2TfxzKtm2nWq06GZ8riQuFgufWbD+j7It4JashPGJCJenti1dfhF1BU6vVnEKh4ImzTCbjeSROHLrd7jCdxCtVTdN0CoNHJLjcxyKEXU0c5Xhd4hVJpmlqXcUk7juPq2q1KuUt8Wog3X0KM0q+GYWbJ/jVQaZpOrlcTrsc+Yl7+7rpz+/4Clo3Du6jXnh+MQzDyQwePRCUr12j7LNt206pVJLi2DAMz2M9HOHu0rByJj7+Sbyiyx48vk2sQ9zfSuLKr1HKgXiFoG4cinGnc7eEK650d0ZMezEddOKf33kU1LZMMg90B49myeVyvnUFf6yaH9u2I8eLqDl4ZCbfD7dvERRn4xDjgLeXunE7z22uDreu4+XNsiynVCpJv+Mef1C9ESWvuHHL08ct67r5U2QPHrXE04sS7Jc5rB7g8VNjdwr5xW8USR+nW2b5fo+aNo1GY7ifYeXDGfy+eFy65SRMq9VS1kVunIUd0yjtZ1Dfl5cPsa3ln4n8+sjdwWPMVMfH+9lxEffF0LyrwRmUi1wuF9ruiY8IDIoTkS2c04rx4LY5vB/H6aZzlPpulHq/2+168qsbR6oyFLWcueLsLzgxtfmtVmsYt8bgMbBx0E3bUYhtmpgvoh67K0r+ipNYfvyOoxbxXPMslHdRlHElXZM8R3ASGE8QxV0WnBHqULdP7sYXrw9168tRy6HYnmd87oDjd6tZluWpZ1utltNs/v2vJ6rVqic+/bbtsHNaw+dOYIAl5++3bAIAAAAAAAAAAAAAAExMOp0ePsHBNE164403Qu/Q7/V6lM1mpbvQut2u53v1ep22traG4Wq1ShcvXpTWASAiwqMXAQAAAAAAAAAAAABgotrttvSY8xdffNEz2aWSSqU8jyh95513pDAR0XPPPTd8nclkMEkGvjBRBgAAAAAAAAAAAAAAE3X79m0pHOX/wz766CMpfM8990jher0+nIQzDEP7P+ZgMWGiDAAAAAAAAAAAAAAApur111/nbym1223a29sbhi3L8tyJ9u///u/D17u7u7SysiJ9DiDCRBkAAAAAAAAAAAAAAEzUPffcQ4ZhDMPb29tUqVSo0+lI67l6vR7V63W6cOEC9fv94fs/+clPpPVOTk6G/1+Wy+Uon89LnwNwS47jOPxNAAAAAAAAAAAAAACAJNXrddra2uJvk2EYdP/99w/Dt27dkv7PzFWr1TwTYfl8ng4ODsiyLDo6OvLcbQbAYaIMAAAAAAAAAAAAAACm4vDwkJ555hnlRJgf0zTppz/9KW1ubvKPACLDRBkAAAAAAAAAAAAAAEzV4eEh/e53v6NOp0PHx8fSZ+4dZvfddx998YtfxAQZxAoTZQAAAAAAAAAAAAAAALCQ/oG/AQAAAAAAAAAAAAAAALAIMFEGAAAAAAAAAAAAAAAACwkTZQAAAAAAAAAAAAAAALCQMFEGAAAAAAAAAAAAAAAACwkTZQAAAAAAAAAAAAAAALCQMFEGAAAAAAAAAAAAAAAACwkTZQAAAAAAAAAAAAAAALCQMFEGAAAAAAAAAAAAAAAACwkTZQAAAAAAAAAAAAAAALCQMFEGAAAAAAAAAAAAAAAACwkTZQAAAAAAAAAAAAAAALCQMFEGAAAAAAAAAAAAAAAACwkTZQAAAAAAAAAAAAAAALCQMFEGAAAAAAAAAAAAAAAACwkTZQAAAAAAAAAAAAAAALCQMFEGCy2dTtPS0hItLS1RvV7nHwMQEVGxWBzmk2KxyD+emFnZD4C4dDodKhaLUl2cTqepWCxSu93mq4fqdDrStg4PD/kqC+3w8JCWl5dpaWmJlpeXR4pjgHmSzWaH9cHOzg7/GGBi2u026l8AAAAAgBmGiTJYaLZtD1+/99570mcArk6no3w9abOyH2dNp9Ohk5MTDFpNWL1eJ8uyaG9vT6qLbdumvb092t/fl9bX8f7770vbevvtt6XPF93bb79N/X6fiIj6/T7dvn2brxJZr9ejk5MTOjk54R8BTN3x8fHw9VtvvSV9BjBJt2/fjr3+BQAAAACA+GCiDAAAFtbh4SGZpkkbGxt07tw53HEwIe6dZO6goQomg2dfp9Ohu+++mzY2NmhjY4PW1tb4KgAAAAAAAAAAMw8TZQAAsLD4HUd7e3tSGJLx8ssvS5NkhUKBbNsmx3HItm2q1Wr0zDPPSN+B2fP+++9L6Xh6eoo7MwEAAAAAAABg7mCiDAAAYGB5eZm/BQk4ODgYvjZNk3Z3d2llZYWIiFZWViifz9Pm5qbwDZgXd9xxB38LAAAAAAAAAGCmYaIMYIrwx94A8ajX67S0tERLS0uUTqf5x74ymQyZpklERIZh0IsvvshXgQSI/yP25S9/WfoM5sc999xDmUxmGC6VSsMJT4Aw6APNDqQFAAAAAAAsOkyUAUwR/tgbIB7vvffe8LU4CRNmdXWVbt26RY7j0AcffED5fJ6vAjHjA7Cf+9znpDDMj1QqRUdHR+Q4DjmOQ1evXuWrAPhCH2h2IC0AAAAAAGDRYaIMAAAAJgYDsAAAAAAAAAAAMEswUQYAAAAAAAAAAAAAAAALCRNlAAAAAAAAAAAAAAAAsJAwUQZnUr1ep3w+P/xj8qWlJVpbW6NKpUK9Xo+vrq3X6w23vba2Ntz20tISpdNpyufzVK/X+dckxWJx+J2NjQ3ps42NDWmb7p+qh2m327Szs+PZp7W1NSoWi3RycsK/EptOp0P7+/uUzWYpnU6P9fudTkf6M/lOpzP87OTkhIrFovQb6XSaisWitF4USWxzFHHvR71el/KP7jbE3w/Kxzs7O8P1dnZ2hu8fHh5SNpuV0n9/f1/6riuOsiTu7/b2tvSZuD13Uf3/WKfT0T5u7uTkhHZ2dqRjXhrEeTabpf39fe24JyIpHg4PD4fvdzodT/leXl6mfD6vXbbGEcdxViqV4fd4vbe9vS1td2lpyTffjMONRzG944jHer1OxWIxMB+P2u70ej3a39+nfD7vW7+KeSVO7XZbSvN0Os1XISKS1ikWi/zjIb96wz1Gnr+y2Wyk8ihy6xYeZ0GLqn7QdXh4ONzO2tqa9Fm9Xo90bG58jFPe2+221P/RzSNi/yQoLV2dTocqlYrn+ILq8CT6QKNQxfNSSNqEEds1Mf7FunLUuiCM+9vZbFb7t5NIi7jrLL96I0p/wyX2V8X9CsqvOpKowwAAAAAAYAocgDOk1Wo5pmk6ROS7GIbh1Go1x3Ec6f1yucw3N9Ttdp1CoeDZlt9imqbTarX4ZhzHcZxMJuNZP2xpNpt8M44z2C/d7WUyGce2bb6JkbVaLe3fdn+/2+3yzUiazab0nWaz6XS7XSeXy3m2xxc3TXXoxlupVHIclmaZTIZvbmRJ7Ue5XJa+75d/OPE7QeVBtR+lUsmz3+4iirMs8XV1Fo7nuaDjdkXN+6VSKTTvOz7xz9NStRQKBb6pWMR5nFG2Q5rpoOKXnkH5011yuZzv/qs0Go3Q9sZdDMNwqtUq30SgcrnsGIbh2ZZqMU1Tq5zz/OT3nW636zk2v3wmrhNUL6nqjUajEXqMlmVpp0ur1XIsy/JsQ3cZFY9XR3Nf+LE1m01PvPPFLx1EfuUgjCqN/NRqtdC0o8ExiqLWBRSQT3WI23GPSWffLcvybXtUdLZJI9YFYXT6vu5vi/3AuNMiiTpLlSeD6nM/Qd8RF939cumku9uP4eUyyu8AAAAAAEDy/M8oAOZMq9UKPVkVFz6wFTSQpDMAwRc+IOGKMkngbkfF73gzmYyTyWSUA3SGYUQa+PFj27Zn2zoLHzDj+CBCtVqNFPc6k2XdblcZN35LLpeT1g8bPNSV5H7wvK07GCN+J6g88IGrsAEoUZT0dBe/shR1W7lcjm/Ck+eCjtvRHBRTLXxAXEVcv1QqRRrE1Bk8jyLu4+R5MmwZdSCZp2epVIpUzsLqKFdYnvdbdNJJdwJdtYTVgTwdVHWDqm4K2m9xvaB6KWq9IS5++Upk27YnzxqGMWwT+Wd8UdUPuni8Rik/bpxVq1XPZ35LWD3Fy0HY+i6eRn5qtZpnnyzL8o1rUVx9IF3itjKZTKTf92t7ONU2TdP0jQ8KKVNRqPqC4m/zdlIs86r9Dlr80iLJOovnybB6g1PVZ8TyK/+MNPbL8SkHfothGJ59V9W/AAAAAAAwPd4zCoA5xQcDLMtyGo3G8PNWqxU4KBA0kCSul8lknFqtJg2e2LatHBgLGwjhg1m6J82qq/3L5bJnILHb7XoG8HQHgoPw/S4UCk6j0ZB+v9VqeX6bQgYf+Hb5fvP05AMchmF44oDjecAY3GHofs+27cCrooMGD6NIcj94vOvmK/E7QeVBjHe+f4VCwWk2m06j0XBKpZKnDPBjiKss8WPWxfNc0HGrBiQzmYwn7zebTU/6ksZAPF/fXVR5gw+4UYR0DpP0cUaJ86j4tsXFNE1PPPJ8o7M/qsFRN9+7ut2u02g0PHUUaUwC8jg1DMMpl8vSRQ5uOeHtABEFXgzBj5fnGdWgcljZE9cNqpdUceEu5XJ5WA90u12nWq168mBYuvDtq+KZT0aF5VVdPF7FpVAoDI/NL8/xOBfjw7Zt5V3VQRM4vByExZ2LT0qodLtdKW0sy1Lui9vn8ptccRT7yfNjHHi8uYtbrsR8p2p7/OLBxfOUZVnK42g2m550Fvs0o+Ltseq3xf6EX/0wTlokWWfx4xO/F9bfcBzHU3ZyuZwyv/K0N0ImSW3FBWO5XE46Fr82wF2ixDEAAAAAACRPfzQRYIbxgcugq8+bzabnZJtCBpJM0/Q9uRa1Wi1pm0EDRM4YAxN8kDzse3wgJ2iySoc7QFBWTM5x/LeDBiZ5fLiLavDDxQchgo6ND2wEDRrZtu0Z1CKNQTMdSe8HH4gNyx8u8TtB5YHHuXsMOr+TVFnix6yL57mg4+bpEJQvHZ8Jp6A4Etdzl6C6jB9z2P7oSvo4o8R5VHzb4jH4xSNvP4yACXdbcddSUJ3jRNx+o9HwrOtXN7j4IPU4dQPfVljaO2NOlAUdH09L0zT5KkO8vgjKU7xN4nEwCh6v7uKXN/zWD6pH+YC/aiLQxeMuKD5EOhNlPD+H1eVB+H76Hfs4xO27i9/knhOxPuP1gV+cubrsIqegPK2D9yX88puOUdMi6TrLr97Q2T++b2HlgNcjQfUfP4agdXmd4y46xwAAAAAAAJOjP5oIMMP4FaphJ+mqgZCwE2hd/OQ5aF9GGZjodrvSd4JOzkViHAUNSiRB/O2gCQ8eHzrHx78TtD5Pm6CBRsfn7oo44i7p/eCDsDr5yhlzomycATo/PJ6CyhI/Zl08//gdNx9wC4p/ER8gC5ooFtejkEkyR3Fnx7iDrs6EjlM3zkfBt00hdYKL52m//MwvUtDdd91JDl7OdcouH3yngLLCy4m4fV7edOLNGWOiTGdAnX/Hb3KDH1dQuXEi1HW6+O9TQB5yFO04acQHnxQJimteDnSPUWeijB/rOPh+6uT3qMTtk0a96iiO0a8s8PrAL3+K+ETjOMccZ/yNuq2k6yxeB1BI2RKJ+6bbPvJ6UIWXRdM0Q/MUT3fSjCsAAAAAAJicfyCAOdfpdMi27WE4l8vR6uqqtA63urpKN27c4G/H4nOf+5wUvn37thQe1/Xr16Xw9773PSnsJ5fLDV8fHx9LnyUtnU4PX/f7femzILlcjnZ3d/nbkvX1dTIMYxjudDrS56Lf//73w9eGYdDFixelz7lUKkVHR0dkmib/aCyzsh9xKZVKlM/n+dtjS7osRfHKK69I4eeee04K+7l48aKUPw8ODqjX60nrqJimSUdHR5RKpfhHQ6lUir785S8Pw2I9OKpJH2fSdOoQIqJnnnlGCv/2t7+Vwq69vb3ha8Mw6KmnnpI+93PlyhUp/POf/1wKExG12206PT0dhjOZDK2vr0vrqKRSKfr+978vvfdf//VfUjhMsViUjq1QKGjF2zhu3LgR2lY/+uijUvj999+Xwq4//elPw9eWZQWWGxrEreu1116TPotDtVoNrBNTqZS0D0REv/zlLwPjY2VlRWoDbt26JX0+KZ/4xCek8MnJiRSeZTr1KhF5ynW9XpfCroODg+HrQqFAKysr0ucqDz30kBR+/fXXpXAUd9xxhxQeZ1ujmEadpdvf6HQ60r69+OKL0ud+vvrVr0phVf5+8803pfD3v//90DyVz+epWq3ytwEAAAAAYIZgogzmHj9hvXDhghT2EzQgNY4HHniAvxUrPoCrMzBDisGtdrsthZP04IMP8re0fOELX+BvKd1///3D136D83xCVZxgCJJKpaSJvnHNyn7E6bvf/S5/KxZJl6UoxMlN0zS1BgNdfFDvnXfekcIq6XQ6dOCNFGXEL//rmvRxJo3Hj5/z589LYdWkY7vdlib68/m8VhrRoL0RJznEAVzXH//4Ryn85JNPSuEgfPD9rbfeksJB6vX6xCfJSLMNvvfee6Xwxx9/LIVdH3744fC1bpokie+3Cm8XNzc3pbCK2Aao8ugk/NM//ZMUfuSRRybanxiHbr2aSqXIsqxhuN/ve+rWdrstpQG/sMMP/31xkjeq1dVV6QKF7e1t30m9JEyjztLtb/CLyu666y4p7OfOO++Uwn/+85+lMBHRH/7wBynMy4QfnXoBAAAAAACmBxNlMPfee+89KXzWT0TFAUHDMCibzWotP/vZz6TtTPPunCSpBqBJcSeC7gB63GZlP+LEB/7Omk6nI02QiAOoOvgAqmrgLS7jTE7N03HGLZVKSQPOqnqEx63ORI+IT3TzyQUevueee6RwEH7BBL+AxM+vfvUr2traGoYnNUk2qrfffpu/RcQmncLumO71etI6fMIKgq2urkp3qPf7fTp37hwVi0Xl3Tfzit/Bzcs/70P9+te/9vS7/BaR2KcbxQ9/+EMpvLW1RdlsdiITZtOos3T7Gx999JEUfvHFFz3poFq+853vSN/j2yHFkwuitgUAAAAAADCbMFEGZw5/FE3cer0eHR4eUqVSoWKxGHqSHTdxgK/f79Px8bHWkuTV551Oh+r1OlUqFcrn85444ZN0s4DfYTcts7If0zDtsqRr3MnNz3/+81JYNfA2CxblOP2Id6aqjHtRxn333SeF+UD7uIOv/A4YHeIdhKTYh3nB897+/r4UFr366qtSmH8Xwr300kueifS9vT3a2NigdDpNlUrFcwfWvAmr//hjDk9PTz39Lr8lThcvXqRCoSC9d3x8TFtbW7S8vEzFYjGxcs23O4k6Sxd/pCpPA79FdZFEEPECCwAAAAAAmG+YKIO5x0+Go56o6+p0OlQsFulTn/oUPfzww7S9vU17e3tjn2RPg2VZka789XNyckLZbJZM06StrS3a3t6mg4MDT5wkOUmniw9qRR3kjsus7Mc0naWypIM/yumsWpTjHFXSk+K6d1qIfvrTn0p3zhwfH1OlUpHWmQebm5vSf35dunRJOVm2v79Ply5dGoZN09R65CHIUqkU3bx5k8rlsmeiwLZt2t7eprvvvnsu89KkRXlcoZ/d3V1qNBqeu+D6/T7t7e2RaZpULBZnbvJylDprkgzD8PyXILEL1sIusAAAAAAAgPmBiTKYe/zxLUk8+qder5NlWdL/uMwCy7LIcZzIy82bN8ceoNjZ2aGNjQ1pwGCWffazn5XCfMJqUmZlP6ZlVssSwCK688476Te/+Y303vb2Nh0eHkrvzYNHH31UCl+6dImWl5eHd6guLy9Lk2SGYXiOHaK5fPkyffDBB1Sr1TwTCv1+n7a3tz3/XXhWNRoNT19LZ4krfjY3N+nWrVvUbDY9d5jR4I6/8+fPz9xk2aR0u11P3IctH3zwgfLiO35xAQAAAAAAnA2YKIO5x/8XJ27tdpu2trakx8LkcjlqNBpk27bnxLrZbErfj5v4qJpp3XGzv79P165dk94rlUrUbDaVgxHlclladxp0/8g9abOyH9Mwa2VpVH/605/4W4H4ZOi8POptUY7TpfsfOa6o/8HG734Ou6uX//9PGHHAlj8WL8jq6irVajXpvSeeeMLzWLVZ1ul06MqVK/xt6fHEYr1jmibduHFDOQgO0eXzeTo6OiLbtj2TNAcHB3N5Z1lY/cfrN7//z5u09fV12t3dpW6367njz7Zt+sY3viGtH6dJ1Vk6+KNu+X/MjYP/3yQAAAAAAJwNmCiDuccfZxV18DIM/6P0Wq1G9XqdNjc3PXezTQK/E2wag5nigKRhGNRqtejq1au0vr7u2b9Zwf+7LmwQLCmzsh/TMGtlSdf6+roUjjpB/de//lUKf+Yzn5HCs2JRjlOl1+tJEyn87hgiogceeEAKRx0UvnXr1vC1YRieuvLBBx+UwlEGdnk7wB/BFiafz0sTHP1+n3K53NzcffLjH/94mH6FQoFarRYVCgUpHgzDoFwuR7VajW7duoVJsgSsrKzQ7u6u5yKHWfyf0jD8kdG8fuSPmuX137SlUim6fPkynZ6eeu6A4vXFqKZZZ4Xh5wZ/+9vfpPA4PvnJT0rhqG0BAAAAAADMJkyUwdzj//F048YNKexH99FSv//974evLcuK7TE5Kh9//DF/y4MPTES9C2Jc7XZbGlAuFApzMeDI91FM1yCdTifWOJ7EfowyQDSJgZ5JlqW4B/jFq91t2/YM8vnp9XpUr9eHYdM0PXlglpy149SdiL5+/boU5ncjkOIOMN2yS4NHAosD76q8z+9Q+cMf/iCFg7z66qtS+Gtf+5oU1vHCCy947lh+/vnnpXVmlfgo169//eu0urpKu7u7dOvWLekxavV6XRn3Zw2/IENnEqfX60mTueNYX1+XJl75pJMfnT7QOG7duqXVNnQ6HelCAdXdTnziLEp9MEkrKyv04osvSu+9//77UlhFJy2mXWcF4Rc2RNm3MF/4whek8B//+Ecp7Oe///u/+VsAAAAAADBDMFEGc299fV16tMzBwUHo4G673aYnnniCv60kTgrxOwBUdAYX/Og8uoff6fDcc89pDfzE5fbt21KYT8qofPTRR/ytqcjlcsPX/X5fGthX6fV6lMvlpDwQh6T3g08ehw0QtdttunDhAn87dpMsS1GubNfx+OOPS+FSqSSF/bz88svScX/zm9+UPp81Z+04Dw4OqFgs8rc9nnvuOSn8la98RQrTIM+K9a9t27S/vy+t44cPVH/961+XwkRE58+fl9qyvb09rQnsXq9HP/rRj4ZhwzDooYcektbRkUql6Oc//7lnH8LqJ5g9fJI6bBKn1+tRNpvVntDSIeYjXTp9oHHYtk3ZbDa0z/TjH/9YCvN60SW25VHqg0njd7/p0EmLaddZQfi5ge6+6eD98H/7t3+Twir1et3zyHIAAAAAAJgtmCiDM4FfIR40MHp4eEgXLlzQnnQQHwfz5ptvBg6wHB4eak/AERF9+tOflsL8P2xUVldXPYO1zz//fOB+uer1OqXTae276VSi7nOlUpmZwQF+xXKxWPSNt3a7TdlsNvLj53QkvR9RBohOTk4ilYdxJFmWPvvZz0ph/n9Z43rsscc8E/JhEwj1ep22t7eHYcMw6KmnnpLWmTVn8Tj39vYC24RisShNEJim6blbxPXMM89I4StXrviWLVexWJT+iyeTySi3n0qlPP/v9PTTTweWE3eCQyy/zz77rNZEtMrq6ir98pe/lN7b2toKPcZpE/Psd77zHTo5OZE+X0S6kzidTidSG5NOp2lnZyc0Xx4cHAzDqjuyaIT+RBxOT08DJ8vq9bp0hyIN6kWVb3/721L4ypUrWnmv0+lQsViktbU1/lEkxWKRstls6MVhr7zyihTmd8fSiGkxC3VWkGeffVYKP/3006FxRYN+UTabpZ2dHf4R0aCeFPsztm0H/g9fpVKhra0t/nager1Oy8vLtLS0NHa/HQAAAAAANDkAZ4Bt245hGA4RDZdMJuM0m83hOq1WyykUCtI64nfK5bK0TRf/Ti6Xc2zbltaxbduznruI+6DC97tarTrdbtdxHMdpNpvK/Wq1Wp7fMU3TqdVqTqvVktZtNptOqVRyTNMcrqvaZhTittztufvsajabTiaT8ewnBVQ7zWbTs10d/HeCWJYlrevGm8u2badcLkvpIr7OZDLS9kaV9H7w/GgYhlOr1YbpNGp5cCLGt4j/XpxliZcJwzCcRqPhOI7jdLtdp9FoSPHripLnyuWyZ59yudzwd1zNZlN5DKrfF4nrhqWvi+9TUBzp4tuM+zijxHlUfNtinrYsSzqGVqvl5HI5z/6HxSHP/0TklEolqe518xxf1zAMTx0t6na7njbBMAynWq1KZcW2badWq3nqYsuyPHWxiKet37GWSiVpPdM0fbcrrheUb3lc6ODp6ZdX+HHxxTAMJ5PJDJdCoeCJ03Hw3/eLVxH/jo4ocVir1TzxUC6Xh8c8ahsjrlsqlaRjdfM9b9+q1aq0DRHP7zp9oCjEbfNjFdtENz7E9Skgz7lUdUihUHCazaZUZtwyy9cfh5gfCoWC02g0pN9sNpue38vlctI2RKOkRdJ1VpQ8z3W7Xc/vGYbhlMtlTxlttVpOtVqV8q5fGXAcx2k0GtJ2aZAG4jHzNoDHE98HEd/voH0BAAAAAIB4RDvjAJhhqkGhoKVWq0knsKoBAMdnEo4GJ/eZTMYzIGQYhnSCG3Qi7CgGy1SLamA16vGGbS8K1QABDU7kM5mM5wSfx5Ef3UFRLspASqvVUqan31IoFKQ0imuwIun9UA1eBS265cGJGN+ipMsS3y++GIbBvxI5z6kmhnSWsMkjJ8KEg4jXH2FxpCvJ44wa51HwbUctZ6VSiW/So9vtevKqzmKETJK5ou6zu4QNODsR8ws/Rr88qbOOoyifOnh6BuUVfmy6i06ah+G/HRSvLv4dHVHjkK8ftOi2Mbx9D1ssy+KbkPB4UC065caPuB3VJF7QErbvzhj1AYVMWumIWk8bhhE4OTxqWiRZZ/E8HNWo+0YhE7xOxPh363/xvaB6gn/frzwCAAAAAEB88OhFODPy+TzVarXQ/8WwLItarZbncY1+VlZW6MaNG9JjVmjw+J7j42PpcUWZTIbeffddSqfT0rpBnnrqKd/HErnuuusu/hbl83lqtVqh3xVlMhlqNpue/y+JanNzUxnXx8fHdHx8LD3GrFQq0c2bN6X1pml1dVWZnpxhGNRoNGh3d5d/FIuk9yOVSmlt3zRNajab2uVhHEmXpXK57MmTIv67o9jd3aVqtRr4O6JJxm+czspxrq6u0unpqVY9Wa1W6erVq/xtj1QqRUdHR9r/30aD/Hx6eqpV97r7zP8HJ0ipVKKjo6NYH192dHQkpf/x8XHg48Wmqdfr0a9//Wv+tpZr164FPppznv3nf/5naD4yDIOq1ap2G/Ob3/xGuy7N5XJ0dHTE35aM2gcaxZ133klHR0eexwWqFAqF0H2nQX1w8+ZNKpfL/CNfhmFQuVyml156iX8UyQsvvBCavi7Lsuj/b++OcZtmAzgOm+8GFTeoD8BANiaQUCsuEDgByhUidWLqBaA3CFtZikAMDNkQSDCXcIJEcAN/w5dE9tumdUqRyPd/nimOk5DYjlPp5/fl48eP1f7+frlq7ab74m85Z13m3r171fn5eWcq0uvUdV1NJpPq+fPn5aqOly9f9vodGA6H1fn5ea/z/0rf7xgAAHCLynIGu242mzXj8bhzhe/e3l4zHA4vjHZoTy9VrivN5/Pm5OSkOTg46FydWtf1epqdldVUN31HEDRNs37t8grScrqzy5ydnTWj0ejC8/eW000dHx/3fh/bWG3r8t8dDAbNeDzuXLm82mZ1XXdeo202m3WuVr9un6y0r+rte9Vte3+W27w93VBTjKAbjUad1/ldf/p9XPX65fZtb8dyXVv7qvOr9ucmf/K7NJ/PN37/L3v+TY+51WcYDocXRlgMBoP1NFjbaO+jvvu3PbK0rusrRwvcxJ/4nOXIwm2ff5X2a5fHZjlqcvUZynPVNmbL6drKY7lafsfKKRm3NV1OnVu+79W5vZze7DpnZ2fr99nnOzWdTjuf67Ljsu9xe5PzRns0yF5rOtVSuX3KkSDz+byZTqfNdDpd/162H19dM7rjOttu1+aS724f7b9Z+ox2Wpksp/xr78vBYNAcF9Mmt9/TVfuyWT52NBpdOC/c9Ljf9Du1aZ/3tfotKPfLdDkt4XW/QduYzWbrz1Ful9X5ctKa7vG2rM4T5ci2m56jf2df3PY56ybnjU2+fv26fm+bztd9PmNpupyGuL3PNx1Lm47H0mQy6fyWla8DAADcvjvNf9M7AADATnn9+nX17Nmz9fLJycm1I0GqS543Ho97jSgEAAAA/n9MvQgAwE568+bN+nZd170iWbWcvrjty5cvnWUAAAAgh1AGAMBO+vXr1/r2Nv+n4WKx6Czfv3+/swwAAADkEMoAANh5nz59uhDANjk6OuosP3jwoLMMAAAA5BDKAADYSY8ePVrf/vnzZ3V4eFi9ffu285i2b9++VU+fPq1evXq1vu/g4KB68uRJ53EAAABAjjtN0zTlnQAA8LdbLBbV4eFh9fnz53JVNRgMqrt3766X379/31lfLR/z7t27zuMAAACALEIZAAA7a7FYVEdHR51RYn2MRqPqxYsXIhkAAACEE8oAANh5P378qD58+FCdnp5W379/r2azWWf9YDCo6rquHj58WD1+/Lja39/vrAcAAAAyCWUAAAAAAABE+qe8AwAAAAAAABIIZQAAAAAAAEQSygAAAAAAAIgklAEAAAAAABBJKAMAAAAAACCSUAYAAAAAAEAkoQwAAAAAAIBIQhkAAAAAAACRhDIAAAAAAAAiCWUAAAAAAABEEsoAAAAAAACIJJQBAAAAAAAQSSgDAAAAAAAgklAGAAAAAABAJKEMAAAAAACASEIZAAAAAAAAkYQyAAAAAAAAIgllAAAAAAAARBLKAAAAAAAAiCSUAQAAAAAAEEkoAwAAAAAAIJJQBgAAAAAAQCShDAAAAAAAgEhCGQAAAAAAAJGEMgAAAAAAACIJZQAAAAAAAEQSygAAAAAAAIgklAEAAAAAABBJKAMAAAAAACCSUAYAAAAAAEAkoQwAAAAAAIBIQhkAAAAAAACRhDIAAAAAAAAiCWUAAAAAAABEEsoAAAAAAACIJJQBAAAAAAAQSSgDAAAAAAAgklAGAAAAAABAJKEMAAAAAACASEIZAAAAAAAAkYQyAAAAAAAAIgllAAAAAAAARBLKAAAAAAAAiCSUAQAAAAAAEEkoAwAAAAAAIJJQBgAAAAAAQCShDAAAAAAAgEhCGQAAAAAAAJGEMgAAAAAAACIJZQAAAAAAAEQSygAAAAAAAIgklAEAAAAAABBJKAMAAAAAACCSUAYAAAAAAEAkoQwAAAAAAIBIQhkAAAAAAACRhDIAAAAAAAAiCWUAAAAAAABEEsoAAAAAAACIJJQBAAAAAAAQSSgDAAAAAAAgklAGAAAAAABAJKEMAAAAAACASEIZAAAAAAAAkYQyAAAAAAAAIgllAAAAAAAARBLKAAAAAAAAiCSUAQAAAAAAEEkoAwAAAAAAIJJQBgAAAAAAQCShDAAAAAAAgEhCGQAAAAAAAJGEMgAAAAAAACIJZQAAAAAAAEQSygAAAAAAAIgklAEAAAAAABBJKAMAAAAAACCSUAYAAAAAAEAkoQwAAAAAAIBIQhkAAAAAAACRhDIAAAAAAAAiCWUAAAAAAABEEsoAAAAAAACIJJQBAAAAAAAQSSgDAAAAAAAgklAGAAAAAABAJKEMAAAAAACASEIZAAAAAAAAkYQyAAAAAAAAIgllAAAAAAAARBLKAAAAAAAAiCSUAQAAAAAAEEkoAwAAAAAAIJJQBgAAAAAAQCShDAAAAAAAgEhCGQAAAAAAAJGEMgAAAAAAACIJZQAAAAAAAEQSygAAAAAAAIgklAEAAAAAABBJKAMAAAAAACCSUAYAAAAAAEAkoQwAAAAAAIBIQhkAAAAAAACRhDIAAAAAAAAiCWUAAAAAAABEEsoAAAAAAACIJJQBAAAAAAAQSSgDAAAAAAAgklAGAAAAAABAJKEMAAAAAACASEIZAAAAAAAAkYQyAAAAAAAAIgllAAAAAAAARBLKAAAAAAAAiCSUAQAAAAAAEEkoAwAAAAAAIJJQBgAAAAAAQCShDAAAAAAAgEhCGQAAAAAAAJGEMgAAAAAAACIJZQAAAAAAAEQSygAAAAAAAIgklAEAAAAAABBJKAMAAAAAACCSUAYAAAAAAEAkoQwAAAAAAIBIQhkAAAAAAACRhDIAAAAAAAAiCWUAAAAAAABEEsoAAAAAAACIJJQBAAAAAAAQSSgDAAAAAAAgklAGAAAAAABAJKEMAAAAAACASEIZAAAAAAAAkYQyAAAAAAAAIgllAAAAAAAARBLKAAAAAAAAiCSUAQAAAAAAEEkoAwAAAAAAIJJQBgAAAAAAQCShDAAAAAAAgEhCGQAAAAAAAJGEMgAAAAAAACIJZQAAAAAAAEQSygAAAAAAAIgklAEAAAAAABBJKAMAAAAAACCSUAYAAAAAAEAkoQwAAAAAAIBIQhkAAAAAAACRhDIAAAAAAAAiCWUAAAAAAABEEsoAAAAAAACIJJQBAAAAAAAQSSgDAAAAAAAgklAGAAAAAABAJKEMAAAAAACASEIZAAAAAAAAkYQyAAAAAAAAIgllAAAAAAAARBLKAAAAAAAAiCSUAQAAAAAAEEkoAwAAAAAAIJJQBgAAAAAAQCShDAAAAAAAgEhCGQAAAAAAAJGEMgAAAAAAACIJZQAAAAAAAEQSygAAAAAAAIgklAEAAAAAABBJKAMAAAAAACCSUAYAAAAAAEAkoQwAAAAAAIBIQhkAAAAAAACR/gUQkkUU01JAuwAAAABJRU5ErkJggg==;" vertex="1" parent="WIyWlLk6GJQsqaUBKTNV-1">
          <mxGeometry x="160" y="60" width="531.25" height="210" as="geometry" />
        </mxCell>
        <mxCell id="-COdb05E4avoqhz34k6Q-16" value="Member" style="html=1;whiteSpace=wrap;" vertex="1" parent="WIyWlLk6GJQsqaUBKTNV-1">
          <mxGeometry x="160" y="350" width="100" height="40" as="geometry" />
        </mxCell>
        <mxCell id="-COdb05E4avoqhz34k6Q-17" value="Potential Member" style="html=1;whiteSpace=wrap;" vertex="1" parent="WIyWlLk6GJQsqaUBKTNV-1">
          <mxGeometry x="160" y="430" width="100" height="40" as="geometry" />
        </mxCell>
        <mxCell id="-COdb05E4avoqhz34k6Q-18" value="Past Member" style="html=1;whiteSpace=wrap;" vertex="1" parent="WIyWlLk6GJQsqaUBKTNV-1">
          <mxGeometry x="160" y="500" width="100" height="40" as="geometry" />
        </mxCell>
        <mxCell id="-COdb05E4avoqhz34k6Q-19" value="Club Member" style="html=1;whiteSpace=wrap;" vertex="1" parent="WIyWlLk6GJQsqaUBKTNV-1">
          <mxGeometry x="160" y="580" width="100" height="40" as="geometry" />
        </mxCell>
        <mxCell id="-COdb05E4avoqhz34k6Q-20" value="Agreement" style="html=1;whiteSpace=wrap;" vertex="1" parent="WIyWlLk6GJQsqaUBKTNV-1">
          <mxGeometry x="480" y="350" width="100" height="40" as="geometry" />
        </mxCell>
        <mxCell id="-COdb05E4avoqhz34k6Q-21" value="Order" style="html=1;whiteSpace=wrap;" vertex="1" parent="WIyWlLk6GJQsqaUBKTNV-1">
          <mxGeometry x="480" y="580" width="100" height="40" as="geometry" />
        </mxCell>
        <mxCell id="-COdb05E4avoqhz34k6Q-22" value="Product" style="html=1;whiteSpace=wrap;" vertex="1" parent="WIyWlLk6GJQsqaUBKTNV-1">
          <mxGeometry x="480" y="700" width="100" height="40" as="geometry" />
        </mxCell>
        <mxCell id="-COdb05E4avoqhz34k6Q-23" value="Club Facilities" style="html=1;whiteSpace=wrap;" vertex="1" parent="WIyWlLk6GJQsqaUBKTNV-1">
          <mxGeometry x="380" y="800" width="100" height="40" as="geometry" />
        </mxCell>
        <mxCell id="-COdb05E4avoqhz34k6Q-24" value="Club Souvenirs" style="html=1;whiteSpace=wrap;" vertex="1" parent="WIyWlLk6GJQsqaUBKTNV-1">
          <mxGeometry x="590" y="800" width="100" height="40" as="geometry" />
        </mxCell>
        <mxCell id="-COdb05E4avoqhz34k6Q-25" value="Courts" style="html=1;whiteSpace=wrap;" vertex="1" parent="WIyWlLk6GJQsqaUBKTNV-1">
          <mxGeometry x="230" y="900" width="100" height="40" as="geometry" />
        </mxCell>
        <mxCell id="-COdb05E4avoqhz34k6Q-26" value="Tables" style="html=1;whiteSpace=wrap;" vertex="1" parent="WIyWlLk6GJQsqaUBKTNV-1">
          <mxGeometry x="360" y="900" width="100" height="40" as="geometry" />
        </mxCell>
        <mxCell id="-COdb05E4avoqhz34k6Q-27" value="Halls" style="html=1;whiteSpace=wrap;" vertex="1" parent="WIyWlLk6GJQsqaUBKTNV-1">
          <mxGeometry x="490" y="900" width="100" height="40" as="geometry" />
        </mxCell>
        <mxCell id="-COdb05E4avoqhz34k6Q-28" value="Badminton Court" style="html=1;whiteSpace=wrap;" vertex="1" parent="WIyWlLk6GJQsqaUBKTNV-1">
          <mxGeometry x="110" y="1000" width="100" height="40" as="geometry" />
        </mxCell>
        <mxCell id="-COdb05E4avoqhz34k6Q-29" value="Tennis Court" style="html=1;whiteSpace=wrap;" vertex="1" parent="WIyWlLk6GJQsqaUBKTNV-1">
          <mxGeometry x="230" y="1000" width="100" height="40" as="geometry" />
        </mxCell>
        <mxCell id="-COdb05E4avoqhz34k6Q-30" value="Tennis" style="html=1;whiteSpace=wrap;" vertex="1" parent="WIyWlLk6GJQsqaUBKTNV-1">
          <mxGeometry x="360" y="1000" width="100" height="40" as="geometry" />
        </mxCell>
        <mxCell id="-COdb05E4avoqhz34k6Q-31" value="Pool" style="html=1;whiteSpace=wrap;" vertex="1" parent="WIyWlLk6GJQsqaUBKTNV-1">
          <mxGeometry x="480" y="1000" width="100" height="40" as="geometry" />
        </mxCell>
        <mxCell id="-COdb05E4avoqhz34k6Q-34" value="" style="endArrow=block;endSize=16;endFill=0;html=1;rounded=0;exitX=0;exitY=0.5;exitDx=0;exitDy=0;" edge="1" parent="WIyWlLk6GJQsqaUBKTNV-1" source="-COdb05E4avoqhz34k6Q-19">
          <mxGeometry width="160" relative="1" as="geometry">
            <mxPoint x="40" y="369.5" as="sourcePoint" />
            <mxPoint x="160" y="369.5" as="targetPoint" />
            <Array as="points">
              <mxPoint x="80" y="600" />
              <mxPoint x="80" y="370" />
            </Array>
          </mxGeometry>
        </mxCell>
        <mxCell id="-COdb05E4avoqhz34k6Q-35" value="" style="endArrow=none;html=1;rounded=0;" edge="1" parent="WIyWlLk6GJQsqaUBKTNV-1">
          <mxGeometry width="50" height="50" relative="1" as="geometry">
            <mxPoint x="80" y="450" as="sourcePoint" />
            <mxPoint x="160" y="450" as="targetPoint" />
          </mxGeometry>
        </mxCell>
        <mxCell id="-COdb05E4avoqhz34k6Q-36" value="" style="endArrow=none;html=1;rounded=0;" edge="1" parent="WIyWlLk6GJQsqaUBKTNV-1">
          <mxGeometry width="50" height="50" relative="1" as="geometry">
            <mxPoint x="80" y="519.5" as="sourcePoint" />
            <mxPoint x="160" y="519.5" as="targetPoint" />
          </mxGeometry>
        </mxCell>
        <mxCell id="-COdb05E4avoqhz34k6Q-43" value="" style="endArrow=open;endFill=1;endSize=12;html=1;rounded=0;" edge="1" parent="WIyWlLk6GJQsqaUBKTNV-1">
          <mxGeometry width="160" relative="1" as="geometry">
            <mxPoint x="390" y="360" as="sourcePoint" />
            <mxPoint x="420" y="360" as="targetPoint" />
          </mxGeometry>
        </mxCell>
        <mxCell id="-COdb05E4avoqhz34k6Q-44" value="" style="endArrow=open;endFill=1;endSize=12;html=1;rounded=0;" edge="1" parent="WIyWlLk6GJQsqaUBKTNV-1">
          <mxGeometry width="160" relative="1" as="geometry">
            <mxPoint x="390" y="590" as="sourcePoint" />
            <mxPoint x="420" y="590" as="targetPoint" />
          </mxGeometry>
        </mxCell>
        <mxCell id="-COdb05E4avoqhz34k6Q-45" value="" style="endArrow=diamondThin;endFill=1;endSize=24;html=1;rounded=0;exitX=0.5;exitY=1;exitDx=0;exitDy=0;entryX=0.5;entryY=0;entryDx=0;entryDy=0;" edge="1" parent="WIyWlLk6GJQsqaUBKTNV-1" source="-COdb05E4avoqhz34k6Q-21" target="-COdb05E4avoqhz34k6Q-22">
          <mxGeometry width="160" relative="1" as="geometry">
            <mxPoint x="390" y="750" as="sourcePoint" />
            <mxPoint x="550" y="750" as="targetPoint" />
          </mxGeometry>
        </mxCell>
        <mxCell id="-COdb05E4avoqhz34k6Q-46" value="" style="endArrow=block;endSize=16;endFill=0;html=1;rounded=0;" edge="1" parent="WIyWlLk6GJQsqaUBKTNV-1">
          <mxGeometry width="160" relative="1" as="geometry">
            <mxPoint x="530" y="780" as="sourcePoint" />
            <mxPoint x="529.5" y="740" as="targetPoint" />
          </mxGeometry>
        </mxCell>
        <mxCell id="-COdb05E4avoqhz34k6Q-47" value="" style="endArrow=none;html=1;rounded=0;entryX=0.5;entryY=0;entryDx=0;entryDy=0;exitX=0.5;exitY=0;exitDx=0;exitDy=0;" edge="1" parent="WIyWlLk6GJQsqaUBKTNV-1" source="-COdb05E4avoqhz34k6Q-23" target="-COdb05E4avoqhz34k6Q-24">
          <mxGeometry width="50" height="50" relative="1" as="geometry">
            <mxPoint x="450" y="780" as="sourcePoint" />
            <mxPoint x="610" y="780" as="targetPoint" />
            <Array as="points">
              <mxPoint x="430" y="780" />
              <mxPoint x="640" y="780" />
            </Array>
          </mxGeometry>
        </mxCell>
        <mxCell id="-COdb05E4avoqhz34k6Q-48" value="" style="endArrow=block;endSize=16;endFill=0;html=1;rounded=0;" edge="1" parent="WIyWlLk6GJQsqaUBKTNV-1">
          <mxGeometry width="160" relative="1" as="geometry">
            <mxPoint x="430" y="880" as="sourcePoint" />
            <mxPoint x="429.5" y="840" as="targetPoint" />
          </mxGeometry>
        </mxCell>
        <mxCell id="-COdb05E4avoqhz34k6Q-49" value="" style="endArrow=none;html=1;rounded=0;exitX=0.5;exitY=0;exitDx=0;exitDy=0;" edge="1" parent="WIyWlLk6GJQsqaUBKTNV-1">
          <mxGeometry width="50" height="50" relative="1" as="geometry">
            <mxPoint x="280" y="900" as="sourcePoint" />
            <mxPoint x="550" y="900" as="targetPoint" />
            <Array as="points">
              <mxPoint x="280" y="880" />
              <mxPoint x="490" y="880" />
              <mxPoint x="550" y="880" />
            </Array>
          </mxGeometry>
        </mxCell>
        <mxCell id="-COdb05E4avoqhz34k6Q-50" value="" style="endArrow=none;html=1;rounded=0;exitX=0.627;exitY=0;exitDx=0;exitDy=0;exitPerimeter=0;" edge="1" parent="WIyWlLk6GJQsqaUBKTNV-1" source="-COdb05E4avoqhz34k6Q-26">
          <mxGeometry width="50" height="50" relative="1" as="geometry">
            <mxPoint x="389" y="920" as="sourcePoint" />
            <mxPoint x="423" y="880" as="targetPoint" />
          </mxGeometry>
        </mxCell>
        <mxCell id="-COdb05E4avoqhz34k6Q-51" value="" style="endArrow=block;endSize=16;endFill=0;html=1;rounded=0;" edge="1" parent="WIyWlLk6GJQsqaUBKTNV-1">
          <mxGeometry width="160" relative="1" as="geometry">
            <mxPoint x="280" y="980" as="sourcePoint" />
            <mxPoint x="279.5" y="940" as="targetPoint" />
          </mxGeometry>
        </mxCell>
        <mxCell id="-COdb05E4avoqhz34k6Q-52" value="" style="endArrow=none;html=1;rounded=0;entryX=0.653;entryY=0;entryDx=0;entryDy=0;exitX=0.6;exitY=-0.033;exitDx=0;exitDy=0;exitPerimeter=0;entryPerimeter=0;" edge="1" parent="WIyWlLk6GJQsqaUBKTNV-1" source="-COdb05E4avoqhz34k6Q-28" target="-COdb05E4avoqhz34k6Q-29">
          <mxGeometry width="50" height="50" relative="1" as="geometry">
            <mxPoint x="110" y="1000" as="sourcePoint" />
            <mxPoint x="320" y="1000" as="targetPoint" />
            <Array as="points">
              <mxPoint x="170" y="980" />
              <mxPoint x="295" y="980" />
            </Array>
          </mxGeometry>
        </mxCell>
        <mxCell id="-COdb05E4avoqhz34k6Q-53" value="" style="endArrow=block;endSize=16;endFill=0;html=1;rounded=0;" edge="1" parent="WIyWlLk6GJQsqaUBKTNV-1">
          <mxGeometry width="160" relative="1" as="geometry">
            <mxPoint x="410" y="980" as="sourcePoint" />
            <mxPoint x="409.5" y="940" as="targetPoint" />
          </mxGeometry>
        </mxCell>
        <mxCell id="-COdb05E4avoqhz34k6Q-54" value="" style="endArrow=none;html=1;rounded=0;entryX=0.653;entryY=0;entryDx=0;entryDy=0;exitX=0.6;exitY=-0.033;exitDx=0;exitDy=0;exitPerimeter=0;entryPerimeter=0;" edge="1" parent="WIyWlLk6GJQsqaUBKTNV-1">
          <mxGeometry width="50" height="50" relative="1" as="geometry">
            <mxPoint x="390" y="999" as="sourcePoint" />
            <mxPoint x="515" y="1000" as="targetPoint" />
            <Array as="points">
              <mxPoint x="390" y="980" />
              <mxPoint x="515" y="980" />
            </Array>
          </mxGeometry>
        </mxCell>
        <mxCell id="-COdb05E4avoqhz34k6Q-55" value="1..*" style="resizable=0;align=right;verticalAlign=bottom;labelBackgroundColor=none;fontSize=12;" connectable="0" vertex="1" parent="WIyWlLk6GJQsqaUBKTNV-1">
          <mxGeometry x="560" y="640" as="geometry" />
        </mxCell>
        <mxCell id="-COdb05E4avoqhz34k6Q-56" value="1..*" style="resizable=0;align=right;verticalAlign=bottom;labelBackgroundColor=none;fontSize=12;" connectable="0" vertex="1" parent="WIyWlLk6GJQsqaUBKTNV-1">
          <mxGeometry x="550" y="670" as="geometry">
            <mxPoint x="10" y="28" as="offset" />
          </mxGeometry>
        </mxCell>
        <mxCell id="-COdb05E4avoqhz34k6Q-61" value="1..1" style="resizable=0;align=right;verticalAlign=bottom;labelBackgroundColor=none;fontSize=12;" connectable="0" vertex="1" parent="WIyWlLk6GJQsqaUBKTNV-1">
          <mxGeometry x="470" y="370" as="geometry" />
        </mxCell>
        <mxCell id="-COdb05E4avoqhz34k6Q-62" value="1..*" style="resizable=0;align=left;verticalAlign=bottom;labelBackgroundColor=none;fontSize=12;" connectable="0" vertex="1" parent="WIyWlLk6GJQsqaUBKTNV-1">
          <mxGeometry x="270" y="370" as="geometry" />
        </mxCell>
        <mxCell id="-COdb05E4avoqhz34k6Q-63" value="" style="endArrow=none;html=1;rounded=0;entryX=0;entryY=0.5;entryDx=0;entryDy=0;exitX=1;exitY=0.5;exitDx=0;exitDy=0;" edge="1" parent="WIyWlLk6GJQsqaUBKTNV-1" source="-COdb05E4avoqhz34k6Q-16" target="-COdb05E4avoqhz34k6Q-20">
          <mxGeometry width="50" height="50" relative="1" as="geometry">
            <mxPoint x="280" y="390" as="sourcePoint" />
            <mxPoint x="330" y="340" as="targetPoint" />
          </mxGeometry>
        </mxCell>
        <mxCell id="-COdb05E4avoqhz34k6Q-64" value="1..*" style="resizable=0;align=left;verticalAlign=bottom;labelBackgroundColor=none;fontSize=12;" connectable="0" vertex="1" parent="WIyWlLk6GJQsqaUBKTNV-1">
          <mxGeometry x="220" y="650" as="geometry" />
        </mxCell>
        <mxCell id="-COdb05E4avoqhz34k6Q-65" value="1..*" style="resizable=0;align=left;verticalAlign=bottom;labelBackgroundColor=none;fontSize=12;" connectable="0" vertex="1" parent="WIyWlLk6GJQsqaUBKTNV-1">
          <mxGeometry x="450" y="600" as="geometry" />
        </mxCell>
        <mxCell id="-COdb05E4avoqhz34k6Q-66" value="1..*" style="resizable=0;align=left;verticalAlign=bottom;labelBackgroundColor=none;fontSize=12;" connectable="0" vertex="1" parent="WIyWlLk6GJQsqaUBKTNV-1">
          <mxGeometry x="340" y="816" as="geometry" />
        </mxCell>
        <mxCell id="-COdb05E4avoqhz34k6Q-68" value="" style="endArrow=none;html=1;rounded=0;entryX=0;entryY=0.5;entryDx=0;entryDy=0;exitX=1;exitY=0.5;exitDx=0;exitDy=0;" edge="1" parent="WIyWlLk6GJQsqaUBKTNV-1">
          <mxGeometry width="50" height="50" relative="1" as="geometry">
            <mxPoint x="260" y="599.5" as="sourcePoint" />
            <mxPoint x="480" y="599.5" as="targetPoint" />
          </mxGeometry>
        </mxCell>
        <mxCell id="-COdb05E4avoqhz34k6Q-70" value="1..1" style="resizable=0;align=left;verticalAlign=bottom;labelBackgroundColor=none;fontSize=12;" connectable="0" vertex="1" parent="WIyWlLk6GJQsqaUBKTNV-1">
          <mxGeometry x="260" y="600" as="geometry" />
        </mxCell>
        <mxCell id="-COdb05E4avoqhz34k6Q-71" value="" style="endArrow=none;html=1;rounded=0;entryX=0;entryY=0.5;entryDx=0;entryDy=0;exitX=0.75;exitY=1;exitDx=0;exitDy=0;" edge="1" parent="WIyWlLk6GJQsqaUBKTNV-1" source="-COdb05E4avoqhz34k6Q-19" target="-COdb05E4avoqhz34k6Q-23">
          <mxGeometry width="50" height="50" relative="1" as="geometry">
            <mxPoint x="194" y="630" as="sourcePoint" />
            <mxPoint x="414" y="630" as="targetPoint" />
          </mxGeometry>
        </mxCell>
        <mxCell id="-COdb05E4avoqhz34k6Q-73" value="Booking" style="swimlane;fontStyle=0;childLayout=stackLayout;horizontal=1;startSize=26;fillColor=none;horizontalStack=0;resizeParent=1;resizeParentMax=0;resizeLast=0;collapsible=1;marginBottom=0;whiteSpace=wrap;html=1;" vertex="1" parent="WIyWlLk6GJQsqaUBKTNV-1">
          <mxGeometry x="80" y="790" width="140" height="78" as="geometry">
            <mxRectangle x="60" y="670" width="80" height="30" as="alternateBounds" />
          </mxGeometry>
        </mxCell>
        <mxCell id="-COdb05E4avoqhz34k6Q-74" value="- date: Date" style="text;strokeColor=none;fillColor=none;align=left;verticalAlign=top;spacingLeft=4;spacingRight=4;overflow=hidden;rotatable=0;points=[[0,0.5],[1,0.5]];portConstraint=eastwest;whiteSpace=wrap;html=1;" vertex="1" parent="-COdb05E4avoqhz34k6Q-73">
          <mxGeometry y="26" width="140" height="26" as="geometry" />
        </mxCell>
        <mxCell id="-COdb05E4avoqhz34k6Q-75" value="- duration: Time" style="text;strokeColor=none;fillColor=none;align=left;verticalAlign=top;spacingLeft=4;spacingRight=4;overflow=hidden;rotatable=0;points=[[0,0.5],[1,0.5]];portConstraint=eastwest;whiteSpace=wrap;html=1;" vertex="1" parent="-COdb05E4avoqhz34k6Q-73">
          <mxGeometry y="52" width="140" height="26" as="geometry" />
        </mxCell>
        <mxCell id="-COdb05E4avoqhz34k6Q-77" value="" style="endArrow=none;dashed=1;html=1;rounded=0;exitX=0.5;exitY=0;exitDx=0;exitDy=0;" edge="1" parent="WIyWlLk6GJQsqaUBKTNV-1" source="-COdb05E4avoqhz34k6Q-73">
          <mxGeometry width="50" height="50" relative="1" as="geometry">
            <mxPoint x="150" y="760" as="sourcePoint" />
            <mxPoint x="310" y="720" as="targetPoint" />
            <Array as="points">
              <mxPoint x="150" y="720" />
            </Array>
          </mxGeometry>
        </mxCell>
        <mxCell id="-COdb05E4avoqhz34k6Q-78" value="book" style="text;html=1;align=center;verticalAlign=middle;whiteSpace=wrap;rounded=0;direction=west;flipH=1;flipV=1;" vertex="1" parent="WIyWlLk6GJQsqaUBKTNV-1">
          <mxGeometry x="280" y="680" width="60" height="30" as="geometry" />
        </mxCell>
        <mxCell id="-COdb05E4avoqhz34k6Q-79" value="sign" style="text;html=1;align=center;verticalAlign=middle;whiteSpace=wrap;rounded=0;" vertex="1" parent="WIyWlLk6GJQsqaUBKTNV-1">
          <mxGeometry x="330" y="340" width="60" height="30" as="geometry" />
        </mxCell>
        <mxCell id="-COdb05E4avoqhz34k6Q-80" value="place" style="text;html=1;align=center;verticalAlign=middle;whiteSpace=wrap;rounded=0;" vertex="1" parent="WIyWlLk6GJQsqaUBKTNV-1">
          <mxGeometry x="330" y="570" width="60" height="30" as="geometry" />
        </mxCell>
      </root>
    </mxGraphModel>
  </diagram>
</mxfile>
